<?xml version="1.0" encoding="UTF-8"?>
<svg id="Layer_1" data-name="Layer 1" xmlns="http://www.w3.org/2000/svg" viewBox="0 0 500 500">
  <defs>
    <style>
      .cls-1 {
        fill: #231f20;
      }
    </style>
  </defs>
  <g>
    <path class="cls-1" d="M293.7,118.9c-.2,6.3-1.6,12.5-4.4,18.1-3.3,6.6-8.6,11.4-13.7,16.6-10.1,10.1-20.1,20.1-30.2,30.2v-12.5c10.3-10.3,20.8-20.8,31.1-31.1,4.3-4.3,8.5-8.5,11.6-13.8,2.7-4.7,4.2-9.5,5.1-14.7-.2-1.2-.4-2.4-.8-3.6-.7-2.8-1.8-5.6-3.1-8.1-10.7-21.1-37-32-58.5-20.6-10.6,5.6-18.4,15.8-20.9,27.6-.2,.7-.3,1.5-.4,2.2,.4,2.5,1.1,5,1.9,7.4,2,5.7,5.4,10.7,9.5,15,7.7,8,16.6,16.7,24.4,24.6v12.9c-5.1-5.2-11.2-11.2-16.3-16.4-7-7-14.2-13.6-17.7-23.2-1.8-5-2.3-10-2.5-15.2,0-.4-.1-.9-.1-1.3-.1-1.9,0-6,.1-8.2,0-4.2,.3-8.3,1.4-12.4,3.4-12.9,13.1-23.5,25.6-28.1,25.1-9.1,53.8,9.8,57.4,35.9,.8,6.1,.6,12.6,.4,18.8Z"/>
    <path class="cls-1" d="M208.9,256.1c.2-6.3,1.6-12.5,4.4-18.1,3.3-6.6,8.6-11.4,13.7-16.6,10.1-10.1,20.1-20.1,30.2-30.2v12.9c-10.3,10.3-20.6,20.6-30.9,30.9-4.3,4.3-8.7,8.4-11.8,13.6-2.7,4.7-4.2,9.5-5.1,14.7,.2,1.2,.4,2.4,.8,3.6,.7,2.8,1.8,5.6,3.1,8.1,10.7,21.1,37,32,58.5,20.6,10.6-5.6,18.4-15.8,20.9-27.6,.2-.7,.3-1.5,.4-2.2-.4-2.5-1.1-5-1.9-7.4-2-5.7-5.4-10.7-9.5-15-7.7-8-16.6-16.7-24.4-24.6v-12.9c5.1,5.2,11.2,11.2,16.3,16.4,7,7,14.2,13.6,17.7,23.2,1.8,5,2.3,10,2.5,15.2,0,.4,.1,.9,.1,1.3,.1,1.9,0,6-.1,8.2,0,4.2-.3,8.3-1.4,12.4-3.4,12.9-13.1,23.5-25.6,28.1-25.1,9.1-53.8-9.8-57.4-35.9-.8-6.1-.6-12.6-.4-18.8Z"/>
    <path class="cls-1" d="M241.3,186v12.9c-4.5-4.5-8.4-8.4-12.9-12.9-.3-.3-.6-.6-.9-.9-5.4-5.4-10.8-10.8-16.2-16.2-4.5-4.5-8.8-9-14.5-12.1-10.9-6-24.4-6.6-35.9-1.7-9.5,4.1-18.5,12.7-23.2,22-1.5,3-2.6,6.1-3.4,9.3-.2,.9-.4,1.8-.5,2.8,.9,5.4,2.8,10.7,5.8,15.4,13.9,22,45,25.1,63.5,7.1,8.2-8,16.3-16.3,24.4-24.4v12.4c-5.2,5.2-10.7,10.7-15.9,15.9-6.2,6.2-11.9,13.2-20,17-24.8,11.6-54.7-4.9-57.9-32.1-1.4-11.5-1.3-25.1,3.8-35.7,4.9-10.1,14.7-19.3,25.2-23.2,12.1-4.6,26-3.1,36.8,4,5.2,3.4,9.5,8.3,13.9,12.7,4.9,4.9,9.8,9.8,14.7,14.7,0,0,.1,.1,.2,.2,4.5,4.5,8.4,8.3,12.9,12.8Z"/>
    <path class="cls-1" d="M259.1,188.5v-12.9c4.6,4.5,8.8,8.7,13.2,13.2,.3,.3,.6,.6,.9,.9,5.4,5.4,10.8,10.8,16.2,16.2,4.5,4.5,8.8,9,14.5,12.1,10.9,6,24.4,6.6,35.9,1.7,9.5-4.1,18.5-12.7,23.2-22,1.5-3,2.6-6.1,3.4-9.3,.2-.9,.4-1.8,.5-2.8-.9-5.4-2.8-10.7-5.8-15.4-13.9-22-45.2-25.2-63.6-7.2-8.2,8-16.1,16.1-24.2,24.2v-12.6c5.2-5.2,10.4-10.4,15.6-15.6,6.2-6.2,12.1-13.1,20.3-16.9,24.8-11.6,54.7,4.9,57.9,32.1,1.4,11.5,1.3,25.1-3.8,35.7-4.9,10.1-14.7,19.3-25.2,23.2-12.1,4.6-26,3.1-36.8-4-5.2-3.4-9.5-8.3-13.9-12.7-4.9-4.9-9.8-9.8-14.7-14.7,0,0-.1-.1-.2-.2-4.5-4.5-8.8-8.7-13.2-13.2Z"/>
  </g>
  <rect class="cls-1" x="121" y="335.1" width="15.2" height="76.7"/>
  <path class="cls-1" d="M185.5,347.9c-2.1-3.7-5.4-6.8-9.8-9.2-4.4-2.4-9.8-3.6-16.2-3.6h-18v2.7h13.5c3.1,0,6,.9,8.8,2.8,2.8,1.8,5.1,4.4,6.9,7.7,1.8,3.3,2.6,6.9,2.6,10.9s-.9,7.8-2.6,11.1c-1.8,3.3-4,6-6.9,7.8-2.8,1.9-5.8,2.8-8.8,2.8h-13.5v2.7h18c6.5,0,11.9-1.2,16.3-3.7,4.4-2.4,7.6-5.5,9.7-9.3,2.1-3.7,3.2-7.6,3.2-11.4s-1.1-7.7-3.2-11.4Z"/>
  <polygon class="cls-1" points="264.2 338.5 240.5 381.6 214.6 335.1 198 335.1 198 411.8 200.7 411.8 200.7 341.2 233.8 402.4 264.2 345.4 264.2 338.5"/>
  <path class="cls-1" d="M285.6,335.9h-15.2v71.8c0,2.7,2.2,4.9,4.9,4.9h60v-2.7h-43.2c-3.6,0-6.4-2.9-6.4-6.4v-67.5Z"/>
  <polygon class="cls-1" points="365.6 335.1 338.8 383.4 313.7 335.1 298 335.1 298 405.8 300.7 405.8 300.7 341.2 333.8 403.3 365.6 342 365.6 410.9 380.9 410.9 380.9 335.1 365.6 335.1"/>
</svg>