<?xml version="1.0" encoding="utf-8"?>
<!-- Generator: Adobe Illustrator 26.5.0, SVG Export Plug-In . SVG Version: 6.00 Build 0)  -->
<svg version="1.1" xmlns="http://www.w3.org/2000/svg" xmlns:xlink="http://www.w3.org/1999/xlink" x="0px" y="0px"
	 viewBox="0 0 611.22 225.39" style="enable-background:new 0 0 611.22 225.39;" xml:space="preserve">
<style type="text/css">
	.st0{fill:#751B74;}
</style>
<g id="EN">
	<g>
		<g>
			<path class="st0" d="M145.03,54.71c-0.15,5.38-1.32,10.65-3.79,15.46c-2.86,5.61-7.33,9.76-11.71,14.13
				c-8.58,8.58-17.15,17.15-25.73,25.73V99.35c8.78-8.78,17.72-17.73,26.51-26.51c3.64-3.65,7.26-7.26,9.89-11.75
				c2.34-3.97,3.57-8.09,4.32-12.5c-0.16-1.02-0.38-2.04-0.64-3.05c-0.63-2.4-1.52-4.74-2.64-6.95
				c-9.1-17.96-31.54-27.28-49.9-17.58c-9.06,4.78-15.69,13.52-17.82,23.54c-0.14,0.63-0.24,1.27-0.33,1.91
				c0.34,2.14,0.9,4.25,1.63,6.29c1.74,4.84,4.58,9.1,8.14,12.78c6.61,6.84,14.14,14.28,20.83,21.03v10.97
				c-4.38-4.42-9.52-9.59-13.9-14.01c-5.95-6.01-12.11-11.6-15.08-19.79c-1.54-4.24-1.99-8.56-2.1-12.98
				c-0.01-0.35-0.1-0.74-0.12-1.09c-0.12-1.66-0.02-5.1,0.09-7.03c0.05-3.56,0.28-7.12,1.18-10.6
				c2.87-10.98,11.18-20.08,21.85-23.94c21.43-7.75,45.92,8.35,48.96,30.62C145.42,43.94,145.18,49.44,145.03,54.71z"/>
		</g>
		<g>
			<path class="st0" d="M72.72,171.78c0.15-5.38,1.32-10.65,3.79-15.46c2.86-5.61,7.33-9.76,11.71-14.13
				c8.58-8.58,17.15-17.15,25.73-25.73v10.97c-8.78,8.78-17.56,17.57-26.35,26.35c-3.64,3.65-7.42,7.13-10.05,11.62
				c-2.34,3.97-3.57,8.09-4.32,12.5c0.16,1.02,0.38,2.04,0.64,3.05c0.63,2.4,1.52,4.74,2.64,6.95c9.1,17.96,31.54,27.28,49.9,17.58
				c9.06-4.78,15.69-13.52,17.82-23.54c0.14-0.63,0.24-1.27,0.33-1.91c-0.34-2.14-0.9-4.25-1.63-6.29
				c-1.74-4.84-4.58-9.1-8.14-12.78c-6.61-6.84-14.14-14.28-20.83-21.03v-10.97c4.38,4.42,9.52,9.59,13.9,14.01
				c5.95,6.01,12.11,11.6,15.08,19.79c1.54,4.24,1.99,8.56,2.1,12.98c0.01,0.35,0.1,0.74,0.12,1.09c0.12,1.66,0.02,5.1-0.09,7.03
				c-0.05,3.56-0.28,7.12-1.18,10.6c-2.87,10.98-11.18,20.08-21.85,23.94c-21.43,7.75-45.92-8.35-48.96-30.62
				C72.33,182.56,72.56,177.05,72.72,171.78z"/>
		</g>
		<g>
			<path class="st0" d="M100.34,111.95V123c-3.83-3.83-7.18-7.18-11.02-11.01c-0.26-0.26-0.5-0.5-0.76-0.76
				c-4.61-4.61-9.23-9.23-13.84-13.84c-3.83-3.83-7.5-7.72-12.33-10.36c-9.34-5.13-20.83-5.64-30.6-1.42
				c-8.11,3.52-15.77,10.86-19.78,18.75c-1.28,2.52-2.25,5.21-2.89,7.97c-0.18,0.78-0.33,1.56-0.44,2.35
				c0.74,4.64,2.42,9.14,4.93,13.1c11.88,18.78,38.39,21.38,54.14,6.04c7.03-6.84,13.88-13.87,20.81-20.81l0.01,10.62
				c-4.44,4.44-9.13,9.13-13.57,13.57c-5.32,5.33-10.12,11.25-17.07,14.51c-21.14,9.9-46.64-4.16-49.43-27.37
				c-1.18-9.82-1.14-21.44,3.28-30.47c4.2-8.59,12.55-16.44,21.49-19.83c10.33-3.92,22.2-2.65,31.44,3.41
				c4.48,2.93,8.14,7.08,11.9,10.85c4.18,4.19,8.37,8.37,12.56,12.56c0.05,0.05,0.1,0.11,0.15,0.16
				C93.17,104.85,96.51,108.12,100.34,111.95z"/>
		</g>
		<g>
			<path class="st0" d="M115.53,114.12l0.11-10.97c3.83,3.83,7.36,7.39,11.19,11.22c0.26,0.26,0.5,0.5,0.76,0.76
				c4.61,4.61,9.23,9.23,13.84,13.84c3.83,3.83,7.5,7.72,12.33,10.36c9.34,5.13,20.83,5.64,30.6,1.42
				c8.11-3.52,15.77-10.86,19.78-18.75c1.28-2.52,2.25-5.21,2.89-7.97c0.18-0.78,0.33-1.56,0.44-2.35
				c-0.74-4.64-2.42-9.14-4.93-13.1C190.65,79.79,164,77.06,148.25,92.4c-7.03,6.84-13.72,13.74-20.65,20.68l-0.02-10.71
				c4.44-4.44,8.89-8.89,13.33-13.33c5.32-5.33,10.36-11.14,17.3-14.39c21.14-9.9,46.64,4.16,49.43,27.37
				c1.18,9.82,1.14,21.44-3.28,30.47c-4.2,8.59-12.55,16.44-21.49,19.83c-10.33,3.92-22.2,2.65-31.44-3.41
				c-4.48-2.93-8.14-7.08-11.9-10.85c-4.18-4.19-8.37-8.37-12.56-12.56c-0.05-0.05-0.1-0.11-0.15-0.16
				C122.99,121.51,119.36,117.95,115.53,114.12z"/>
		</g>
	</g>
	<g id="Layer_3">
		<rect x="226.86" y="40.25" class="st0" width="21.99" height="110.71"/>
		<path class="st0" d="M320.68,58.7c-3.06-5.4-7.78-9.83-14.15-13.28c-6.38-3.45-14.19-5.17-23.43-5.17h-26v3.91h19.55
			c4.42,0,8.69,1.34,12.79,4c4.1,2.67,7.42,6.38,9.96,11.13c2.54,4.75,3.81,9.99,3.81,15.72c0,5.86-1.27,11.2-3.81,16.01
			c-2.54,4.82-5.86,8.59-9.96,11.32c-4.1,2.73-8.36,4.1-12.79,4.1H257.1v3.9h26c9.37,0,17.21-1.76,23.53-5.27
			c6.31-3.52,11-7.97,14.06-13.37c3.06-5.4,4.59-10.9,4.59-16.5C325.26,69.6,323.73,64.1,320.68,58.7z"/>
		<polygon class="st0" points="434.53,45.17 400.32,107.42 362.84,40.25 338.82,40.25 338.82,150.96 342.73,150.96 342.73,49.04 
			390.56,137.49 434.53,55.12 		"/>
		<path class="st0" d="M465.48,41.48h-22.06v103.64c0,3.9,3.16,7.07,7.07,7.07h86.84v-3.9h-62.54c-5.14,0-9.31-4.17-9.31-9.31V41.48
			z"/>
		<polygon class="st0" points="581.32,40.25 542.47,109.96 506.25,40.25 483.5,40.25 483.5,142.36 487.41,142.36 487.41,49.04 
			535.24,138.76 581.32,50.21 581.32,149.69 603.38,149.69 603.38,40.25 		"/>
	</g>
	<g>
		<path class="st0" d="M226.91,165.96c1.64-0.27,3.2-0.41,4.66-0.41c2.9,0,5.01,0.53,6.33,1.6c1.32,1.06,1.98,2.75,1.98,5.06
			c0,2.29-0.66,3.97-1.98,5.05c-1.32,1.08-3.41,1.61-6.26,1.61c-0.32,0-0.64-0.01-0.96-0.03c-0.33-0.02-0.68-0.03-1.06-0.03v6.08
			h-2.7V165.96z M232.05,176.64c1.82,0,3.12-0.34,3.9-1.01c0.78-0.67,1.17-1.81,1.17-3.42c0-1.58-0.38-2.71-1.15-3.38
			c-0.77-0.67-2.06-1.01-3.88-1.01c-0.41,0-0.83,0.01-1.27,0.04s-0.84,0.07-1.2,0.14v8.45c0.27,0.07,0.64,0.12,1.11,0.15
			C231.2,176.62,231.64,176.64,232.05,176.64z"/>
		<path class="st0" d="M246.37,185.02c-1.17,0-2.07-0.33-2.68-1c-0.62-0.66-0.93-1.59-0.93-2.78c0-1.33,0.4-2.35,1.2-3.06
			c0.8-0.71,2.08-1.12,3.83-1.24l2.97-0.24v-0.93c0-1.12-0.21-1.89-0.64-2.3c-0.43-0.41-1.23-0.62-2.4-0.62
			c-0.52,0-1.13,0.04-1.82,0.12c-0.7,0.08-1.37,0.19-2.03,0.33l-0.24-2.06c0.83-0.14,1.63-0.25,2.38-0.33
			c0.75-0.08,1.47-0.12,2.14-0.12c1.82,0,3.16,0.36,4,1.08c0.84,0.72,1.27,1.86,1.27,3.42v9.58h-2.2l-0.27-1.72h-0.17
			c-0.68,0.57-1.38,1.02-2.13,1.36S247.15,185.02,246.37,185.02z M247.35,182.99c0.56,0,1.14-0.15,1.74-0.45
			c0.6-0.3,1.15-0.62,1.67-0.96v-3.26l-2.23,0.24c-1.15,0.11-1.95,0.35-2.41,0.7s-0.69,0.93-0.69,1.73
			C245.42,182.33,246.06,182.99,247.35,182.99z"/>
		<path class="st0" d="M257.92,170.97h2.23l0.14,1.58h0.17c1.17-0.69,2.17-1.17,3.01-1.44c0.83-0.28,1.61-0.41,2.33-0.41
			c2.3,0,3.44,1.26,3.44,3.78v10.4h-2.67v-9.54c0-0.85-0.15-1.45-0.44-1.82c-0.29-0.37-0.77-0.55-1.42-0.55
			c-0.59,0-1.23,0.12-1.92,0.36c-0.7,0.24-1.44,0.57-2.23,0.98v10.58h-2.63V170.97z"/>
		<path class="st0" d="M278.89,185.15c-0.74,0-1.52-0.06-2.33-0.17s-1.76-0.3-2.84-0.55v-20.36h2.63v8.38
			c0.47-0.55,1.05-0.98,1.72-1.29c0.67-0.31,1.44-0.46,2.3-0.46c1.71,0,3.01,0.57,3.9,1.72s1.33,2.9,1.33,5.25
			c0,2.31-0.56,4.13-1.67,5.44C282.82,184.43,281.14,185.11,278.89,185.15z M278.92,183.2c1.4,0,2.41-0.4,3.04-1.2
			c0.63-0.8,0.95-2.16,0.95-4.09c0-1.85-0.25-3.17-0.76-3.95c-0.51-0.78-1.36-1.17-2.55-1.17c-0.88,0-1.64,0.27-2.28,0.81
			s-0.96,1.3-0.96,2.28v7.04C277.14,183.11,278,183.2,278.92,183.2z"/>
		<path class="st0" d="M295.13,185.12c-2.05,0-3.59-0.59-4.63-1.79c-1.04-1.19-1.55-2.94-1.55-5.25c0-2.43,0.51-4.26,1.54-5.49
			c1.02-1.24,2.53-1.85,4.51-1.85c3.42,0,5.13,2.06,5.13,6.18c0,0.44-0.01,0.8-0.03,1.08s-0.06,0.57-0.1,0.84h-8.41
			c0.09,1.46,0.42,2.52,1,3.18s1.5,0.98,2.79,0.98c1.31,0,2.68-0.25,4.12-0.75l0.13,2.06c-0.65,0.25-1.38,0.45-2.18,0.6
			C296.64,185.05,295.87,185.12,295.13,185.12z M294.93,172.79c-2.09,0-3.21,1.42-3.34,4.26h6.18c-0.04-1.56-0.29-2.66-0.73-3.3
			C296.6,173.11,295.9,172.79,294.93,172.79z"/>
		<path class="st0" d="M304.01,170.97h2.23l0.13,1.89h0.17c0.68-0.46,1.39-0.88,2.14-1.27c0.75-0.39,1.49-0.67,2.21-0.86h0.78v2.51
			h-0.98c-0.72,0.09-1.43,0.27-2.13,0.53c-0.7,0.26-1.34,0.58-1.92,0.94v10.16h-2.63V170.97z"/>
		<path class="st0" d="M320.46,185.12c-2.05,0-3.59-0.59-4.63-1.79c-1.04-1.19-1.55-2.94-1.55-5.25c0-2.43,0.51-4.26,1.54-5.49
			c1.02-1.24,2.53-1.85,4.51-1.85c3.42,0,5.13,2.06,5.13,6.18c0,0.44-0.01,0.8-0.03,1.08s-0.06,0.57-0.1,0.84h-8.41
			c0.09,1.46,0.42,2.52,1,3.18s1.5,0.98,2.79,0.98c1.31,0,2.68-0.25,4.12-0.75l0.13,2.06c-0.65,0.25-1.38,0.45-2.18,0.6
			C321.97,185.05,321.2,185.12,320.46,185.12z M320.26,172.79c-2.09,0-3.21,1.42-3.34,4.26h6.18c-0.04-1.56-0.29-2.66-0.73-3.3
			C321.93,173.11,321.22,172.79,320.26,172.79z"/>
		<path class="st0" d="M333.02,185.15c-0.63,0-1.29-0.05-1.99-0.14c-0.7-0.09-1.52-0.24-2.47-0.45v-2.09
			c0.79,0.21,1.55,0.37,2.28,0.5c0.73,0.13,1.42,0.19,2.08,0.19c0.88,0,1.54-0.18,1.98-0.55c0.44-0.37,0.66-0.87,0.66-1.51
			c0-0.69-0.21-1.18-0.64-1.48c-0.43-0.3-1.05-0.54-1.86-0.72c-0.47-0.09-0.97-0.2-1.49-0.33c-0.52-0.12-0.99-0.33-1.42-0.6
			c-0.43-0.27-0.78-0.66-1.05-1.17c-0.27-0.5-0.41-1.19-0.41-2.06c0-1.3,0.43-2.32,1.3-3.04c0.87-0.72,2.08-1.08,3.63-1.08
			c0.58,0,1.16,0.05,1.72,0.14c0.56,0.09,1.32,0.22,2.26,0.38l-0.1,2.13c-0.83-0.18-1.52-0.32-2.06-0.41s-1.05-0.14-1.52-0.14
			c-1.8,0-2.7,0.65-2.7,1.96c0,0.76,0.25,1.26,0.76,1.53c0.51,0.26,1.17,0.47,1.98,0.63c0.59,0.14,1.13,0.29,1.64,0.46
			c0.51,0.17,0.95,0.41,1.32,0.7c0.37,0.3,0.66,0.69,0.86,1.17s0.3,1.08,0.3,1.79c0,1.3-0.44,2.33-1.32,3.07
			C335.89,184.78,334.64,185.15,333.02,185.15z"/>
		<path class="st0" d="M347.3,165.82h3.71l4.39,11.47l1.22,3.61h0.2l1.22-3.61l4.42-11.47h3.71v19.06h-2.5v-15.52h-0.13l-1.62,4.46
			l-3.98,10.27h-2.43l-3.95-10.27l-1.66-4.46h-0.13v15.52h-2.46V165.82z"/>
		<path class="st0" d="M374.35,185.15c-2.32,0-3.48-1.26-3.48-3.78v-10.4h2.63v9.58c0,0.85,0.14,1.44,0.42,1.79
			c0.28,0.34,0.76,0.52,1.44,0.52c0.65,0,1.32-0.13,2.01-0.4c0.69-0.26,1.4-0.6,2.14-1.01v-10.47h2.63v13.91h-2.19l-0.2-1.58h-0.1
			c-0.61,0.32-1.14,0.6-1.6,0.82c-0.46,0.23-0.89,0.42-1.3,0.58c-0.41,0.16-0.79,0.27-1.17,0.34
			C375.22,185.12,374.8,185.15,374.35,185.15z"/>
		<path class="st0" d="M386.82,164.07h2.63v20.81h-2.63V164.07z"/>
		<path class="st0" d="M399.31,185.09c-2.66,0-3.98-1.33-3.98-3.98v-7.83h-2.63v-2.3h2.77l0.37-3.61l2.09-0.31v3.91h3.71v2.3h-3.71
			v7.28c0,1.6,0.72,2.4,2.16,2.4c0.2,0,0.44-0.02,0.73-0.07s0.57-0.1,0.86-0.17v2.06C400.89,184.98,400.1,185.09,399.31,185.09z"/>
		<path class="st0" d="M406.4,168.26c-1.06,0-1.59-0.53-1.59-1.58c0-1.05,0.53-1.58,1.59-1.58c1.04,0,1.55,0.53,1.55,1.58
			C407.96,167.74,407.44,168.26,406.4,168.26z M405.05,170.97h2.67v13.91h-2.67V170.97z"/>
		<path class="st0" d="M417.65,165.82h2.7v16.79h7.67v2.27h-10.37V165.82z"/>
		<path class="st0" d="M436.19,185.12c-2.05,0-3.59-0.59-4.63-1.79c-1.04-1.19-1.55-2.94-1.55-5.25c0-2.43,0.51-4.26,1.54-5.49
			c1.02-1.24,2.53-1.85,4.51-1.85c3.42,0,5.13,2.06,5.13,6.18c0,0.44-0.01,0.8-0.03,1.08s-0.06,0.57-0.1,0.84h-8.41
			c0.09,1.46,0.42,2.52,1,3.18s1.5,0.98,2.79,0.98c1.31,0,2.68-0.25,4.12-0.75l0.13,2.06c-0.65,0.25-1.38,0.45-2.18,0.6
			C437.7,185.05,436.93,185.12,436.19,185.12z M435.99,172.79c-2.09,0-3.21,1.42-3.34,4.26h6.18c-0.04-1.56-0.29-2.66-0.73-3.3
			C437.66,173.11,436.95,172.79,435.99,172.79z"/>
		<path class="st0" d="M443.14,171.25v-0.27h2.74l3.14,9.58l0.54,2.09h0.24l0.51-2.09l3.14-9.58h2.74v0.27l-4.86,13.63h-3.34
			L443.14,171.25z"/>
		<path class="st0" d="M464.42,185.12c-2.05,0-3.59-0.59-4.63-1.79c-1.04-1.19-1.55-2.94-1.55-5.25c0-2.43,0.51-4.26,1.54-5.49
			c1.02-1.24,2.53-1.85,4.51-1.85c3.42,0,5.13,2.06,5.13,6.18c0,0.44-0.01,0.8-0.03,1.08s-0.06,0.57-0.1,0.84h-8.41
			c0.09,1.46,0.42,2.52,1,3.18s1.5,0.98,2.79,0.98c1.31,0,2.68-0.25,4.12-0.75l0.13,2.06c-0.65,0.25-1.38,0.45-2.18,0.6
			C465.93,185.05,465.16,185.12,464.42,185.12z M464.22,172.79c-2.09,0-3.21,1.42-3.34,4.26h6.18c-0.04-1.56-0.29-2.66-0.73-3.3
			C465.89,173.11,465.18,172.79,464.22,172.79z"/>
		<path class="st0" d="M472.69,164.07h2.63v20.81h-2.63V164.07z"/>
		<path class="st0" d="M484.11,165.82h3.71l4.39,11.47l1.22,3.61h0.2l1.22-3.61l4.42-11.47h3.71v19.06h-2.5v-15.52h-0.13l-1.62,4.46
			l-3.98,10.27h-2.43l-3.95-10.27l-1.66-4.46h-0.13v15.52h-2.46V165.82z"/>
		<path class="st0" d="M510.01,185.02c-1.17,0-2.07-0.33-2.68-1c-0.62-0.66-0.93-1.59-0.93-2.78c0-1.33,0.4-2.35,1.2-3.06
			c0.8-0.71,2.08-1.12,3.83-1.24l2.97-0.24v-0.93c0-1.12-0.21-1.89-0.64-2.3c-0.43-0.41-1.23-0.62-2.4-0.62
			c-0.52,0-1.13,0.04-1.82,0.12c-0.7,0.08-1.37,0.19-2.03,0.33l-0.24-2.06c0.83-0.14,1.63-0.25,2.38-0.33
			c0.75-0.08,1.47-0.12,2.14-0.12c1.82,0,3.16,0.36,4,1.08c0.84,0.72,1.27,1.86,1.27,3.42v9.58h-2.19l-0.27-1.72h-0.17
			c-0.68,0.57-1.38,1.02-2.13,1.36C511.56,184.85,510.8,185.02,510.01,185.02z M510.99,182.99c0.56,0,1.14-0.15,1.74-0.45
			c0.6-0.3,1.15-0.62,1.67-0.96v-3.26l-2.23,0.24c-1.15,0.11-1.95,0.35-2.41,0.7c-0.46,0.35-0.69,0.93-0.69,1.73
			C509.06,182.33,509.71,182.99,510.99,182.99z"/>
		<path class="st0" d="M520.95,170.97h2.23l0.13,1.89h0.17c0.68-0.46,1.39-0.88,2.14-1.27c0.75-0.39,1.49-0.67,2.21-0.86h0.78v2.51
			h-0.98c-0.72,0.09-1.43,0.27-2.13,0.53c-0.7,0.26-1.34,0.58-1.92,0.94v10.16h-2.63V170.97z"/>
		<path class="st0" d="M531.25,164.07h2.63v12.7h1.92l4.02-5.8h2.94l-4.66,6.52l-0.51,0.21v0.1l0.54,0.21l5.03,6.87h-2.94
			l-4.46-6.21h-1.89v6.21h-2.63V164.07z"/>
		<path class="st0" d="M550.94,185.12c-2.05,0-3.59-0.59-4.63-1.79c-1.04-1.19-1.55-2.94-1.55-5.25c0-2.43,0.51-4.26,1.54-5.49
			c1.02-1.24,2.53-1.85,4.51-1.85c3.42,0,5.13,2.06,5.13,6.18c0,0.44-0.01,0.8-0.03,1.08s-0.06,0.57-0.1,0.84h-8.41
			c0.09,1.46,0.42,2.52,1,3.18s1.5,0.98,2.79,0.98c1.31,0,2.68-0.25,4.12-0.75l0.13,2.06c-0.65,0.25-1.38,0.45-2.18,0.6
			C552.45,185.05,551.68,185.12,550.94,185.12z M550.74,172.79c-2.09,0-3.21,1.42-3.34,4.26h6.18c-0.04-1.56-0.29-2.66-0.73-3.3
			C552.41,173.11,551.7,172.79,550.74,172.79z"/>
		<path class="st0" d="M564.41,185.09c-2.66,0-3.98-1.33-3.98-3.98v-7.83h-2.63v-2.3h2.77l0.37-3.61l2.09-0.31v3.91h3.71v2.3h-3.71
			v7.28c0,1.6,0.72,2.4,2.16,2.4c0.2,0,0.44-0.02,0.73-0.07s0.57-0.1,0.86-0.17v2.06C565.99,184.98,565.2,185.09,564.41,185.09z"/>
		<path class="st0" d="M570.9,168.26c-1.06,0-1.59-0.53-1.59-1.58c0-1.05,0.53-1.58,1.59-1.58c1.04,0,1.55,0.53,1.55,1.58
			C572.45,167.74,571.93,168.26,570.9,168.26z M569.55,170.97h2.67v13.91h-2.67V170.97z"/>
		<path class="st0" d="M576.2,170.97h2.23l0.13,1.58h0.17c1.17-0.69,2.17-1.17,3.01-1.44c0.83-0.28,1.61-0.41,2.33-0.41
			c2.3,0,3.44,1.26,3.44,3.78v10.4h-2.67v-9.54c0-0.85-0.15-1.45-0.44-1.82c-0.29-0.37-0.77-0.55-1.42-0.55
			c-0.59,0-1.23,0.12-1.93,0.36c-0.7,0.24-1.44,0.57-2.23,0.98v10.58h-2.63V170.97z"/>
		<path class="st0" d="M596.16,190.54c-0.77,0-1.53-0.06-2.3-0.17s-1.47-0.26-2.13-0.45l0.2-2.06c1.26,0.39,2.54,0.58,3.85,0.58
			c0.68,0,1.28-0.08,1.82-0.24c0.54-0.16,1-0.42,1.37-0.79c0.37-0.37,0.66-0.85,0.86-1.44c0.2-0.6,0.3-1.33,0.3-2.2v-0.86h-0.13
			c-0.92,1.24-2.24,1.85-3.95,1.85c-1.76,0-3.08-0.55-3.97-1.65c-0.89-1.1-1.33-2.79-1.33-5.08c0-2.43,0.59-4.26,1.77-5.49
			c1.18-1.24,2.81-1.85,4.88-1.85c0.77,0,1.56,0.06,2.4,0.17c0.83,0.12,1.79,0.32,2.87,0.62v11.85c0,1.35-0.16,2.48-0.49,3.4
			c-0.33,0.92-0.78,1.65-1.35,2.21s-1.26,0.97-2.06,1.22C597.97,190.42,597.1,190.54,596.16,190.54z M596.73,182.78
			c0.9,0,1.67-0.26,2.31-0.79s0.96-1.3,0.96-2.33v-6.7c-0.43-0.07-0.87-0.13-1.32-0.19c-0.45-0.06-0.9-0.09-1.35-0.09
			c-1.33,0-2.31,0.39-2.94,1.17c-0.63,0.78-0.95,2.09-0.95,3.95c0,1.76,0.26,3.03,0.78,3.81
			C594.75,182.4,595.58,182.78,596.73,182.78z"/>
	</g>
</g>
<g id="FA_00000183940414322404353030000011722459194607024781_">
</g>
<g id="AR">
</g>
</svg>
