<svg width="128" height="44" viewBox="0 0 128 44" fill="none" xmlns="http://www.w3.org/2000/svg">
<path d="M29.394 9.97903C29.3619 11.0839 29.1112 12.1661 28.582 13.1539C27.9692 14.306 27.0114 15.1583 26.073 16.0557C24.2346 17.8177 22.3984 19.5776 20.5601 21.3397V19.1464C22.4413 17.3433 24.3568 15.5053 26.2401 13.7022C27.02 12.9527 27.7956 12.2113 28.3591 11.2892C28.8605 10.474 29.124 9.62786 29.2847 8.72221C29.2505 8.51274 29.2033 8.30328 29.1476 8.09586C29.0126 7.60299 28.8219 7.12244 28.582 6.66859C26.6322 2.98029 21.8242 1.06632 17.8904 3.05833C15.9492 4.03996 14.5286 5.83483 14.0723 7.89255C14.0423 8.02193 14.0208 8.15336 14.0016 8.28479C14.0744 8.72427 14.1944 9.15758 14.3508 9.57652C14.7236 10.5705 15.3321 11.4453 16.0949 12.201C17.5111 13.6057 19.1245 15.1336 20.5579 16.5198V18.7726C19.6195 17.8649 18.5182 16.8032 17.5797 15.8955C16.3049 14.6613 14.985 13.5133 14.3487 11.8314C14.0187 10.9607 13.9223 10.0735 13.8987 9.1658C13.8966 9.09392 13.8773 9.01383 13.873 8.94195C13.8473 8.60105 13.8687 7.89461 13.8923 7.49826C13.903 6.76717 13.9523 6.03608 14.1451 5.32142C14.76 3.06655 16.5405 1.19775 18.8267 0.405056C23.4183 -1.1865 28.6655 2.11983 29.3169 6.69324C29.4776 7.76728 29.4261 8.89677 29.394 9.97903Z" fill="#711E7E"/>
<path d="M13.9002 34.0208C13.9323 32.9159 14.183 31.8337 14.7122 30.8459C15.325 29.6938 16.2827 28.8416 17.2212 27.9441C19.0595 26.1821 20.8958 24.4222 22.7341 22.6602V24.913C20.8529 26.7161 18.9717 28.5212 17.0884 30.3243C16.3084 31.0738 15.4985 31.7885 14.935 32.7106C14.4337 33.5259 14.1701 34.3719 14.0094 35.2776C14.0437 35.4871 14.0909 35.6965 14.1466 35.9039C14.2816 36.3968 14.4722 36.8774 14.7122 37.3312C16.662 41.0195 21.47 42.9335 25.4038 40.9415C27.345 39.9598 28.7655 38.165 29.2219 36.1073C29.2519 35.9779 29.2733 35.8464 29.2926 35.715C29.2198 35.2755 29.0998 34.8422 28.9434 34.4233C28.5706 33.4293 27.9621 32.5545 27.1993 31.7988C25.783 30.3941 24.1697 28.8662 22.7363 27.48V25.2272C23.6747 26.1349 24.776 27.1966 25.7145 28.1043C26.9893 29.3385 28.3092 30.4865 28.9455 32.1684C29.2755 33.0391 29.3719 33.9263 29.3955 34.834C29.3976 34.9059 29.4169 34.986 29.4212 35.0579C29.4469 35.3988 29.4255 36.1052 29.4019 36.5016C29.3912 37.2326 29.3419 37.9637 29.1491 38.6784C28.5341 40.9333 26.7536 42.8021 24.4675 43.5948C19.8759 45.1863 14.6287 41.88 13.9773 37.3066C13.8166 36.2346 13.8659 35.103 13.9002 34.0208Z" fill="#711E7E"/>
<path d="M19.8183 21.7351V24.0043C18.9977 23.2178 18.2799 22.5298 17.4571 21.7433C17.4014 21.6899 17.35 21.6406 17.2943 21.5872C16.3066 20.6405 15.3167 19.6917 14.3289 18.745C13.5083 17.9585 12.722 17.1596 11.6871 16.6175C9.68592 15.5639 7.22407 15.4592 5.13075 16.3258C3.3931 17.0487 1.75187 18.5561 0.892688 20.1764C0.618435 20.6939 0.410603 21.2463 0.273476 21.8131C0.23491 21.9733 0.202771 22.1335 0.179202 22.2957C0.337754 23.2486 0.697711 24.1727 1.2355 24.986C3.78091 28.8427 9.46095 29.3766 12.8355 26.2263C14.3418 24.8217 15.8095 23.378 17.2943 21.9528L17.2964 24.1337C16.3451 25.0455 15.3402 26.0087 14.3889 26.9205C13.2491 28.015 12.2206 29.2308 10.7315 29.9003C6.20205 31.9334 0.738421 29.046 0.140635 24.2795C-0.112192 22.2629 -0.103621 19.8766 0.843408 18.0221C1.7433 16.2581 3.53237 14.646 5.44786 13.9498C7.66116 13.1448 10.2044 13.4056 12.1842 14.6501C13.1441 15.2518 13.9283 16.1041 14.7339 16.8783C15.6295 17.7387 16.5272 18.5971 17.425 19.4576C17.4357 19.4679 17.4464 19.4802 17.4571 19.4905C18.282 20.277 18.9977 20.9485 19.8183 21.7351Z" fill="#711E7E"/>
<path d="M23.0742 22.1795L23.0978 19.9267C23.9184 20.7132 24.6747 21.4443 25.4954 22.2308C25.5511 22.2842 25.6025 22.3335 25.6582 22.3869C26.6459 23.3336 27.6358 24.2824 28.6236 25.2291C29.4442 26.0157 30.2305 26.8145 31.2654 27.3567C33.2666 28.4102 35.7284 28.5149 37.8217 27.6483C39.5594 26.9254 41.2006 25.4181 42.0598 23.7978C42.3341 23.2802 42.5419 22.7278 42.679 22.161C42.7176 22.0008 42.7497 21.8407 42.7733 21.6784C42.6147 20.7255 42.2548 19.8014 41.717 18.9882C39.1694 15.1294 33.4594 14.5688 30.0848 17.719C28.5786 19.1237 27.1452 20.5407 25.6603 21.9659L25.6561 19.7665C26.6074 18.8547 27.5608 17.9408 28.5121 17.029C29.652 15.9345 30.7319 14.7413 32.2188 14.0739C36.7483 12.0408 42.2119 14.9282 42.8097 19.6946C43.0625 21.7113 43.054 24.0976 42.1069 25.952C41.207 27.7161 39.418 29.3282 37.5025 30.0243C35.2892 30.8294 32.7459 30.5685 30.7662 29.324C29.8063 28.7223 29.0221 27.8701 28.2165 27.0959C27.3209 26.2354 26.4231 25.377 25.5254 24.5165C25.5146 24.5063 25.5039 24.4939 25.4932 24.4837C24.6726 23.6971 23.8948 22.966 23.0742 22.1795Z" fill="#711E7E"/>
<path d="M51.6393 8.13086H46.9277V34.5042H51.6393V8.13086Z" fill="#711E7E"/>
<path d="M67.0309 12.526C66.3752 11.2396 65.3639 10.1843 63.9991 9.36246C62.6321 8.5406 60.9587 8.13086 58.979 8.13086H53.4082V9.0623H57.597C58.544 9.0623 59.4589 9.38151 60.3374 10.0152C61.2158 10.6512 61.9272 11.535 62.4714 12.6666C63.0156 13.7981 63.2877 15.0464 63.2877 16.4114C63.2877 17.8074 63.0156 19.0794 62.4714 20.2253C61.9272 21.3735 61.2158 22.2716 60.3374 22.9219C59.4589 23.5723 58.5462 23.8986 57.597 23.8986H53.4082V24.8277H58.979C60.9866 24.8277 62.6664 24.4084 64.0205 23.5723C65.3725 22.7337 66.3774 21.6737 67.033 20.3873C67.6886 19.1009 68.0165 17.7907 68.0165 16.4566C68.0122 15.1226 67.6843 13.8124 67.0309 12.526Z" fill="#711E7E"/>
<path d="M91.4248 9.3029L84.095 24.1321L76.0645 8.13086H70.918V34.5042H71.7557V10.2248L82.0038 31.2954L91.4248 11.6732V9.3029Z" fill="#711E7E"/>
<path d="M98.0547 8.42383H93.3281V33.1129C93.3281 34.042 94.0052 34.7971 94.8429 34.7971H113.449V33.8681H100.049C98.9482 33.8681 98.0547 32.8747 98.0547 31.6503V8.42383Z" fill="#711E7E"/>
<path d="M122.873 8.13086L114.549 24.7372L106.788 8.13086H101.914V32.4555H102.752V10.2248L113 31.5979L122.873 10.5035V34.2016H127.6V8.13086H122.873Z" fill="#711E7E"/>
<path d="M46.9355 38.0772C47.2869 38.0128 47.6212 37.9795 47.934 37.9795C48.5554 37.9795 49.0074 38.1057 49.2903 38.3606C49.5731 38.6132 49.7145 39.0157 49.7145 39.566C49.7145 40.1116 49.5731 40.5118 49.2903 40.769C49.0074 41.0263 48.5596 41.1526 47.949 41.1526C47.8804 41.1526 47.8119 41.1502 47.7433 41.1454C47.6726 41.1407 47.5976 41.1383 47.5162 41.1383V42.5867H46.9377V38.0772H46.9355ZM48.0368 40.6214C48.4268 40.6214 48.7053 40.5404 48.8725 40.3807C49.0396 40.2211 49.1231 39.9496 49.1231 39.566C49.1231 39.1897 49.0417 38.9205 48.8767 38.7609C48.7118 38.6012 48.4354 38.5203 48.0454 38.5203C47.9576 38.5203 47.8676 38.5226 47.7733 38.5298C47.679 38.5369 47.5933 38.5465 47.5162 38.5631V40.5761C47.574 40.5928 47.6533 40.6047 47.754 40.6118C47.8547 40.6166 47.949 40.6214 48.0368 40.6214Z" fill="#711E7E"/>
<path d="M51.1055 42.6174C50.8548 42.6174 50.662 42.5388 50.5313 42.3792C50.3985 42.222 50.332 42.0004 50.332 41.7169C50.332 41.4001 50.4177 41.1571 50.5891 40.988C50.7606 40.8188 51.0348 40.7212 51.4098 40.6926L52.0461 40.6354V40.4139C52.0461 40.1471 52.0011 39.9636 51.909 39.866C51.8169 39.7683 51.6454 39.7183 51.3948 39.7183C51.2833 39.7183 51.1526 39.7278 51.0048 39.7469C50.8548 39.7659 50.7113 39.7921 50.5699 39.8255L50.5184 39.3347C50.6963 39.3014 50.8677 39.2752 51.0284 39.2561C51.1891 39.2371 51.3433 39.2275 51.4869 39.2275C51.8768 39.2275 52.164 39.3133 52.3439 39.4848C52.5239 39.6563 52.616 39.9279 52.616 40.2995V42.5817H52.1447L52.0868 42.1719H52.0504C51.9047 42.3077 51.7547 42.4149 51.594 42.4959C51.4333 42.5769 51.2726 42.6174 51.1055 42.6174ZM51.3155 42.1338C51.4355 42.1338 51.5597 42.0981 51.6883 42.0266C51.8169 41.9552 51.9347 41.8789 52.0461 41.7979V41.0213L51.5683 41.0785C51.3219 41.1047 51.1505 41.1619 51.0519 41.2453C50.9534 41.3286 50.9041 41.4668 50.9041 41.6574C50.902 41.9766 51.0391 42.1338 51.3155 42.1338Z" fill="#711E7E"/>
<path d="M53.5801 39.2704H54.0579L54.0879 39.6468H54.1243C54.375 39.4824 54.5892 39.368 54.7692 39.3037C54.9471 39.237 55.1142 39.2061 55.2684 39.2061C55.7612 39.2061 56.0055 39.5062 56.0055 40.1065V42.584H55.4334V40.3114C55.4334 40.1089 55.4013 39.966 55.3392 39.8778C55.277 39.7897 55.1742 39.7468 55.0349 39.7468C54.9085 39.7468 54.7714 39.7754 54.6235 39.8326C54.4735 39.8897 54.315 39.9684 54.1457 40.066V42.5864H53.5822V39.2704H53.5801Z" fill="#711E7E"/>
<path d="M58.0726 42.6486C57.914 42.6486 57.7469 42.6343 57.5733 42.6081C57.3998 42.5819 57.1962 42.5367 56.9648 42.4771V37.627H57.5283V39.6232C57.6291 39.4922 57.7533 39.3898 57.8969 39.3159C58.0404 39.2421 58.2054 39.2063 58.3897 39.2063C58.7561 39.2063 59.0346 39.3421 59.2253 39.6161C59.416 39.89 59.5103 40.3069 59.5103 40.8667C59.5103 41.417 59.3903 41.8506 59.1524 42.1627C58.9146 42.4771 58.5547 42.6391 58.0726 42.6486ZM58.079 42.1841C58.379 42.1841 58.5954 42.0888 58.7303 41.8982C58.8653 41.7077 58.9339 41.3837 58.9339 40.9239C58.9339 40.4832 58.8803 40.1688 58.7711 39.9829C58.6618 39.7971 58.4797 39.7042 58.2247 39.7042C58.0361 39.7042 57.8733 39.7685 57.7362 39.8972C57.5991 40.0258 57.5305 40.2069 57.5305 40.4403V42.1174C57.6976 42.1627 57.8819 42.1841 58.079 42.1841Z" fill="#711E7E"/>
<path d="M61.5526 42.6414C61.1134 42.6414 60.7834 42.5009 60.5606 42.215C60.3378 41.9315 60.2285 41.5146 60.2285 40.9644C60.2285 40.3855 60.3378 39.9495 60.5585 39.6565C60.777 39.3611 61.1006 39.2158 61.5248 39.2158C62.2576 39.2158 62.6239 39.7066 62.6239 40.688C62.6239 40.7928 62.6218 40.8786 62.6175 40.9453C62.6132 41.012 62.6047 41.0811 62.5961 41.1454H60.7942C60.8134 41.4932 60.8841 41.7457 61.0084 41.9029C61.1327 42.0602 61.3298 42.1364 61.6062 42.1364C61.8869 42.1364 62.1804 42.0768 62.489 41.9577L62.5168 42.4485C62.3775 42.508 62.2211 42.5557 62.0497 42.5914C61.8762 42.6247 61.7112 42.6414 61.5526 42.6414ZM61.5098 39.7042C61.062 39.7042 60.822 40.0424 60.7942 40.719H62.1183C62.1097 40.3474 62.0562 40.0853 61.9619 39.9329C61.8676 39.7804 61.7176 39.7042 61.5098 39.7042Z" fill="#711E7E"/>
<path d="M63.4551 39.2701H63.9329L63.9607 39.7203H63.9972C64.1429 39.6107 64.295 39.5107 64.4557 39.4178C64.6164 39.3249 64.7749 39.2582 64.9292 39.2129H65.0963V39.8108H64.8863C64.7321 39.8323 64.5799 39.8751 64.43 39.9371C64.28 39.999 64.1429 40.0752 64.0186 40.161V42.5813H63.4551V39.2701Z" fill="#711E7E"/>
<path d="M66.9784 42.6414C66.5392 42.6414 66.2092 42.5009 65.9864 42.215C65.7636 41.9315 65.6543 41.5146 65.6543 40.9644C65.6543 40.3855 65.7636 39.9495 65.9843 39.6565C66.2028 39.3611 66.5263 39.2158 66.9506 39.2158C67.6833 39.2158 68.0497 39.7066 68.0497 40.688C68.0497 40.7928 68.0476 40.8786 68.0433 40.9453C68.039 41.012 68.0304 41.0811 68.0219 41.1454H66.2199C66.2392 41.4932 66.3099 41.7457 66.4342 41.9029C66.5585 42.0602 66.7556 42.1364 67.032 42.1364C67.3127 42.1364 67.6062 42.0768 67.9147 41.9577L67.9426 42.4485C67.8033 42.508 67.6469 42.5557 67.4755 42.5914C67.302 42.6247 67.137 42.6414 66.9784 42.6414ZM66.9356 39.7042C66.4878 39.7042 66.2478 40.0424 66.2199 40.719H67.5441C67.5355 40.3474 67.4819 40.0853 67.3877 39.9329C67.2934 39.7804 67.1413 39.7042 66.9356 39.7042Z" fill="#711E7E"/>
<path d="M69.6704 42.6488C69.5355 42.6488 69.394 42.6369 69.2441 42.6155C69.0941 42.594 68.9184 42.5583 68.7148 42.5083V42.0104C68.8841 42.0604 69.0469 42.0985 69.2034 42.1295C69.3598 42.1605 69.5076 42.1748 69.649 42.1748C69.8376 42.1748 69.979 42.1319 70.0733 42.0438C70.1675 41.9556 70.2147 41.8365 70.2147 41.684C70.2147 41.5197 70.1697 41.4029 70.0775 41.3315C69.9854 41.26 69.8526 41.2028 69.679 41.16C69.5783 41.1385 69.4712 41.1123 69.3598 41.0814C69.2484 41.0528 69.1476 41.0027 69.0555 40.9384C68.9634 40.8741 68.8884 40.7812 68.8305 40.6597C68.7727 40.5406 68.7427 40.3762 68.7427 40.169C68.7427 39.8593 68.8348 39.6163 69.0212 39.4448C69.2076 39.2733 69.4669 39.1875 69.799 39.1875C69.9233 39.1875 70.0475 39.1994 70.1675 39.2209C70.2875 39.2423 70.4504 39.2733 70.6518 39.3114L70.6303 39.8188C70.4525 39.7759 70.3047 39.7426 70.189 39.7211C70.0733 39.6997 69.964 39.6878 69.8633 39.6878C69.4776 39.6878 69.2848 39.8426 69.2848 40.1547C69.2848 40.3357 69.3383 40.4548 69.4476 40.5192C69.5569 40.5811 69.6983 40.6311 69.8718 40.6692C69.9983 40.7026 70.114 40.7383 70.2232 40.7788C70.3325 40.8193 70.4268 40.8765 70.5061 40.9456C70.5853 41.017 70.6475 41.1099 70.6903 41.2243C70.7332 41.3386 70.7546 41.4816 70.7546 41.6507C70.7546 41.9604 70.6603 42.2057 70.4718 42.382C70.2854 42.5607 70.0175 42.6488 69.6704 42.6488Z" fill="#711E7E"/>
<path d="M72.7305 38.0439H73.5254L74.466 40.7763L74.7274 41.6363H74.7702L75.0316 40.7763L75.9787 38.0439H76.7736V42.5844H76.2379V38.8872H76.2101L75.863 39.9497L75.0102 42.3962H74.4895L73.6432 39.9497L73.2875 38.8872H73.2597V42.5844H72.7326V38.0439H72.7305Z" fill="#711E7E"/>
<path d="M78.5249 42.6485C78.0278 42.6485 77.7793 42.3483 77.7793 41.748V39.2705H78.3428V41.5527C78.3428 41.7551 78.3728 41.8957 78.4328 41.9791C78.4928 42.0601 78.5956 42.1029 78.7413 42.1029C78.8806 42.1029 79.0241 42.072 79.172 42.0077C79.3198 41.9457 79.472 41.8647 79.6305 41.7671V39.2729H80.194V42.5865H79.7248L79.6819 42.2101H79.6605C79.5298 42.2864 79.4162 42.3531 79.3177 42.4055C79.2191 42.4603 79.127 42.5055 79.0391 42.5436C78.9513 42.5818 78.8699 42.608 78.7885 42.6246C78.7113 42.6413 78.6213 42.6485 78.5249 42.6485Z" fill="#711E7E"/>
<path d="M81.1992 37.627H81.7627V42.5843H81.1992V37.627Z" fill="#711E7E"/>
<path d="M83.8733 42.6349C83.3034 42.6349 83.0205 42.3181 83.0205 41.6868V39.8216H82.457V39.2737H83.0505L83.1298 38.4137L83.5776 38.3398V39.2713H84.3725V39.8192H83.5776V41.5534C83.5776 41.9346 83.7319 42.1252 84.0404 42.1252C84.0833 42.1252 84.1347 42.1204 84.1968 42.1085C84.259 42.0966 84.3189 42.0847 84.3811 42.068V42.5587C84.2118 42.6087 84.0426 42.6349 83.8733 42.6349Z" fill="#711E7E"/>
<path d="M85.3934 38.6258C85.1663 38.6258 85.0527 38.4996 85.0527 38.2494C85.0527 37.9993 85.1663 37.873 85.3934 37.873C85.6162 37.873 85.7255 37.9993 85.7255 38.2494C85.7277 38.5019 85.6162 38.6258 85.3934 38.6258ZM85.1042 39.2714H85.6762V42.585H85.1042V39.2714Z" fill="#711E7E"/>
<path d="M87.8047 38.0439H88.3832V42.0437H90.0266V42.5844H87.8047V38.0439Z" fill="#711E7E"/>
<path d="M91.7773 42.6414C91.338 42.6414 91.0081 42.5009 90.7852 42.215C90.5624 41.9315 90.4531 41.5146 90.4531 40.9644C90.4531 40.3855 90.5624 39.9495 90.7831 39.6565C91.0016 39.3611 91.3252 39.2158 91.7494 39.2158C92.4822 39.2158 92.8486 39.7066 92.8486 40.688C92.8486 40.7928 92.8464 40.8786 92.8421 40.9453C92.8378 41.012 92.8293 41.0811 92.8207 41.1454H91.0188C91.0381 41.4932 91.1088 41.7457 91.233 41.9029C91.3573 42.0602 91.5544 42.1364 91.8308 42.1364C92.1115 42.1364 92.405 42.0768 92.7136 41.9577L92.7414 42.4485C92.6022 42.508 92.4457 42.5557 92.2743 42.5914C92.1008 42.6247 91.9358 42.6414 91.7773 42.6414ZM91.7344 39.7042C91.2866 39.7042 91.0466 40.0424 91.0188 40.719H92.3429C92.3343 40.3474 92.2808 40.0853 92.1865 39.9329C92.0922 39.7804 91.9401 39.7042 91.7344 39.7042Z" fill="#711E7E"/>
<path d="M93.2656 39.3378V39.2734H93.8527L94.5255 41.5556L94.6412 42.0535H94.6926L94.8019 41.5556L95.4746 39.2734H96.0617V39.3378L95.0204 42.5847H94.3048L93.2656 39.3378Z" fill="#711E7E"/>
<path d="M97.8241 42.6414C97.3849 42.6414 97.0549 42.5009 96.8321 42.215C96.6093 41.9315 96.5 41.5146 96.5 40.9644C96.5 40.3855 96.6093 39.9495 96.83 39.6565C97.0485 39.3611 97.372 39.2158 97.7963 39.2158C98.529 39.2158 98.8954 39.7066 98.8954 40.688C98.8954 40.7928 98.8933 40.8786 98.889 40.9453C98.8847 41.012 98.8761 41.0811 98.8676 41.1454H97.0656C97.0849 41.4932 97.1556 41.7457 97.2799 41.9029C97.4042 42.0602 97.6013 42.1364 97.8777 42.1364C98.1584 42.1364 98.4519 42.0768 98.7604 41.9577L98.7883 42.4485C98.649 42.508 98.4926 42.5557 98.3212 42.5914C98.1477 42.6247 97.9827 42.6414 97.8241 42.6414ZM97.7813 39.7042C97.3335 39.7042 97.0935 40.0424 97.0656 40.719H98.3898C98.3812 40.3474 98.3276 40.0853 98.2334 39.9329C98.1391 39.7804 97.987 39.7042 97.7813 39.7042Z" fill="#711E7E"/>
<path d="M99.5957 37.627H100.159V42.5843H99.5957V37.627Z" fill="#711E7E"/>
<path d="M102.043 38.0439H102.838L103.778 40.7763L104.04 41.6363H104.083L104.344 40.7763L105.291 38.0439H106.086V42.5844H105.55V38.8872H105.523L105.175 39.9497L104.323 42.3962H103.802L102.956 39.9497L102.6 38.8872H102.572V42.5844H102.045V38.0439H102.043Z" fill="#711E7E"/>
<path d="M107.592 42.6174C107.341 42.6174 107.148 42.5388 107.018 42.3792C106.885 42.222 106.818 42.0004 106.818 41.7169C106.818 41.4001 106.904 41.1571 107.075 40.988C107.247 40.8188 107.521 40.7212 107.896 40.6926L108.532 40.6354V40.4139C108.532 40.1471 108.487 39.9636 108.395 39.866C108.303 39.7683 108.132 39.7183 107.881 39.7183C107.77 39.7183 107.639 39.7278 107.491 39.7469C107.341 39.7659 107.198 39.7921 107.056 39.8255L107.005 39.3347C107.183 39.3014 107.354 39.2752 107.515 39.2561C107.675 39.2371 107.83 39.2275 107.973 39.2275C108.363 39.2275 108.65 39.3133 108.83 39.4848C109.01 39.6563 109.102 39.9279 109.102 40.2995V42.5817H108.633L108.575 42.1719H108.539C108.393 42.3077 108.243 42.4149 108.082 42.4959C107.924 42.5769 107.761 42.6174 107.592 42.6174ZM107.802 42.1338C107.922 42.1338 108.046 42.0981 108.175 42.0266C108.303 41.9552 108.421 41.8789 108.532 41.7979V41.0213L108.055 41.0785C107.808 41.1047 107.637 41.1619 107.538 41.2453C107.44 41.3286 107.39 41.4668 107.39 41.6574C107.388 41.9766 107.528 42.1338 107.802 42.1338Z" fill="#711E7E"/>
<path d="M109.938 39.2701H110.415L110.443 39.7203H110.48C110.625 39.6107 110.777 39.5107 110.938 39.4178C111.099 39.3249 111.257 39.2582 111.412 39.2129H111.579V39.8108H111.369C111.214 39.8323 111.062 39.8751 110.912 39.9371C110.762 39.999 110.625 40.0752 110.501 40.161V42.5813H109.938V39.2701Z" fill="#711E7E"/>
<path d="M112.143 37.627H112.706V40.6523H113.118L113.979 39.2707H114.609L113.61 40.8239L113.501 40.8739V40.8977L113.617 40.9477L114.695 42.5843H114.065L113.109 41.105H112.704V42.5843H112.141V37.627H112.143Z" fill="#711E7E"/>
<path d="M116.363 42.6414C115.924 42.6414 115.594 42.5009 115.371 42.215C115.148 41.9315 115.039 41.5146 115.039 40.9644C115.039 40.3855 115.148 39.9495 115.369 39.6565C115.588 39.3611 115.911 39.2158 116.335 39.2158C117.068 39.2158 117.434 39.7066 117.434 40.688C117.434 40.7928 117.432 40.8786 117.428 40.9453C117.424 41.012 117.415 41.0811 117.407 41.1454H115.605C115.624 41.4932 115.695 41.7457 115.819 41.9029C115.943 42.0602 116.14 42.1364 116.417 42.1364C116.697 42.1364 116.991 42.0768 117.3 41.9577L117.327 42.4485C117.188 42.508 117.032 42.5557 116.86 42.5914C116.687 42.6247 116.522 42.6414 116.363 42.6414ZM116.32 39.7042C115.873 39.7042 115.633 40.0424 115.605 40.719H116.929C116.92 40.3474 116.867 40.0853 116.772 39.9329C116.678 39.7804 116.526 39.7042 116.32 39.7042Z" fill="#711E7E"/>
<path d="M119.248 42.6349C118.678 42.6349 118.396 42.3181 118.396 41.6868V39.8216H117.832V39.2737H118.426L118.505 38.4137L118.953 38.3398V39.2713H119.748V39.8192H118.953V41.5534C118.953 41.9346 119.107 42.1252 119.415 42.1252C119.458 42.1252 119.51 42.1204 119.572 42.1085C119.634 42.0966 119.694 42.0847 119.756 42.068V42.5587C119.587 42.6087 119.418 42.6349 119.248 42.6349Z" fill="#711E7E"/>
<path d="M120.64 38.6258C120.412 38.6258 120.299 38.4996 120.299 38.2494C120.299 37.9993 120.412 37.873 120.64 37.873C120.862 37.873 120.972 37.9993 120.972 38.2494C120.972 38.5019 120.86 38.6258 120.64 38.6258ZM120.35 39.2714H120.922V42.585H120.35V39.2714Z" fill="#711E7E"/>
<path d="M121.774 39.2704H122.251L122.279 39.6468H122.316C122.566 39.4824 122.781 39.368 122.961 39.3037C123.138 39.237 123.306 39.2061 123.46 39.2061C123.953 39.2061 124.197 39.5062 124.197 40.1065V42.584H123.625V40.3114C123.625 40.1089 123.593 39.966 123.531 39.8778C123.468 39.7897 123.366 39.7468 123.226 39.7468C123.1 39.7468 122.963 39.7754 122.813 39.8326C122.663 39.8897 122.504 39.9684 122.335 40.066V42.5864H121.771V39.2704H121.774Z" fill="#711E7E"/>
<path d="M126.052 43.9328C125.887 43.9328 125.724 43.9185 125.559 43.8923C125.394 43.8661 125.244 43.8303 125.103 43.7851L125.145 43.2943C125.415 43.3872 125.69 43.4325 125.97 43.4325C126.116 43.4325 126.245 43.4134 126.36 43.3753C126.476 43.3372 126.575 43.2753 126.654 43.1871C126.733 43.099 126.795 42.9847 126.838 42.8441C126.881 42.7012 126.902 42.5273 126.902 42.32V42.1151H126.874C126.677 42.4105 126.395 42.5559 126.028 42.5559C125.651 42.5559 125.368 42.4248 125.178 42.1628C124.987 41.9007 124.893 41.4982 124.893 40.9526C124.893 40.3738 125.019 39.9378 125.272 39.6448C125.525 39.3494 125.874 39.2041 126.317 39.2041C126.482 39.2041 126.652 39.2184 126.832 39.2446C127.009 39.2732 127.215 39.3208 127.447 39.3923V42.2152C127.447 42.5368 127.412 42.806 127.342 43.0251C127.271 43.2443 127.174 43.4182 127.052 43.5516C126.93 43.685 126.782 43.7827 126.611 43.8422C126.44 43.9042 126.253 43.9328 126.052 43.9328ZM126.174 42.0842C126.367 42.0842 126.532 42.0222 126.669 41.896C126.806 41.7697 126.874 41.5863 126.874 41.3409V39.7449C126.782 39.7282 126.688 39.7139 126.592 39.6996C126.495 39.6853 126.399 39.6782 126.302 39.6782C126.017 39.6782 125.807 39.7711 125.672 39.9569C125.538 40.1427 125.469 40.4548 125.469 40.8978C125.469 41.3171 125.525 41.6197 125.636 41.8055C125.75 41.9937 125.927 42.0842 126.174 42.0842Z" fill="#711E7E"/>
</svg>
