<svg width="72" height="22" viewBox="0 0 72 22" fill="none" xmlns="http://www.w3.org/2000/svg">
<path d="M65.1587 4.98955C65.1433 5.54198 65.0232 6.08311 64.7695 6.57701C64.4759 7.15305 64.0169 7.57918 63.5671 8.0279C62.6861 8.90891 61.8061 9.78889 60.9251 10.6699V9.57326C61.8267 8.67172 62.7447 7.75271 63.6472 6.85117C64.021 6.47638 64.3927 6.1057 64.6627 5.64466C64.903 5.23701 65.0293 4.81396 65.1063 4.36114C65.0899 4.2564 65.0673 4.15167 65.0406 4.04796C64.9759 3.80152 64.8845 3.56125 64.7695 3.33432C63.8351 1.49016 61.531 0.533164 59.6457 1.52918C58.7154 2.02 58.0346 2.91743 57.8159 3.9463C57.8016 4.01099 57.7913 4.07671 57.782 4.14243C57.817 4.36216 57.8745 4.57882 57.9494 4.78829C58.1281 5.28527 58.4197 5.7227 58.7852 6.10057C59.464 6.80291 60.2372 7.56686 60.9241 8.25996V9.38638C60.4744 8.93253 59.9466 8.40166 59.4968 7.94781C58.8859 7.33069 58.2534 6.7567 57.9484 5.91574C57.7903 5.48037 57.7441 5.03678 57.7328 4.58293C57.7317 4.54699 57.7225 4.50695 57.7204 4.47101C57.7081 4.30056 57.7184 3.94733 57.7297 3.74916C57.7348 3.38361 57.7584 3.01806 57.8508 2.66073C58.1455 1.53328 58.9988 0.598881 60.0944 0.202529C62.2949 -0.593254 64.8096 1.05992 65.1217 3.34664C65.1987 3.88367 65.1741 4.44842 65.1587 4.98955Z" fill="white"/>
<path d="M57.7335 17.0104C57.7489 16.458 57.8691 15.9169 58.1227 15.423C58.4164 14.8469 58.8754 14.4208 59.3251 13.9721C60.2061 13.0911 61.0861 12.2111 61.9671 11.3301V12.4565C61.0656 13.358 60.164 14.2606 59.2614 15.1622C58.8877 15.5369 58.4995 15.8943 58.2295 16.3553C57.9892 16.763 57.8629 17.186 57.7859 17.6388C57.8023 17.7436 57.8249 17.8483 57.8516 17.952C57.9163 18.1985 58.0077 18.4387 58.1227 18.6657C59.0571 20.5098 61.3613 21.4668 63.2465 20.4708C64.1768 19.98 64.8576 19.0825 65.0763 18.0537C65.0907 17.989 65.1009 17.9233 65.1102 17.8576C65.0753 17.6378 65.0178 17.4212 64.9428 17.2117C64.7642 16.7147 64.4725 16.2773 64.107 15.8994C63.4283 15.1971 62.6551 14.4331 61.9681 13.74V12.6136C62.4179 13.0675 62.9457 13.5983 63.3954 14.0522C64.0064 14.6693 64.6389 15.2433 64.9438 16.0842C65.102 16.5196 65.1482 16.9632 65.1595 17.4171C65.1605 17.453 65.1697 17.493 65.1718 17.529C65.1841 17.6994 65.1739 18.0526 65.1626 18.2508C65.1574 18.6164 65.1338 18.9819 65.0414 19.3393C64.7467 20.4667 63.8934 21.4011 62.7978 21.7975C60.5973 22.5932 58.0827 20.9401 57.7705 18.6533C57.6935 18.1173 57.7171 17.5516 57.7335 17.0104Z" fill="white"/>
<path d="M60.569 10.8671V12.0017C60.1757 11.6084 59.8317 11.2645 59.4374 10.8712C59.4107 10.8445 59.3861 10.8198 59.3594 10.7931C58.886 10.3198 58.4116 9.8454 57.9383 9.37203C57.545 8.97876 57.1682 8.57933 56.6722 8.30825C55.7132 7.78149 54.5333 7.72913 53.5301 8.16244C52.6974 8.52388 51.9109 9.27757 51.4991 10.0877C51.3677 10.3465 51.2681 10.6227 51.2023 10.9061C51.1839 10.9862 51.1685 11.0663 51.1572 11.1474C51.2332 11.6238 51.4057 12.0859 51.6634 12.4925C52.8832 14.4209 55.6053 14.6879 57.2226 13.1127C57.9444 12.4104 58.6478 11.6885 59.3594 10.9759L59.3604 12.0664C58.9045 12.5223 58.4229 13.0039 57.967 13.4598C57.4208 14.0071 56.9279 14.615 56.2142 14.9497C54.0436 15.9663 51.4252 14.5225 51.1387 12.1393C51.0175 11.131 51.0216 9.93781 51.4755 9.01059C51.9067 8.12856 52.7641 7.32251 53.6821 6.97442C54.7428 6.5719 55.9616 6.70231 56.9104 7.32456C57.3704 7.62542 57.7463 8.05155 58.1323 8.43866C58.5615 8.86889 58.9918 9.2981 59.422 9.72834C59.4272 9.73347 59.4323 9.73963 59.4374 9.74477C59.8327 10.138 60.1757 10.4738 60.569 10.8671Z" fill="white"/>
<path d="M62.1299 11.0898L62.1412 9.96337C62.5344 10.3566 62.8969 10.7222 63.2902 11.1155C63.3169 11.1422 63.3415 11.1668 63.3682 11.1935C63.8416 11.6669 64.316 12.1412 64.7893 12.6146C65.1826 13.0079 65.5595 13.4073 66.0554 13.6784C67.0145 14.2051 68.1943 14.2575 69.1975 13.8242C70.0302 13.4628 70.8168 12.7091 71.2285 11.8989C71.3599 11.6402 71.4595 11.3639 71.5253 11.0805C71.5437 11.0005 71.5591 10.9204 71.5704 10.8392C71.4945 10.3628 71.3219 9.90073 71.0642 9.49411C69.8433 7.56472 67.1069 7.2844 65.4896 8.85954C64.7678 9.56188 64.0808 10.2704 63.3693 10.983L63.3672 9.88327C63.8231 9.42737 64.28 8.97043 64.7359 8.51453C65.2822 7.96723 65.7997 7.37065 66.5123 7.03694C68.683 6.02039 71.3014 7.46409 71.5879 9.84734C71.7091 10.8557 71.705 12.0488 71.2511 12.976C70.8198 13.8581 69.9624 14.6641 69.0445 15.0122C67.9838 15.4147 66.7649 15.2843 65.8162 14.6621C65.3561 14.3612 64.9803 13.9351 64.5942 13.548C64.165 13.1177 63.7348 12.6885 63.3046 12.2583C63.2994 12.2532 63.2943 12.247 63.2892 12.2419C62.8959 11.8486 62.5232 11.4831 62.1299 11.0898Z" fill="white"/>
<path d="M2.64418 2.35693H0V15.6692H2.64418V2.35693Z" fill="white"/>
<path d="M11.2809 4.57544C10.9129 3.92612 10.3454 3.39344 9.57942 2.9786C8.81226 2.56375 7.87316 2.35693 6.7621 2.35693H3.63574V2.82709H5.98652C6.518 2.82709 7.03145 2.98822 7.52445 3.30807C8.01745 3.62912 8.41666 4.07523 8.72208 4.64639C9.0275 5.21755 9.18021 5.84763 9.18021 6.53663C9.18021 7.24126 9.0275 7.88337 8.72208 8.46174C8.41666 9.04132 8.01745 9.49464 7.52445 9.82291C7.03145 10.1512 6.5192 10.3159 5.98652 10.3159H3.63574V10.7849H6.7621C7.88879 10.7849 8.8315 10.5732 9.59145 10.1512C10.3502 9.72792 10.9141 9.19283 11.2821 8.54351C11.65 7.89419 11.834 7.23285 11.834 6.55948C11.8316 5.88611 11.6476 5.22476 11.2809 4.57544Z" fill="white"/>
<path d="M24.9725 2.94854L20.8589 10.4338L16.3521 2.35693H13.4639V15.6692H13.934V3.41388L19.6853 14.0495L24.9725 4.14497V2.94854Z" fill="white"/>
<path d="M28.6926 2.50488H26.04V14.967C26.04 15.436 26.42 15.8171 26.8902 15.8171H37.3322V15.3482H29.8121C29.1941 15.3482 28.6926 14.8468 28.6926 14.2287V2.50488Z" fill="white"/>
<path d="M42.6207 2.35693L37.9492 10.7392L33.594 2.35693H30.8584V14.6351H31.3286V3.41388L37.0798 14.2022L42.6207 3.55457V15.5165H45.2733V2.35693H42.6207Z" fill="white"/>
<path d="M0.00585938 17.4726C0.20306 17.4402 0.390642 17.4233 0.566199 17.4233C0.914908 17.4233 1.16862 17.4871 1.32734 17.6157C1.48607 17.7432 1.56543 17.9464 1.56543 18.2242C1.56543 18.4995 1.48607 18.7015 1.32734 18.8314C1.16862 18.9613 0.917312 19.025 0.574615 19.025C0.536137 19.025 0.497658 19.0238 0.45918 19.0214C0.419499 19.019 0.377414 19.0178 0.331721 19.0178V19.7489H0.00706116V17.4726H0.00585938ZM0.623916 18.7569C0.842761 18.7569 0.999078 18.716 1.09287 18.6354C1.18666 18.5548 1.23355 18.4178 1.23355 18.2242C1.23355 18.0342 1.18786 17.8983 1.09527 17.8177C1.00269 17.7372 0.84757 17.6963 0.628725 17.6963C0.579425 17.6963 0.528923 17.6975 0.476016 17.7011C0.423108 17.7047 0.375009 17.7095 0.331721 17.7179V18.734C0.364187 18.7424 0.408677 18.7484 0.465192 18.752C0.521707 18.7544 0.574616 18.7569 0.623916 18.7569Z" fill="white"/>
<path d="M2.34424 19.7648C2.20355 19.7648 2.09533 19.7251 2.02198 19.6445C1.94743 19.5652 1.91016 19.4534 1.91016 19.3103C1.91016 19.1503 1.95826 19.0277 2.05445 18.9423C2.15065 18.8569 2.30456 18.8076 2.51499 18.7932L2.87211 18.7644V18.6525C2.87211 18.5179 2.84686 18.4253 2.79516 18.376C2.74345 18.3267 2.64726 18.3014 2.50657 18.3014C2.44404 18.3014 2.37069 18.3062 2.28772 18.3158C2.20355 18.3255 2.12299 18.3387 2.04363 18.3555L2.01477 18.1078C2.11457 18.091 2.21077 18.0778 2.30095 18.0681C2.39113 18.0585 2.47771 18.0537 2.55827 18.0537C2.77712 18.0537 2.93825 18.097 3.03925 18.1836C3.14026 18.2702 3.19196 18.4072 3.19196 18.5948V19.7468H2.92743L2.89496 19.5399H2.87452C2.79275 19.6085 2.70858 19.6626 2.6184 19.7035C2.52821 19.7443 2.43803 19.7648 2.34424 19.7648ZM2.46208 19.5207C2.52942 19.5207 2.59916 19.5027 2.6713 19.4666C2.74345 19.4305 2.80958 19.392 2.87211 19.3511V18.9592L2.60397 18.988C2.46569 19.0012 2.36949 19.0301 2.31418 19.0722C2.25887 19.1143 2.23121 19.184 2.23121 19.2802C2.23001 19.4413 2.30696 19.5207 2.46208 19.5207Z" fill="white"/>
<path d="M3.73535 18.0754H4.00349L4.02033 18.2654H4.04077C4.18146 18.1825 4.3017 18.1247 4.40271 18.0923C4.50251 18.0586 4.5963 18.043 4.68287 18.043C4.95944 18.043 5.09652 18.1945 5.09652 18.4975V19.748H4.77547V18.6009C4.77547 18.4987 4.75743 18.4265 4.72256 18.3821C4.68769 18.3376 4.62997 18.3159 4.55181 18.3159C4.48086 18.3159 4.40391 18.3304 4.32094 18.3592C4.23677 18.3881 4.14779 18.4278 4.0528 18.4771V19.7492H3.73655V18.0754H3.73535Z" fill="white"/>
<path d="M6.25545 19.7804C6.16647 19.7804 6.07268 19.7731 5.97528 19.7599C5.87788 19.7467 5.76365 19.7238 5.63379 19.6938V17.2456H5.95003V18.2533C6.00655 18.1871 6.07629 18.1354 6.15685 18.0981C6.23742 18.0609 6.33 18.0428 6.43341 18.0428C6.63903 18.0428 6.79535 18.1114 6.90237 18.2496C7.00938 18.3879 7.06229 18.5984 7.06229 18.8809C7.06229 19.1587 6.99496 19.3775 6.86148 19.5351C6.72801 19.6938 6.526 19.7755 6.25545 19.7804ZM6.25906 19.5459C6.4274 19.5459 6.54885 19.4978 6.6246 19.4016C6.70036 19.3054 6.73884 19.1419 6.73884 18.9098C6.73884 18.6873 6.70877 18.5286 6.64745 18.4348C6.58612 18.341 6.48392 18.2941 6.34083 18.2941C6.23501 18.2941 6.14363 18.3266 6.06667 18.3915C5.98971 18.4565 5.95123 18.5479 5.95123 18.6657V19.5122C6.04502 19.5351 6.14844 19.5459 6.25906 19.5459Z" fill="white"/>
<path d="M8.20795 19.7765C7.96145 19.7765 7.77628 19.7055 7.65122 19.5612C7.52617 19.4181 7.46484 19.2077 7.46484 18.93C7.46484 18.6378 7.52617 18.4177 7.65002 18.2698C7.77267 18.1207 7.95424 18.0474 8.19232 18.0474C8.60356 18.0474 8.80918 18.2951 8.80918 18.7905C8.80918 18.8434 8.80797 18.8867 8.80557 18.9203C8.80316 18.954 8.79835 18.9889 8.79354 19.0213H7.78229C7.79311 19.1969 7.83279 19.3244 7.90253 19.4037C7.97227 19.4831 8.0829 19.5216 8.23801 19.5216C8.39554 19.5216 8.56027 19.4915 8.73342 19.4314L8.74905 19.6791C8.67089 19.7091 8.58312 19.7332 8.48692 19.7512C8.38952 19.7681 8.29693 19.7765 8.20795 19.7765ZM8.1839 18.2939C7.93259 18.2939 7.79792 18.4646 7.78229 18.8061H8.5254C8.52059 18.6185 8.49053 18.4863 8.43762 18.4093C8.38471 18.3323 8.30054 18.2939 8.1839 18.2939Z" fill="white"/>
<path d="M9.27539 18.0752H9.54353L9.55917 18.3025H9.57961C9.66138 18.2472 9.74675 18.1967 9.83693 18.1498C9.92711 18.1029 10.0161 18.0692 10.1027 18.0464H10.1965V18.3482H10.0786C9.99205 18.359 9.90667 18.3807 9.8225 18.4119C9.73833 18.4432 9.66138 18.4817 9.59163 18.525V19.7466H9.27539V18.0752Z" fill="white"/>
<path d="M11.2548 19.7765C11.0083 19.7765 10.8232 19.7055 10.6981 19.5612C10.573 19.4181 10.5117 19.2077 10.5117 18.93C10.5117 18.6378 10.573 18.4177 10.6969 18.2698C10.8195 18.1207 11.0011 18.0474 11.2392 18.0474C11.6504 18.0474 11.8561 18.2951 11.8561 18.7905C11.8561 18.8434 11.8548 18.8867 11.8524 18.9203C11.85 18.954 11.8452 18.9889 11.8404 19.0213H10.8292C10.84 19.1969 10.8797 19.3244 10.9494 19.4037C11.0192 19.4831 11.1298 19.5216 11.2849 19.5216C11.4424 19.5216 11.6071 19.4915 11.7803 19.4314L11.7959 19.6791C11.7178 19.7091 11.63 19.7332 11.5338 19.7512C11.4364 19.7681 11.3438 19.7765 11.2548 19.7765ZM11.2308 18.2939C10.9795 18.2939 10.8448 18.4646 10.8292 18.8061H11.5723C11.5675 18.6185 11.5374 18.4863 11.4845 18.4093C11.4316 18.3323 11.3462 18.2939 11.2308 18.2939Z" fill="white"/>
<path d="M12.7658 19.7804C12.69 19.7804 12.6107 19.7743 12.5265 19.7635C12.4423 19.7527 12.3437 19.7347 12.2295 19.7094V19.4581C12.3245 19.4834 12.4159 19.5026 12.5036 19.5182C12.5914 19.5339 12.6744 19.5411 12.7538 19.5411C12.8596 19.5411 12.9389 19.5194 12.9918 19.4749C13.0447 19.4304 13.0712 19.3703 13.0712 19.2934C13.0712 19.2104 13.046 19.1515 12.9942 19.1154C12.9425 19.0793 12.868 19.0505 12.7706 19.0288C12.7141 19.018 12.654 19.0048 12.5914 18.9891C12.5289 18.9747 12.4724 18.9495 12.4207 18.917C12.369 18.8845 12.3269 18.8376 12.2944 18.7763C12.262 18.7162 12.2451 18.6332 12.2451 18.5286C12.2451 18.3723 12.2968 18.2496 12.4014 18.1631C12.5061 18.0765 12.6515 18.0332 12.8379 18.0332C12.9077 18.0332 12.9774 18.0392 13.0447 18.05C13.1121 18.0609 13.2035 18.0765 13.3165 18.0957L13.3045 18.3519C13.2047 18.3302 13.1217 18.3134 13.0568 18.3026C12.9918 18.2917 12.9305 18.2857 12.874 18.2857C12.6576 18.2857 12.5493 18.3639 12.5493 18.5214C12.5493 18.6128 12.5794 18.6729 12.6407 18.7054C12.7021 18.7366 12.7814 18.7619 12.8788 18.7811C12.9498 18.798 13.0147 18.816 13.076 18.8364C13.1373 18.8569 13.1902 18.8857 13.2347 18.9206C13.2792 18.9567 13.3141 19.0036 13.3381 19.0613C13.3622 19.119 13.3742 19.1912 13.3742 19.2765C13.3742 19.4328 13.3213 19.5567 13.2155 19.6457C13.1109 19.7359 12.9606 19.7804 12.7658 19.7804Z" fill="white"/>
<path d="M14.4824 17.4561H14.9285L15.4564 18.8353L15.6031 19.2693H15.6272L15.7738 18.8353L16.3053 17.4561H16.7514V19.7479H16.4508V17.8817H16.4352L16.2404 18.418L15.7618 19.6529H15.4696L14.9947 18.418L14.7951 17.8817H14.7794V19.7479H14.4836V17.4561H14.4824Z" fill="white"/>
<path d="M17.7339 19.7803C17.4549 19.7803 17.3154 19.6288 17.3154 19.3257V18.0752H17.6317V19.2271C17.6317 19.3293 17.6485 19.4003 17.6822 19.4424C17.7158 19.4833 17.7736 19.5049 17.8553 19.5049C17.9335 19.5049 18.0141 19.4893 18.097 19.4568C18.18 19.4255 18.2654 19.3847 18.3543 19.3354V18.0764H18.6706V19.749H18.4073L18.3832 19.559H18.3712C18.2978 19.5975 18.2341 19.6312 18.1788 19.6576C18.1235 19.6853 18.0718 19.7081 18.0225 19.7274C17.9732 19.7466 17.9275 19.7598 17.8818 19.7682C17.8385 19.7767 17.788 19.7803 17.7339 19.7803Z" fill="white"/>
<path d="M19.2334 17.2456H19.5496V19.7479H19.2334V17.2456Z" fill="white"/>
<path d="M20.7343 19.773C20.4144 19.773 20.2557 19.6131 20.2557 19.2944V18.3529H19.9395V18.0763H20.2725L20.317 17.6423L20.5683 17.605V18.0751H21.0144V18.3517H20.5683V19.2271C20.5683 19.4195 20.6549 19.5157 20.8281 19.5157C20.8521 19.5157 20.881 19.5133 20.9158 19.5072C20.9507 19.5012 20.9844 19.4952 21.0192 19.4868V19.7345C20.9243 19.7598 20.8293 19.773 20.7343 19.773Z" fill="white"/>
<path d="M21.5896 17.7496C21.4622 17.7496 21.3984 17.6859 21.3984 17.5596C21.3984 17.4334 21.4622 17.3696 21.5896 17.3696C21.7147 17.3696 21.776 17.4334 21.776 17.5596C21.7772 17.6871 21.7147 17.7496 21.5896 17.7496ZM21.4273 18.0755H21.7483V19.7481H21.4273V18.0755Z" fill="white"/>
<path d="M22.9414 17.4561H23.2661V19.475H24.1883V19.7479H22.9414V17.4561Z" fill="white"/>
<path d="M25.1699 19.7765C24.9234 19.7765 24.7382 19.7055 24.6131 19.5612C24.4881 19.4181 24.4268 19.2077 24.4268 18.93C24.4268 18.6378 24.4881 18.4177 24.6119 18.2698C24.7346 18.1207 24.9162 18.0474 25.1542 18.0474C25.5655 18.0474 25.7711 18.2951 25.7711 18.7905C25.7711 18.8434 25.7699 18.8867 25.7675 18.9203C25.7651 18.954 25.7603 18.9889 25.7555 19.0213H24.7442C24.755 19.1969 24.7947 19.3244 24.8644 19.4037C24.9342 19.4831 25.0448 19.5216 25.1999 19.5216C25.3574 19.5216 25.5222 19.4915 25.6953 19.4314L25.711 19.6791C25.6328 19.7091 25.545 19.7332 25.4488 19.7512C25.3514 19.7681 25.2588 19.7765 25.1699 19.7765ZM25.1458 18.2939C24.8945 18.2939 24.7598 18.4646 24.7442 18.8061H25.4873C25.4825 18.6185 25.4524 18.4863 25.3995 18.4093C25.3466 18.3323 25.2613 18.2939 25.1458 18.2939Z" fill="white"/>
<path d="M26.0049 18.1091V18.0767H26.3344L26.7119 19.2286L26.7769 19.4799H26.8057L26.867 19.2286L27.2446 18.0767H27.5741V18.1091L26.9897 19.7481H26.5881L26.0049 18.1091Z" fill="white"/>
<path d="M28.5654 19.7765C28.3189 19.7765 28.1337 19.7055 28.0086 19.5612C27.8836 19.4181 27.8223 19.2077 27.8223 18.93C27.8223 18.6378 27.8836 18.4177 28.0074 18.2698C28.1301 18.1207 28.3117 18.0474 28.5497 18.0474C28.961 18.0474 29.1666 18.2951 29.1666 18.7905C29.1666 18.8434 29.1654 18.8867 29.163 18.9203C29.1606 18.954 29.1558 18.9889 29.151 19.0213H28.1397C28.1505 19.1969 28.1902 19.3244 28.26 19.4037C28.3297 19.4831 28.4403 19.5216 28.5954 19.5216C28.753 19.5216 28.9177 19.4915 29.0908 19.4314L29.1065 19.6791C29.0283 19.7091 28.9405 19.7332 28.8443 19.7512C28.7469 19.7681 28.6544 19.7765 28.5654 19.7765ZM28.5413 18.2939C28.29 18.2939 28.1553 18.4646 28.1397 18.8061H28.8828C28.878 18.6185 28.848 18.4863 28.795 18.4093C28.7421 18.3323 28.6568 18.2939 28.5413 18.2939Z" fill="white"/>
<path d="M29.5596 17.2456H29.8758V19.7479H29.5596V17.2456Z" fill="white"/>
<path d="M30.9336 17.4561H31.3797L31.9076 18.8353L32.0543 19.2693H32.0783L32.225 18.8353L32.7565 17.4561H33.2026V19.7479H32.902V17.8817H32.8864L32.6916 18.418L32.213 19.6529H31.9208L31.4458 18.418L31.2462 17.8817H31.2306V19.7479H30.9348V17.4561H30.9336Z" fill="white"/>
<path d="M34.0454 19.7648C33.9047 19.7648 33.7965 19.7251 33.7232 19.6445C33.6486 19.5652 33.6113 19.4534 33.6113 19.3103C33.6113 19.1503 33.6594 19.0277 33.7556 18.9423C33.8518 18.8569 34.0057 18.8076 34.2162 18.7932L34.5733 18.7644V18.6525C34.5733 18.5179 34.548 18.4253 34.4963 18.376C34.4446 18.3267 34.3484 18.3014 34.2077 18.3014C34.1452 18.3014 34.0719 18.3062 33.9889 18.3158C33.9047 18.3255 33.8242 18.3387 33.7448 18.3555L33.7159 18.1078C33.8157 18.091 33.9119 18.0778 34.0021 18.0681C34.0923 18.0585 34.1789 18.0537 34.2594 18.0537C34.4783 18.0537 34.6394 18.097 34.7404 18.1836C34.8414 18.2702 34.8931 18.4072 34.8931 18.5948V19.7468H34.6298L34.5973 19.5399H34.5769C34.4951 19.6085 34.411 19.6626 34.3208 19.7035C34.2318 19.7443 34.1404 19.7648 34.0454 19.7648ZM34.1632 19.5207C34.2306 19.5207 34.3003 19.5027 34.3725 19.4666C34.4446 19.4305 34.5108 19.392 34.5733 19.3511V18.9592L34.3051 18.988C34.1669 19.0012 34.0707 19.0301 34.0154 19.0722C33.96 19.1143 33.9324 19.184 33.9324 19.2802C33.9312 19.4413 34.0093 19.5207 34.1632 19.5207Z" fill="white"/>
<path d="M35.3613 18.0752H35.6295L35.6451 18.3025H35.6655C35.7473 18.2472 35.8327 18.1967 35.9229 18.1498C36.0131 18.1029 36.102 18.0692 36.1886 18.0464H36.2824V18.3482H36.1646C36.078 18.359 35.9926 18.3807 35.9084 18.4119C35.8243 18.4432 35.7473 18.4817 35.6776 18.525V19.7466H35.3613V18.0752Z" fill="white"/>
<path d="M36.5998 17.2456H36.9161V18.7727H37.1469L37.6303 18.0753H37.9839L37.4235 18.8593L37.3622 18.8845V18.8966L37.4271 18.9218L38.0319 19.7479H37.6784L37.1421 19.0012H36.9149V19.7479H36.5986V17.2456H36.5998Z" fill="white"/>
<path d="M38.9687 19.7765C38.7222 19.7765 38.537 19.7055 38.412 19.5612C38.2869 19.4181 38.2256 19.2077 38.2256 18.93C38.2256 18.6378 38.2869 18.4177 38.4108 18.2698C38.5334 18.1207 38.715 18.0474 38.9531 18.0474C39.3643 18.0474 39.5699 18.2951 39.5699 18.7905C39.5699 18.8434 39.5687 18.8867 39.5663 18.9203C39.5639 18.954 39.5591 18.9889 39.5543 19.0213H38.543C38.5539 19.1969 38.5935 19.3244 38.6633 19.4037C38.733 19.4831 38.8436 19.5216 38.9988 19.5216C39.1563 19.5216 39.321 19.4915 39.4942 19.4314L39.5098 19.6791C39.4316 19.7091 39.3439 19.7332 39.2477 19.7512C39.1503 19.7681 39.0577 19.7765 38.9687 19.7765ZM38.9446 18.2939C38.6933 18.2939 38.5587 18.4646 38.543 18.8061H39.2861C39.2813 18.6185 39.2513 18.4863 39.1984 18.4093C39.1455 18.3323 39.0601 18.2939 38.9446 18.2939Z" fill="white"/>
<path d="M40.5878 19.773C40.2679 19.773 40.1092 19.6131 40.1092 19.2944V18.3529H39.793V18.0763H40.126L40.1705 17.6423L40.4219 17.605V18.0751H40.868V18.3517H40.4219V19.2271C40.4219 19.4195 40.5084 19.5157 40.6816 19.5157C40.7056 19.5157 40.7345 19.5133 40.7694 19.5072C40.8042 19.5012 40.8379 19.4952 40.8728 19.4868V19.7345C40.7778 19.7598 40.6828 19.773 40.5878 19.773Z" fill="white"/>
<path d="M41.3689 17.7496C41.2415 17.7496 41.1777 17.6859 41.1777 17.5596C41.1777 17.4334 41.2415 17.3696 41.3689 17.3696C41.494 17.3696 41.5553 17.4334 41.5553 17.5596C41.5553 17.6871 41.4928 17.7496 41.3689 17.7496ZM41.2066 18.0755H41.5276V19.7481H41.2066V18.0755Z" fill="white"/>
<path d="M42.0061 18.0754H42.2742L42.2899 18.2654H42.3103C42.451 18.1825 42.5712 18.1247 42.6722 18.0923C42.772 18.0586 42.8658 18.043 42.9524 18.043C43.229 18.043 43.3661 18.1945 43.3661 18.4975V19.748H43.045V18.6009C43.045 18.4987 43.027 18.4265 42.9921 18.3821C42.9572 18.3376 42.8995 18.3159 42.8213 18.3159C42.7504 18.3159 42.6734 18.3304 42.5893 18.3592C42.5051 18.3881 42.4161 18.4278 42.3211 18.4771V19.7492H42.0049V18.0754H42.0061Z" fill="white"/>
<path d="M44.4054 20.4284C44.3128 20.4284 44.2214 20.4211 44.1288 20.4079C44.0363 20.3947 43.9521 20.3767 43.8727 20.3538L43.8968 20.1061C44.0483 20.153 44.2022 20.1758 44.3597 20.1758C44.4415 20.1758 44.5136 20.1662 44.5786 20.147C44.6435 20.1277 44.6988 20.0965 44.7433 20.052C44.7878 20.0075 44.8227 19.9498 44.8467 19.8788C44.8708 19.8067 44.8828 19.7189 44.8828 19.6143V19.5109H44.8671C44.7565 19.66 44.5978 19.7333 44.3922 19.7333C44.1805 19.7333 44.0218 19.6672 43.9148 19.5349C43.8078 19.4027 43.7549 19.1995 43.7549 18.9241C43.7549 18.6319 43.8258 18.4119 43.9677 18.264C44.1096 18.1149 44.3056 18.0415 44.5545 18.0415C44.6471 18.0415 44.7421 18.0487 44.8431 18.0619C44.9429 18.0764 45.0583 18.1004 45.1882 18.1365V19.5614C45.1882 19.7237 45.169 19.8596 45.1293 19.9702C45.0896 20.0808 45.0355 20.1686 44.9669 20.236C44.8984 20.3033 44.8154 20.3526 44.7192 20.3827C44.6231 20.4139 44.5184 20.4284 44.4054 20.4284ZM44.4739 19.4953C44.5822 19.4953 44.6748 19.464 44.7517 19.4003C44.8287 19.3365 44.8671 19.2439 44.8671 19.1201V18.3145C44.8154 18.306 44.7625 18.2988 44.7084 18.2916C44.6543 18.2844 44.6002 18.2808 44.5461 18.2808C44.3862 18.2808 44.2683 18.3277 44.1926 18.4215C44.1168 18.5153 44.0783 18.6728 44.0783 18.8964C44.0783 19.1081 44.1096 19.2608 44.1721 19.3546C44.2359 19.4496 44.3357 19.4953 44.4739 19.4953Z" fill="white"/>
</svg>
