<?xml version="1.0" encoding="UTF-8" standalone="no"?>
<!-- Created with Inkscape (http://www.inkscape.org/) -->

<svg
   version="1.1"
   id="svg45"
   xml:space="preserve"
   width="682.66669"
   height="682.66669"
   viewBox="0 0 682.66669 682.66669"
   xmlns="http://www.w3.org/2000/svg"
   xmlns:svg="http://www.w3.org/2000/svg"><defs
     id="defs49"><clipPath
       clipPathUnits="userSpaceOnUse"
       id="clipPath63"><path
         d="M 0,512 H 512 V 0 H 0 Z"
         id="path61" /></clipPath></defs><g
     id="g51"
     transform="matrix(1.3333333,0,0,-1.3333333,0,682.66667)"><g
       id="g53"
       transform="translate(196.7524,173.8037)"><path
         d="M 0,0 V -51.493"
         style="fill:none;stroke:#000000;stroke-width:15;stroke-linecap:round;stroke-linejoin:round;stroke-miterlimit:10;stroke-dasharray:none;stroke-opacity:1"
         id="path55" /></g><g
       id="g57"><g
         id="g59"
         clip-path="url(#clipPath63)"><g
           id="g65"
           transform="translate(196.7524,87.2783)"><path
             d="m 0,0 v -72.649 c 0,-5.745 6.327,-9.24 11.189,-6.182 l 48.059,30.222 48.058,-30.222 c 4.862,-3.058 11.189,0.437 11.189,6.182 V 86.526"
             style="fill:none;stroke:#000000;stroke-width:15;stroke-linecap:round;stroke-linejoin:round;stroke-miterlimit:10;stroke-dasharray:none;stroke-opacity:1"
             id="path67" /></g><g
           id="g69"
           transform="translate(279.1045,162.147)"><path
             d="m 0,0 v -138.006 l -23.104,14.527 -23.105,-14.527 V 0.005"
             style="fill:none;stroke:#000000;stroke-width:15;stroke-linecap:round;stroke-linejoin:round;stroke-miterlimit:10;stroke-dasharray:none;stroke-opacity:1"
             id="path71" /></g><g
           id="g73"
           transform="translate(353.7876,251.9521)"><path
             d="m 0,0 c -22.847,-28.814 -58.159,-47.295 -97.788,-47.295 -68.884,0 -124.726,55.841 -124.726,124.726 0,68.884 55.842,124.727 124.726,124.727 68.885,0 124.727,-55.843 124.727,-124.727 0,-16.875 -3.352,-32.968 -9.425,-47.648"
             style="fill:none;stroke:#000000;stroke-width:15;stroke-linecap:round;stroke-linejoin:round;stroke-miterlimit:10;stroke-dasharray:none;stroke-opacity:1"
             id="path75" /></g><g
           id="g77"
           transform="translate(431.3018,329.3833)"><path
             d="m 0,0 c 0,10.182 -4.097,19.405 -10.731,26.113 -8.764,8.863 -12.15,21.5 -8.992,33.557 2.392,9.127 1.328,19.163 -3.763,27.981 -5.091,8.817 -13.25,14.757 -22.35,17.249 -12.021,3.293 -21.272,12.544 -24.565,24.566 -2.493,9.099 -8.432,17.259 -17.25,22.349 -8.818,5.091 -18.853,6.155 -27.98,3.764 -12.057,-3.159 -24.695,0.227 -33.557,8.991 -6.709,6.635 -15.932,10.731 -26.114,10.731 -10.182,0 -19.405,-4.096 -26.114,-10.731 -8.861,-8.764 -21.499,-12.15 -33.556,-8.991 -9.127,2.391 -19.163,1.327 -27.981,-3.764 -8.817,-5.09 -14.756,-13.25 -17.249,-22.35 -3.293,-12.021 -12.544,-21.272 -24.566,-24.565 -9.099,-2.492 -17.258,-8.432 -22.349,-17.249 -5.091,-8.818 -6.155,-18.854 -3.764,-27.981 3.159,-12.057 -0.227,-24.694 -8.992,-33.557 -6.634,-6.708 -10.731,-15.931 -10.731,-26.113 0,-10.182 4.097,-19.405 10.731,-26.114 8.765,-8.862 12.151,-21.5 8.992,-33.556 -2.391,-9.128 -1.327,-19.163 3.764,-27.981 5.091,-8.818 13.25,-14.757 22.349,-17.249 12.022,-3.293 21.273,-12.545 24.566,-24.566 2.493,-9.1 8.432,-17.259 17.249,-22.35 8.818,-5.091 18.854,-6.155 27.981,-3.764 12.057,3.16 24.695,-0.227 33.556,-8.991 6.709,-6.635 15.932,-10.731 26.114,-10.731 10.182,0 19.405,4.096 26.114,10.731 8.862,8.764 21.5,12.151 33.557,8.991 9.127,-2.391 19.162,-1.327 27.98,3.764 8.818,5.091 14.757,13.25 17.25,22.35 3.293,12.021 12.544,21.273 24.565,24.566 9.1,2.492 17.259,8.431 22.35,17.249 5.09,8.818 6.155,18.854 3.763,27.981 -3.158,12.057 0.228,24.694 8.992,33.556 C -4.097,-19.405 0,-10.182 0,0 Z"
             style="fill:none;stroke:#000000;stroke-width:15;stroke-linecap:round;stroke-linejoin:round;stroke-miterlimit:10;stroke-dasharray:none;stroke-opacity:1"
             id="path79" /></g></g></g></g></svg>
