<svg width="21" height="21" viewBox="0 0 21 21" fill="none" xmlns="http://www.w3.org/2000/svg">
<path fill-rule="evenodd" clip-rule="evenodd" d="M14.0651 1.86603C14.0649 1.86583 14.0653 1.86624 14.0651 1.86603L18.6065 6.38745C20.7567 8.54924 20.7588 12.043 18.6051 14.1967L14.2151 18.5867L14.2137 18.5881C12.0519 20.7383 8.5581 20.7404 6.40443 18.5867L1.87443 14.0567C0.775448 12.9577 0.18616 11.4431 0.255496 9.88306L0.255619 9.88041L0.4957 4.87872C0.615034 2.50397 2.51323 0.605173 4.89986 0.497176C4.90025 0.497159 4.90065 0.497141 4.90104 0.497123L9.89563 0.257386C9.89618 0.257357 9.89672 0.257329 9.89727 0.257301C11.4515 0.176582 12.9673 0.768575 14.0651 1.86603ZM13.0044 2.92669C12.2027 2.12493 11.0988 1.69658 9.97388 1.75534L9.97071 1.7555L4.97072 1.9955L4.96847 1.99561C3.35592 2.06817 2.07487 3.34873 1.99385 4.95323C1.99384 4.95349 1.99386 4.95297 1.99385 4.95323L1.75402 9.94966C1.754 9.95008 1.75398 9.9505 1.75396 9.95092C1.70367 11.0904 2.13436 12.1953 2.93509 12.996L7.46509 17.526C9.03119 19.0921 11.5769 19.0944 13.1552 17.5253C13.1549 17.5255 13.1554 17.5251 13.1552 17.5253L17.5444 13.136C19.1103 11.5701 19.1128 9.02481 17.5442 7.44649C17.5438 7.44608 17.5434 7.44568 17.543 7.44527L13.0056 2.92786L13.0044 2.92669Z" fill="#9D9D9E"/>
<path fill-rule="evenodd" clip-rule="evenodd" d="M7.73438 5.97656C6.76788 5.97656 5.98438 6.76006 5.98438 7.72656C5.98438 8.69306 6.76788 9.47656 7.73438 9.47656C8.70087 9.47656 9.48438 8.69306 9.48438 7.72656C9.48438 6.76006 8.70087 5.97656 7.73438 5.97656ZM4.48438 7.72656C4.48438 5.93164 5.93945 4.47656 7.73438 4.47656C9.5293 4.47656 10.9844 5.93164 10.9844 7.72656C10.9844 9.52149 9.5293 10.9766 7.73438 10.9766C5.93945 10.9766 4.48438 9.52149 4.48438 7.72656Z" fill="#9D9D9E"/>
<path fill-rule="evenodd" clip-rule="evenodd" d="M15.7647 10.6962C16.0576 10.9891 16.0576 11.464 15.7647 11.7569L11.7647 15.7569C11.4718 16.0498 10.9969 16.0498 10.704 15.7569C10.4112 15.464 10.4112 14.9891 10.704 14.6962L14.704 10.6962C14.9969 10.4033 15.4718 10.4033 15.7647 10.6962Z" fill="#9D9D9E"/>
</svg>
