<svg xmlns="http://www.w3.org/2000/svg" version="1.1" xmlns:xlink="http://www.w3.org/1999/xlink" xmlns:svgjs="http://svgjs.com/svgjs" width="512" height="512" x="0" y="0" viewBox="0 0 512 512" style="enable-background:new 0 0 512 512" xml:space="preserve" class=""><g><path d="M255.998 451.959H117.336c-8.77 0-16.082-4.1-19.561-10.968-3.478-6.867-2.456-15.189 2.734-22.26l17.427-23.674C80.985 358.36 60.041 308.423 60.041 256c0-108.052 87.906-195.959 195.957-195.959 108.054 0 195.961 87.907 195.961 195.959 0 108.053-87.907 195.959-195.961 195.959zm0-30c91.511 0 165.961-74.448 165.961-165.959 0-91.51-74.45-165.959-165.961-165.959-91.509 0-165.957 74.449-165.957 165.959 0 48.346 21.034 94.196 57.709 125.796l10.524 9.067-22.89 31.096z" fill="#9d9d9e" data-original="#000000" opacity="1"></path><path d="M203.758 256c0 11.53-9.346 20.878-20.877 20.878C171.348 276.878 162 267.53 162 256c0-11.533 9.348-20.881 20.881-20.881 11.531 0 20.877 9.349 20.877 20.881z" fill="#9d9d9e" data-original="#000000" opacity="1"></path><circle cx="256.008" cy="256" r="20.878" fill="#9d9d9e" data-original="#000000" opacity="1"></circle><circle cx="329.139" cy="256" r="20.879" fill="#9d9d9e" data-original="#000000" opacity="1"></circle></g></svg>