<svg xmlns="http://www.w3.org/2000/svg" version="1.1" xmlns:xlink="http://www.w3.org/1999/xlink" xmlns:svgjs="http://svgjs.com/svgjs" width="512" height="512" x="0" y="0" viewBox="0 0 24 24" style="enable-background:new 0 0 512 512" xml:space="preserve" class=""><g><path d="M12.25 19h-9.5A2.752 2.752 0 0 1 0 16.25V2.75A2.752 2.752 0 0 1 2.75 0h15.5A2.752 2.752 0 0 1 21 2.75v6.5a.75.75 0 0 1-1.5 0v-6.5c0-.689-.561-1.25-1.25-1.25H2.75c-.689 0-1.25.561-1.25 1.25v13.5c0 .689.561 1.25 1.25 1.25h9.5a.75.75 0 0 1 0 1.5z" fill="#9d9d9e" data-original="#000000" opacity="1" class=""></path><path d="M20.25 5H.75a.75.75 0 0 1 0-1.5h19.5a.75.75 0 0 1 0 1.5zM15.25 24a.75.75 0 0 1-.75-.75V21.5a6.758 6.758 0 0 1 6.75-6.75h1.25a.75.75 0 0 1 0 1.5h-1.25A5.256 5.256 0 0 0 16 21.5v1.75a.75.75 0 0 1-.75.75z" fill="#9d9d9e" data-original="#000000" opacity="1" class=""></path><path d="M20.25 19a.749.749 0 0 1-.507-1.303L22.14 15.5l-2.396-2.197a.75.75 0 1 1 1.014-1.106l3 2.75a.753.753 0 0 1-.001 1.106l-3 2.75a.746.746 0 0 1-.507.197z" fill="#9d9d9e" data-original="#000000" opacity="1" class=""></path></g></svg>