<svg width="17" height="17" viewBox="0 0 17 17" fill="none" xmlns="http://www.w3.org/2000/svg">
<path d="M6.37467 7.08333C7.15708 7.08333 7.79134 6.44907 7.79134 5.66667C7.79134 4.88426 7.15708 4.25 6.37467 4.25C5.59227 4.25 4.95801 4.88426 4.95801 5.66667C4.95801 6.44907 5.59227 7.08333 6.37467 7.08333Z" stroke="#7E7E7E" stroke-width="1.2" stroke-linecap="round" stroke-linejoin="round"/>
<path d="M9.20866 1.4165H6.37533C2.83366 1.4165 1.41699 2.83317 1.41699 6.37484V10.6248C1.41699 14.1665 2.83366 15.5832 6.37533 15.5832H10.6253C14.167 15.5832 15.5837 14.1665 15.5837 10.6248V7.08317" stroke="#7E7E7E" stroke-width="1.2" stroke-linecap="round" stroke-linejoin="round"/>
<path d="M13.5577 1.83447L10.9865 4.40572C10.8873 4.50488 10.7881 4.69613 10.774 4.8378L10.6323 5.82238C10.5827 6.17655 10.8306 6.42447 11.1848 6.37488L12.1694 6.23322C12.304 6.21197 12.5023 6.11988 12.6015 6.02072L15.1727 3.44947C15.619 3.00322 15.8244 2.49322 15.1727 1.84155C14.514 1.17572 14.004 1.38822 13.5577 1.83447Z" stroke="#7E7E7E" stroke-width="1.2" stroke-miterlimit="10" stroke-linecap="round" stroke-linejoin="round"/>
<path d="M13.1885 2.20312C13.4081 2.98229 14.0172 3.59146 14.7964 3.81104" stroke="#7E7E7E" stroke-width="1.2" stroke-miterlimit="10" stroke-linecap="round" stroke-linejoin="round"/>
<path d="M1.8916 13.4227L5.38368 11.0782C5.94327 10.7027 6.75077 10.7452 7.25368 11.1773L7.48743 11.3827C8.03993 11.8573 8.93243 11.8573 9.48493 11.3827L12.4316 8.85398C12.9841 8.3794 13.8766 8.3794 14.4291 8.85398L15.5837 9.84565" stroke="#7E7E7E" stroke-width="1.2" stroke-linecap="round" stroke-linejoin="round"/>
</svg>
