<svg width="10" height="11" viewBox="0 0 10 11" fill="none" xmlns="http://www.w3.org/2000/svg">
<path d="M7.08203 4.66732H7.91536C8.7487 4.66732 9.16536 4.25065 9.16536 3.41732V2.58398C9.16536 1.75065 8.7487 1.33398 7.91536 1.33398H7.08203C6.2487 1.33398 5.83203 1.75065 5.83203 2.58398V3.41732C5.83203 4.25065 6.2487 4.66732 7.08203 4.66732Z" stroke="#A7A7A8" stroke-miterlimit="10" stroke-linecap="round" stroke-linejoin="round"/>
<path d="M2.08203 9.66732H2.91536C3.7487 9.66732 4.16536 9.25065 4.16536 8.41732V7.58398C4.16536 6.75065 3.7487 6.33398 2.91536 6.33398H2.08203C1.2487 6.33398 0.832031 6.75065 0.832031 7.58398V8.41732C0.832031 9.25065 1.2487 9.66732 2.08203 9.66732Z" stroke="#A7A7A8" stroke-miterlimit="10" stroke-linecap="round" stroke-linejoin="round"/>
<path d="M2.4987 4.66732C3.41917 4.66732 4.16536 3.92113 4.16536 3.00065C4.16536 2.08018 3.41917 1.33398 2.4987 1.33398C1.57822 1.33398 0.832031 2.08018 0.832031 3.00065C0.832031 3.92113 1.57822 4.66732 2.4987 4.66732Z" stroke="#A7A7A8" stroke-miterlimit="10" stroke-linecap="round" stroke-linejoin="round"/>
<path d="M7.4987 9.66732C8.41917 9.66732 9.16536 8.92113 9.16536 8.00065C9.16536 7.08018 8.41917 6.33398 7.4987 6.33398C6.57822 6.33398 5.83203 7.08018 5.83203 8.00065C5.83203 8.92113 6.57822 9.66732 7.4987 9.66732Z" stroke="#A7A7A8" stroke-miterlimit="10" stroke-linecap="round" stroke-linejoin="round"/>
</svg>
