<svg width="265" height="253" viewBox="0 0 265 253" fill="none" xmlns="http://www.w3.org/2000/svg">
<path d="M63.2946 0.154297H8.47461V49.1984H63.2946V0.154297Z" fill="#FAFAFA"/>
<path d="M63.3236 49.1925C63.3236 49.1925 63.3236 48.8786 63.3236 48.2793C63.3236 47.68 63.3236 46.8011 63.3236 45.6539C63.3236 43.3709 63.3236 39.9864 63.2893 35.7001C63.2893 27.1389 63.2551 14.885 63.2266 0.142686L63.3521 0.268248H8.56063L8.70332 0.119856C8.70332 17.967 8.70332 34.7583 8.70332 49.1696L8.57776 49.0384L48.2274 49.1069L59.3284 49.1925H62.2905H63.0553H62.2962H59.3626L48.2046 49.2267L8.47502 49.2895H8.34375V49.1925C8.34375 34.7812 8.34375 17.9899 8.34375 0.142686V0H8.49785H63.2893H63.4149V0.119856C63.4149 14.8907 63.3635 27.1674 63.3521 35.7514C63.3521 40.0263 63.3236 43.3823 63.3179 45.6824C63.3179 46.8239 63.3179 47.6914 63.3179 48.285C63.3179 48.8786 63.3236 49.1925 63.3236 49.1925Z" fill="#E0E0E0"/>
<path d="M29.4957 8.86925C29.4957 8.95486 26.6077 9.01764 23.052 9.01764C19.4962 9.01764 16.6025 8.95486 16.6025 8.86925C16.6025 8.78364 19.4905 8.72656 23.052 8.72656C26.6134 8.72656 29.4957 8.78934 29.4957 8.86925Z" fill="#E0E0E0"/>
<path d="M52.725 12.5561C52.725 12.636 44.7974 12.6988 35.0319 12.6988C25.2665 12.6988 17.3389 12.636 17.3389 12.5561C17.3389 12.4762 25.2608 12.4077 35.0319 12.4077C44.8031 12.4077 52.725 12.4705 52.725 12.5561Z" fill="#E0E0E0"/>
<path d="M19.0107 18.7944H16.6992V21.106H19.0107V18.7944Z" fill="#E0E0E0"/>
<path d="M24.6953 18.7944H22.3838V21.106H24.6953V18.7944Z" fill="#E0E0E0"/>
<path d="M30.4883 18.686H28.1768V20.9975H30.4883V18.686Z" fill="#E0E0E0"/>
<path d="M36.0644 18.7944H33.7529V21.106H36.0644V18.7944Z" fill="#E0E0E0"/>
<path d="M41.749 18.7944H39.4375V21.106H41.749V18.7944Z" fill="#E0E0E0"/>
<path d="M47.4394 18.7944H45.1279V21.106H47.4394V18.7944Z" fill="#E0E0E0"/>
<path d="M53.124 18.7944H50.8125V21.106H53.124V18.7944Z" fill="#EBEBEB"/>
<path d="M19.0107 23.7031H16.6992V26.0146H19.0107V23.7031Z" fill="#EBEBEB"/>
<path d="M24.6953 23.7031H22.3838V26.0146H24.6953V23.7031Z" fill="#E0E0E0"/>
<path d="M30.3799 23.7031H28.0684V26.0146H30.3799V23.7031Z" fill="#EBEBEB"/>
<path d="M36.0644 23.7031H33.7529V26.0146H36.0644V23.7031Z" fill="#E0E0E0"/>
<path d="M41.749 23.7031H39.4375V26.0146H41.749V23.7031Z" fill="#E0E0E0"/>
<path d="M47.542 23.5947H45.2305V25.9062H47.542V23.5947Z" fill="#E0E0E0"/>
<path d="M53.124 23.7031H50.8125V26.0146H53.124V23.7031Z" fill="#E0E0E0"/>
<path d="M19.0107 28.6113H16.6992V30.9228H19.0107V28.6113Z" fill="#E0E0E0"/>
<path d="M24.8037 28.5088H22.4922V30.8203H24.8037V28.5088Z" fill="#E0E0E0"/>
<path d="M30.3799 28.6113H28.0684V30.9228H30.3799V28.6113Z" fill="#E0E0E0"/>
<path d="M36.0644 28.6113H33.7529V30.9228H36.0644V28.6113Z" fill="#EBEBEB"/>
<path d="M41.749 28.6113H39.4375V30.9228H41.749V28.6113Z" fill="#E0E0E0"/>
<path d="M47.4394 28.6113H45.1279V30.9228H47.4394V28.6113Z" fill="#E0E0E0"/>
<path d="M53.124 28.6113H50.8125V30.9228H53.124V28.6113Z" fill="#E0E0E0"/>
<path d="M19.0107 33.52H16.6992V35.8315H19.0107V33.52Z" fill="#E0E0E0"/>
<path d="M24.6953 33.52H22.3838V35.8315H24.6953V33.52Z" fill="#E0E0E0"/>
<path d="M30.3799 33.52H28.0684V35.8315H30.3799V33.52Z" fill="#E0E0E0"/>
<path d="M36.1728 33.417H33.8613V35.7285H36.1728V33.417Z" fill="#E0E0E0"/>
<path d="M41.749 33.52H39.4375V35.8315H41.749V33.52Z" fill="#E0E0E0"/>
<path d="M47.4394 33.52H45.1279V35.8315H47.4394V33.52Z" fill="#EBEBEB"/>
<path d="M53.124 33.52H50.8125V35.8315H53.124V33.52Z" fill="#E0E0E0"/>
<path d="M19.0107 38.4341H16.6992V40.7456H19.0107V38.4341Z" fill="#E0E0E0"/>
<path d="M24.6953 38.4341H22.3838V40.7456H24.6953V38.4341Z" fill="#EBEBEB"/>
<path d="M30.3799 38.4341H28.0684V40.7456H30.3799V38.4341Z" fill="#E0E0E0"/>
<path d="M36.0644 38.4341H33.7529V40.7456H36.0644V38.4341Z" fill="#E0E0E0"/>
<path d="M41.749 38.4341H39.4375V40.7456H41.749V38.4341Z" fill="#E0E0E0"/>
<path d="M47.542 38.3257H45.2305V40.6372H47.542V38.3257Z" fill="#E0E0E0"/>
<path d="M53.124 38.4341H50.8125V40.7456H53.124V38.4341Z" fill="#E0E0E0"/>
<path d="M257.662 1.15283H218.828V39.9863H257.662V1.15283Z" fill="white"/>
<path d="M257.662 39.9919C257.662 39.9919 257.662 39.9235 257.662 39.8036C257.662 39.6837 257.662 39.4954 257.662 39.2328C257.662 38.7534 257.662 38.0514 257.662 37.1439C257.662 35.3061 257.662 32.635 257.628 29.2391C257.628 22.4415 257.588 12.7503 257.559 1.12423L257.691 1.2555H218.88L219.028 1.10711C219.028 15.3301 219.028 28.6569 219.028 39.9463L218.903 39.815L247.012 39.8835L254.917 39.9177H257.011H257.548H257.736H257.04H254.968L247.098 39.952L218.903 40.0148H218.771V39.8892C218.771 28.5999 218.771 15.273 218.771 1.07857V0.930176H218.92H257.731H257.862V1.05574C257.833 12.7161 257.81 22.4358 257.793 29.2505C257.793 32.635 257.793 35.3004 257.759 37.1268C257.759 38.0286 257.759 38.7192 257.759 39.1929C257.759 39.4212 257.759 39.5924 257.759 39.718C257.759 39.8435 257.662 39.9919 257.662 39.9919Z" fill="#E0E0E0"/>
<path d="M257.496 11.0953C257.496 11.1752 248.838 11.2437 238.159 11.2437C227.481 11.2437 218.828 11.1752 218.828 11.0953C218.828 11.0154 227.481 10.9526 238.159 10.9526C248.838 10.9526 257.496 11.0154 257.496 11.0953Z" fill="#E0E0E0"/>
<path d="M222.607 7.02583C223.216 7.02583 223.709 6.53265 223.709 5.92429C223.709 5.31593 223.216 4.82275 222.607 4.82275C221.999 4.82275 221.506 5.31593 221.506 5.92429C221.506 6.53265 221.999 7.02583 222.607 7.02583Z" fill="#E0E0E0"/>
<path d="M225.963 7.02583C226.571 7.02583 227.064 6.53265 227.064 5.92429C227.064 5.31593 226.571 4.82275 225.963 4.82275C225.354 4.82275 224.861 5.31593 224.861 5.92429C224.861 6.53265 225.354 7.02583 225.963 7.02583Z" fill="#E0E0E0"/>
<path d="M230.421 5.92431C230.421 6.14217 230.356 6.35514 230.235 6.53629C230.114 6.71743 229.942 6.85862 229.741 6.94199C229.54 7.02537 229.318 7.04718 229.104 7.00468C228.891 6.96218 228.694 6.85726 228.54 6.70321C228.386 6.54916 228.281 6.35288 228.239 6.13921C228.196 5.92553 228.218 5.70405 228.302 5.50277C228.385 5.30149 228.526 5.12945 228.707 5.00841C228.888 4.88737 229.101 4.82277 229.319 4.82277C229.464 4.82201 229.608 4.84999 229.742 4.90508C229.876 4.96017 229.997 5.04128 230.1 5.14372C230.202 5.24616 230.283 5.36789 230.339 5.50187C230.394 5.63586 230.422 5.77944 230.421 5.92431Z" fill="#E0E0E0"/>
<path d="M226.693 22.516C228.436 22.516 229.85 21.103 229.85 19.3598C229.85 17.6167 228.436 16.2036 226.693 16.2036C224.95 16.2036 223.537 17.6167 223.537 19.3598C223.537 21.103 224.95 22.516 226.693 22.516Z" fill="#EBEBEB"/>
<path d="M229.85 30.9287C229.85 31.5529 229.664 32.1631 229.318 32.6822C228.971 33.2012 228.478 33.6058 227.901 33.8446C227.324 34.0835 226.69 34.146 226.078 34.0243C225.465 33.9025 224.903 33.6019 224.462 33.1605C224.02 32.7191 223.72 32.1567 223.598 31.5444C223.476 30.9322 223.538 30.2976 223.777 29.7208C224.016 29.1441 224.421 28.6512 224.94 28.3044C225.459 27.9576 226.069 27.7725 226.693 27.7725C227.53 27.7725 228.333 28.105 228.925 28.6969C229.517 29.2888 229.85 30.0916 229.85 30.9287Z" fill="#EBEBEB"/>
<path d="M251.863 19.103C251.863 19.1829 247.548 19.2514 242.223 19.2514C236.898 19.2514 232.583 19.1829 232.583 19.103C232.583 19.0231 236.898 18.9546 242.223 18.9546C247.548 18.9546 251.863 19.0174 251.863 19.103Z" fill="#E0E0E0"/>
<path d="M239.53 30.8889C237.251 31.0864 234.959 31.0864 232.681 30.8889C234.959 30.6913 237.251 30.6913 239.53 30.8889Z" fill="#E0E0E0"/>
<path d="M251.863 45.8936C258.624 45.8936 264.105 40.4125 264.105 33.6512C264.105 26.8898 258.624 21.4087 251.863 21.4087C245.101 21.4087 239.62 26.8898 239.62 33.6512C239.62 40.4125 245.101 45.8936 251.863 45.8936Z" fill="#E0E0E0"/>
<path d="M253.016 29.0054H251.875V38.0916H253.016V29.0054Z" fill="white"/>
<path d="M256.989 32.9775H247.902V34.119H256.989V32.9775Z" fill="white"/>
<path d="M23.1956 136.556C29.4222 133.921 32.3335 126.737 29.6982 120.51C27.0628 114.284 19.8788 111.372 13.6522 114.008C7.42559 116.643 4.5143 123.827 7.14964 130.054C9.78498 136.28 16.969 139.191 23.1956 136.556Z" fill="#E0E0E0"/>
<path d="M19.5761 120.638H18.4346V129.724H19.5761V120.638Z" fill="white"/>
<path d="M23.5482 124.611H14.4619V125.752H23.5482V124.611Z" fill="white"/>
<path d="M166.868 179.625H83.7217V217.968H166.868V179.625Z" fill="#F5F5F5"/>
<path d="M164.916 216.164H85.6221V181.64H164.916V216.164ZM86.1529 215.645H164.345V182.176H86.1529V215.645Z" fill="#E0E0E0"/>
<path d="M187.181 179.625H166.868V217.968H187.181V179.625Z" fill="#E0E0E0"/>
<path d="M85.885 192.324H164.648C164.675 192.324 164.701 192.313 164.72 192.294C164.74 192.274 164.75 192.248 164.75 192.221C164.75 192.194 164.74 192.168 164.72 192.148C164.701 192.129 164.675 192.118 164.648 192.118H85.885C85.8577 192.118 85.8316 192.129 85.8123 192.148C85.793 192.168 85.7822 192.194 85.7822 192.221C85.7822 192.248 85.793 192.274 85.8123 192.294C85.8316 192.313 85.8577 192.324 85.885 192.324Z" fill="#E0E0E0"/>
<path d="M125.534 192.221C125.746 188.752 125.746 185.274 125.534 181.805C125.529 181.781 125.515 181.76 125.496 181.745C125.477 181.729 125.453 181.721 125.429 181.721C125.404 181.721 125.381 181.729 125.361 181.745C125.342 181.76 125.329 181.781 125.323 181.805C125.115 185.274 125.115 188.752 125.323 192.221C125.323 192.242 125.332 192.263 125.347 192.278C125.362 192.292 125.382 192.301 125.403 192.301C125.424 192.301 125.445 192.292 125.46 192.278C125.475 192.263 125.483 192.242 125.483 192.221H125.534Z" fill="#E0E0E0"/>
<path d="M146.709 187.01C146.709 187.222 146.646 187.43 146.528 187.606C146.41 187.783 146.242 187.92 146.046 188.001C145.85 188.083 145.634 188.104 145.426 188.062C145.218 188.021 145.027 187.919 144.877 187.769C144.727 187.619 144.625 187.427 144.583 187.219C144.542 187.011 144.563 186.795 144.644 186.599C144.725 186.403 144.863 186.236 145.039 186.118C145.216 186 145.423 185.937 145.636 185.937C145.92 185.937 146.193 186.05 146.394 186.251C146.595 186.453 146.709 186.725 146.709 187.01Z" fill="#E0E0E0"/>
<path d="M105.381 187.01C105.381 187.222 105.318 187.43 105.201 187.606C105.083 187.783 104.915 187.92 104.719 188.001C104.523 188.083 104.307 188.104 104.099 188.062C103.891 188.021 103.7 187.919 103.55 187.769C103.4 187.619 103.297 187.427 103.256 187.219C103.215 187.011 103.236 186.795 103.317 186.599C103.398 186.403 103.536 186.236 103.712 186.118C103.889 186 104.096 185.937 104.308 185.937C104.593 185.937 104.866 186.05 105.067 186.251C105.268 186.453 105.381 186.725 105.381 187.01Z" fill="#E0E0E0"/>
<path d="M126.328 198.905C126.328 199.117 126.265 199.324 126.147 199.501C126.029 199.677 125.861 199.815 125.665 199.896C125.469 199.977 125.253 199.998 125.045 199.957C124.837 199.916 124.646 199.813 124.496 199.663C124.346 199.513 124.244 199.322 124.202 199.114C124.161 198.906 124.182 198.69 124.263 198.494C124.345 198.298 124.482 198.13 124.659 198.012C124.835 197.894 125.042 197.832 125.255 197.832C125.539 197.832 125.812 197.945 126.013 198.146C126.215 198.347 126.328 198.62 126.328 198.905Z" fill="#E0E0E0"/>
<path d="M93.6644 217.967L89.3838 242.041H91.7923L99.68 217.967H93.6644Z" fill="#E0E0E0"/>
<path d="M160.983 217.967L164.562 242.081H162.153L154.962 217.967H160.983Z" fill="#E0E0E0"/>
<path d="M177.056 217.967L181.114 242.081H178.705L171.034 217.967H177.056Z" fill="#E0E0E0"/>
<path d="M126.253 209.754C126.253 209.967 126.19 210.174 126.072 210.351C125.954 210.527 125.786 210.665 125.59 210.746C125.393 210.827 125.177 210.848 124.969 210.806C124.761 210.764 124.57 210.661 124.42 210.511C124.27 210.36 124.168 210.168 124.127 209.96C124.087 209.751 124.109 209.536 124.191 209.34C124.273 209.144 124.411 208.976 124.588 208.859C124.766 208.742 124.974 208.68 125.186 208.681C125.47 208.683 125.741 208.796 125.941 208.997C126.141 209.199 126.253 209.471 126.253 209.754Z" fill="#E0E0E0"/>
<path d="M85.8855 204.201H164.648C164.672 204.195 164.693 204.182 164.708 204.163C164.724 204.144 164.732 204.12 164.732 204.095C164.732 204.071 164.724 204.047 164.708 204.028C164.693 204.009 164.672 203.995 164.648 203.99H85.8855C85.8617 203.995 85.8404 204.009 85.8252 204.028C85.81 204.047 85.8018 204.071 85.8018 204.095C85.8018 204.12 85.81 204.144 85.8252 204.163C85.8404 204.182 85.8617 204.195 85.8855 204.201Z" fill="#E0E0E0"/>
<path d="M252.485 242.15C252.485 242.23 196.666 242.298 127.823 242.298C58.9797 242.298 3.14941 242.23 3.14941 242.15C3.14941 242.07 58.9568 242.001 127.823 242.001C196.689 242.001 252.485 242.064 252.485 242.15Z" fill="#263238"/>
<path d="M209.633 19.9248H38.4727V170.727H209.633V19.9248Z" fill="white"/>
<path d="M209.633 111.741H38.4727V137.219H209.633V111.741Z" fill="white"/>
<path d="M209.633 82.5928H38.4727V111.746H209.633V82.5928Z" fill="#F5F5F5"/>
<path d="M209.633 141.385H38.4727V170.539H209.633V141.385Z" fill="#F5F5F5"/>
<path d="M141.817 91.6674C141.817 91.753 121.63 91.8215 96.7285 91.8215C71.8269 91.8215 51.6396 91.753 51.6396 91.6674C51.6396 91.5818 71.8212 91.519 96.7285 91.519C121.636 91.519 141.817 91.5875 141.817 91.6674Z" fill="#263238"/>
<path d="M89.7143 99.7836C89.7143 99.8635 81.1532 99.932 70.5544 99.932C59.9557 99.932 51.3945 99.8635 51.3945 99.7836C51.3945 99.7037 59.9557 99.6353 70.5544 99.6353C81.1532 99.6353 89.7143 99.7037 89.7143 99.7836Z" fill="#263238"/>
<path d="M141.817 120.428C141.817 120.508 121.63 120.576 96.7285 120.576C71.8269 120.576 51.6396 120.508 51.6396 120.428C51.6396 120.348 71.8212 120.279 96.7285 120.279C121.636 120.279 141.817 120.342 141.817 120.428Z" fill="#263238"/>
<path d="M89.7143 128.526C89.7143 128.612 81.1532 128.675 70.5544 128.675C59.9557 128.675 51.3945 128.612 51.3945 128.526C51.3945 128.441 59.9557 128.378 70.5544 128.378C81.1532 128.378 89.7143 128.458 89.7143 128.526Z" fill="#263238"/>
<path d="M141.817 149.182C141.817 149.262 121.63 149.33 96.7285 149.33C71.8269 149.33 51.6396 149.262 51.6396 149.182C51.6396 149.102 71.8212 149.033 96.7285 149.033C121.636 149.033 141.817 149.073 141.817 149.182Z" fill="#263238"/>
<path d="M89.7143 157.292C89.7143 157.378 81.1532 157.44 70.5544 157.44C59.9557 157.44 51.3945 157.378 51.3945 157.292C51.3945 157.206 59.9557 157.144 70.5544 157.144C81.1532 157.144 89.7143 157.212 89.7143 157.292Z" fill="#263238"/>
<path d="M209.633 19.7368H38.4727V34.1253H209.633V19.7368Z" fill="#E0E0E0"/>
<path d="M209.633 32.7607H38.4727V47.1492H209.633V32.7607Z" fill="#F5F5F5"/>
<path d="M48.7747 26.4773C48.7713 26.8346 48.6622 27.1829 48.4611 27.4783C48.26 27.7737 47.9759 28.0029 47.6447 28.1371C47.3135 28.2712 46.95 28.3043 46.6 28.2321C46.25 28.1599 45.9292 27.9857 45.6782 27.7314C45.4271 27.4771 45.2569 27.1542 45.1891 26.8034C45.1213 26.4525 45.1589 26.0894 45.2972 25.7599C45.4355 25.4304 45.6683 25.1492 45.9662 24.9519C46.2641 24.7545 46.6138 24.6498 46.9711 24.6509C47.2099 24.6509 47.4463 24.6983 47.6666 24.7903C47.887 24.8824 48.0868 25.0173 48.2546 25.1872C48.4224 25.3571 48.5547 25.5586 48.644 25.7801C48.7333 26.0015 48.7777 26.2385 48.7747 26.4773Z" fill="#263238"/>
<path d="M55.4065 26.4769C55.4031 26.835 55.2935 27.184 55.0916 27.4797C54.8898 27.7754 54.6047 28.0046 54.2725 28.1382C53.9403 28.2718 53.5759 28.3039 53.2254 28.2303C52.875 28.1567 52.5543 27.9807 52.3039 27.7248C52.0536 27.4688 51.8848 27.1443 51.8189 26.7923C51.7531 26.4403 51.7932 26.0767 51.9341 25.7476C52.075 25.4184 52.3105 25.1384 52.6106 24.9432C52.9107 24.7479 53.2621 24.646 53.6201 24.6505C54.099 24.6566 54.5559 24.8522 54.8908 25.1945C55.2256 25.5369 55.4111 25.998 55.4065 26.4769Z" fill="#263238"/>
<path d="M62.0325 26.4773C62.0291 26.8343 61.9201 27.1825 61.7193 27.4777C61.5185 27.773 61.2347 28.0022 60.9038 28.1365C60.573 28.2709 60.2097 28.3043 59.8599 28.2325C59.5101 28.1608 59.1893 27.9871 58.938 27.7334C58.6867 27.4797 58.516 27.1573 58.4476 26.8069C58.3792 26.4564 58.416 26.0935 58.5534 25.7639C58.6908 25.4343 58.9227 25.1527 59.2199 24.9546C59.517 24.7566 59.8661 24.6509 60.2232 24.6509C60.4623 24.6509 60.699 24.6982 60.9196 24.7902C61.1402 24.8822 61.3404 25.017 61.5087 25.1868C61.6769 25.3567 61.8098 25.5581 61.8997 25.7796C61.9896 26.0011 62.0348 26.2382 62.0325 26.4773Z" fill="#263238"/>
<path d="M209.668 170.761C209.668 169.802 209.634 111.975 209.582 19.7651L209.668 19.8792L38.5931 19.9135L38.6959 19.7651C38.6959 73.3637 38.6959 124.411 38.6959 170.761L38.5988 170.624L209.685 170.761L38.5988 170.898H38.4961V170.761C38.4961 124.411 38.4961 73.3637 38.4961 19.7651V19.6167H38.6159L209.691 19.6452H209.777V19.7651C209.697 111.975 209.668 169.774 209.668 170.761Z" fill="#263238"/>
<path d="M187.482 55.6309H146.971C145.152 55.6309 143.678 57.1053 143.678 58.9241V68.2671C143.678 70.0859 145.152 71.5603 146.971 71.5603H187.482C189.301 71.5603 190.776 70.0859 190.776 68.2671V58.9241C190.776 57.1053 189.301 55.6309 187.482 55.6309Z" fill="#751B74"/>
<path d="M154.642 63.507H153.62V64.5172H153.146V63.507H152.119V63.0618H153.146V62.0459H153.62V63.0618H154.642V63.507Z" fill="white"/>
<path d="M159.67 64.266H157.57L157.136 65.2534H156.565L158.352 61.3096H158.923L160.715 65.2534H160.144L159.67 64.266ZM159.471 63.8151L158.637 61.8803L157.787 63.8151H159.471Z" fill="white"/>
<path d="M163.991 61.0698V65.2534H163.471V64.7797C163.349 64.9446 163.189 65.0772 163.004 65.1657C162.819 65.2543 162.615 65.2961 162.41 65.2876C162.005 65.2876 161.618 65.1271 161.332 64.8413C161.046 64.5555 160.886 64.1679 160.886 63.7637C160.886 63.3596 161.046 62.972 161.332 62.6862C161.618 62.4004 162.005 62.2399 162.41 62.2399C162.608 62.2313 162.806 62.2704 162.987 62.3537C163.168 62.4371 163.326 62.5624 163.448 62.7193V61.0698H163.991ZM163.454 63.758C163.444 63.5616 163.377 63.3725 163.26 63.2141C163.143 63.0557 162.983 62.935 162.798 62.8669C162.614 62.7989 162.413 62.7865 162.222 62.8313C162.03 62.8762 161.856 62.9762 161.721 63.1191C161.586 63.262 161.496 63.4414 161.462 63.6351C161.427 63.8288 161.451 64.0282 161.529 64.2087C161.607 64.3892 161.737 64.5427 161.901 64.6503C162.066 64.7579 162.259 64.8148 162.455 64.8139C162.592 64.8167 162.728 64.7908 162.854 64.738C162.981 64.6851 163.094 64.6065 163.188 64.507C163.282 64.4076 163.355 64.2896 163.4 64.1606C163.446 64.0316 163.464 63.8945 163.454 63.758Z" fill="white"/>
<path d="M167.837 61.0698V65.2534H167.318V64.7797C167.194 64.9443 167.033 65.0766 166.847 65.1651C166.661 65.2535 166.456 65.2956 166.25 65.2876C165.846 65.2876 165.459 65.1271 165.173 64.8413C164.887 64.5555 164.727 64.1679 164.727 63.7637C164.727 63.3596 164.887 62.972 165.173 62.6862C165.459 62.4004 165.846 62.2399 166.25 62.2399C166.45 62.2318 166.649 62.271 166.83 62.3543C167.012 62.4377 167.171 62.5627 167.295 62.7193V61.0698H167.837ZM167.301 63.758C167.311 63.6194 167.293 63.48 167.247 63.3488C167.201 63.2175 167.128 63.0971 167.034 62.9952C166.939 62.8932 166.825 62.8119 166.697 62.7563C166.57 62.7006 166.432 62.6719 166.293 62.6719C166.154 62.6719 166.017 62.7006 165.889 62.7563C165.762 62.8119 165.647 62.8932 165.553 62.9952C165.458 63.0971 165.386 63.2175 165.34 63.3488C165.294 63.48 165.275 63.6194 165.286 63.758C165.275 63.8967 165.294 64.036 165.34 64.1673C165.386 64.2986 165.458 64.4189 165.553 64.5209C165.647 64.6228 165.762 64.7042 165.889 64.7598C166.017 64.8154 166.154 64.8441 166.293 64.8441C166.432 64.8441 166.57 64.8154 166.697 64.7598C166.825 64.7042 166.939 64.6228 167.034 64.5209C167.128 64.4189 167.201 64.2986 167.247 64.1673C167.293 64.036 167.311 63.8967 167.301 63.758Z" fill="white"/>
<path d="M171.245 61.8004H169.893V61.3096H173.152V61.8004H171.799V65.2249H171.228L171.245 61.8004Z" fill="white"/>
<path d="M175.897 63.4611V65.2647H175.389V64.8709C175.273 65.0171 175.122 65.1325 174.951 65.2072C174.78 65.2818 174.593 65.3133 174.407 65.2989C173.728 65.2989 173.3 64.9393 173.3 64.42C173.3 63.9006 173.608 63.5467 174.504 63.5467H175.36V63.4383C175.36 62.9817 175.092 62.7192 174.555 62.7192C174.212 62.7147 173.878 62.8275 173.608 63.0388L173.385 62.6335C173.742 62.3708 174.176 62.236 174.618 62.2511C175.434 62.2397 175.897 62.6335 175.897 63.4611ZM175.36 64.3515V63.9348H174.521C173.99 63.9348 173.836 64.1403 173.836 64.3971C173.836 64.654 174.087 64.8823 174.498 64.8823C174.681 64.8943 174.862 64.8483 175.017 64.7509C175.172 64.6535 175.292 64.5097 175.36 64.3401V64.3515Z" fill="white"/>
<path d="M57.3646 62.2457H55.6523V61.2412H60.2982V62.2457H58.586V66.572H57.3532L57.3646 62.2457Z" fill="#263238"/>
<path d="M64.2082 65.4305H61.7312L61.2631 66.572H59.9961L62.3704 61.2412H63.5918L65.9718 66.572H64.6819L64.2082 65.4305ZM63.8201 64.4945L62.9754 62.4512L62.1307 64.4945H63.8201Z" fill="#263238"/>
<path d="M194.6 93.7622H169.596C166.806 93.7622 164.545 96.0237 164.545 98.8133V98.819C164.545 101.609 166.806 103.87 169.596 103.87H194.6C197.39 103.87 199.651 101.609 199.651 98.819V98.8133C199.651 96.0237 197.39 93.7622 194.6 93.7622Z" fill="#E0E0E0"/>
<path d="M194.595 133.052H169.596C168.933 133.052 168.276 132.922 167.663 132.668C167.05 132.414 166.493 132.042 166.024 131.573C165.555 131.104 165.183 130.547 164.929 129.934C164.676 129.321 164.545 128.665 164.545 128.001C164.545 126.662 165.077 125.377 166.024 124.43C166.972 123.482 168.256 122.95 169.596 122.95H194.595C195.258 122.95 195.915 123.081 196.528 123.335C197.14 123.589 197.697 123.961 198.166 124.43C198.635 124.899 199.007 125.455 199.261 126.068C199.515 126.681 199.646 127.338 199.646 128.001C199.646 128.665 199.515 129.321 199.261 129.934C199.007 130.547 198.635 131.104 198.166 131.573C197.697 132.042 197.14 132.414 196.528 132.668C195.915 132.922 195.258 133.052 194.595 133.052Z" fill="#EBEBEB"/>
<path d="M194.6 151.539H169.596C166.806 151.539 164.545 153.8 164.545 156.59V156.595C164.545 159.385 166.806 161.646 169.596 161.646H194.6C197.39 161.646 199.651 159.385 199.651 156.595V156.59C199.651 153.8 197.39 151.539 194.6 151.539Z" fill="#E0E0E0"/>
<path d="M34.2159 200.531C29.65 202.135 23.6343 200.702 19.7076 197.831C15.7809 194.961 12.9557 190.857 10.4558 186.69C9.38282 184.91 8.34407 183.06 8.00162 180.983C7.65917 178.905 8.16143 176.634 9.7481 175.276C12.2194 173.198 16.0263 174.248 18.8001 175.846C23.1726 178.396 26.8599 181.971 29.5443 186.262C32.2288 190.553 33.8301 195.432 34.2102 200.48" fill="#751B74"/>
<path d="M29.2785 211.518C26.5218 215.153 21.7846 216.774 17.2301 216.986C12.6755 217.197 8.16665 215.935 3.90319 214.297C2.35647 213.727 0.667066 212.893 0.136274 211.324C-0.0310044 210.717 -0.0445014 210.079 0.0970053 209.466C0.238512 208.853 0.530558 208.285 0.94673 207.814C1.79026 206.88 2.8451 206.162 4.02304 205.719C8.21231 203.933 13.018 203.847 17.4298 204.994C21.8417 206.141 25.6999 208.693 29.2785 211.518Z" fill="#751B74"/>
<path d="M34.2723 180.863C30.4768 180.943 27.6003 177.616 25.8766 174.225C23.483 169.489 22.6823 164.106 23.5936 158.878C23.9418 156.932 24.6723 154.843 26.4131 153.907C28.1539 152.971 30.4768 153.581 31.955 154.934C33.4333 156.287 34.238 158.216 34.8088 160.128C36.852 166.731 36.4126 174.317 34.238 180.863" fill="#751B74"/>
<path d="M46.7721 201.883C40.2941 190.857 39.2154 177.341 43.0394 165.162C43.6615 163.187 44.8315 160.921 46.9034 160.79C49.1863 160.641 50.636 163.198 51.2695 165.407C53.4897 173.158 53.016 181.388 52.5252 189.43C52.2227 194.39 50.5219 198.625 46.7721 201.883Z" fill="#751B74"/>
<path d="M53.4951 206.415C54.7 202.637 56.7379 199.178 59.4584 196.292C62.1789 193.407 65.5126 191.169 69.2134 189.744C70.9257 189.099 73.123 188.728 74.4015 190.046C75.68 191.365 75.2747 193.471 74.47 195.109C73.163 197.712 71.0455 199.8 68.9338 201.809C67.0161 203.636 65.0242 205.468 62.5985 206.53C60.1728 207.591 55.7096 207.865 53.4951 206.415Z" fill="#751B74"/>
<path d="M13.3262 178.089C13.3594 178.128 13.3978 178.163 13.4403 178.192L13.7885 178.46L15.1468 179.476L16.1342 180.207C16.4881 180.481 16.8591 180.777 17.2757 181.125C18.0748 181.793 19.0222 182.518 19.9753 183.408L21.5049 184.801C22.03 185.286 22.5437 185.834 23.0916 186.376C24.2046 187.449 25.2833 188.699 26.4476 189.989C28.8908 192.868 31.1226 195.92 33.1253 199.121C35.0855 202.343 36.8117 205.702 38.2905 209.172C38.9241 210.787 39.5633 212.311 40.0028 213.789C40.2425 214.525 40.505 215.222 40.7048 215.912L41.2755 217.899C41.6579 219.16 41.8805 220.33 42.1202 221.323C42.2344 221.831 42.3542 222.305 42.4399 222.744C42.5255 223.184 42.5882 223.589 42.651 223.948C42.7766 224.656 42.8793 225.215 42.9535 225.621L43.0391 226.054C43.0427 226.104 43.0563 226.153 43.0791 226.197C43.0855 226.148 43.0855 226.098 43.0791 226.049C43.0791 225.935 43.0448 225.786 43.022 225.609C42.9649 225.204 42.885 224.639 42.7766 223.931C42.7252 223.566 42.6624 223.161 42.594 222.716C42.5255 222.27 42.4056 221.802 42.3029 221.289C42.0746 220.267 41.8691 219.086 41.4981 217.824C41.3212 217.185 41.1443 216.517 40.9274 215.821C40.7105 215.125 40.4765 214.423 40.2368 213.686C39.7859 212.203 39.1581 210.667 38.5245 209.041C37.0662 205.55 35.3492 202.173 33.3878 198.938C31.3767 195.73 29.1273 192.678 26.6588 189.806C25.5173 188.517 24.3758 187.267 23.2685 186.199C22.6978 185.657 22.2012 185.109 21.6647 184.63L20.118 183.249C19.1535 182.353 18.1946 181.639 17.3785 180.966C16.9675 180.646 16.5908 180.332 16.237 180.064L15.2325 179.356L13.8398 178.386L13.4746 178.14C13.3718 178.112 13.3319 178.083 13.3262 178.089Z" fill="#263238"/>
<path d="M4.74805 208.652C4.89879 208.645 5.04816 208.62 5.19323 208.578C5.48431 208.527 5.90095 208.418 6.45457 208.327C8.00403 208.033 9.57133 207.842 11.1461 207.756C16.3514 207.463 21.5565 208.338 26.3793 210.319C31.1849 212.343 35.4756 215.418 38.9356 219.32C39.9829 220.499 40.9515 221.746 41.835 223.052C42.1546 223.509 42.3715 223.885 42.5427 224.125C42.6213 224.254 42.7071 224.377 42.7996 224.496C42.7444 224.357 42.6756 224.223 42.5941 224.097C42.44 223.84 42.2403 223.452 41.9321 222.984C41.0754 221.647 40.1216 220.374 39.0783 219.177C35.6482 215.189 31.3324 212.06 26.4762 210.039C21.62 208.018 16.3582 207.162 11.1118 207.539C9.53158 207.647 7.96151 207.872 6.41462 208.213C5.84388 208.321 5.45006 208.453 5.15898 208.527C4.8679 208.601 4.74805 208.647 4.74805 208.652Z" fill="#263238"/>
<path d="M28.6739 158.307C28.6673 158.364 28.6673 158.421 28.6739 158.478L28.7766 158.975C28.8736 159.432 29.0163 160.065 29.1989 160.875C29.5756 162.519 30.1407 164.899 30.8598 167.833C32.2867 173.7 34.3585 181.782 36.5216 190.737C37.5946 195.223 38.5649 199.503 39.3753 203.402C40.1858 207.3 40.8992 210.821 41.4186 213.812C41.6983 215.29 41.9094 216.666 42.1092 217.807C42.309 218.949 42.4688 220.01 42.5886 220.844C42.7085 221.677 42.8169 222.305 42.8911 222.767C42.9254 222.972 42.9539 223.138 42.9767 223.264C42.9805 223.322 42.994 223.38 43.0167 223.435C43.023 223.378 43.023 223.32 43.0167 223.264C43.0167 223.132 42.9824 222.967 42.9596 222.756L42.777 220.844C42.6742 220.005 42.5315 218.983 42.3432 217.796C42.1548 216.609 41.9665 215.262 41.6983 213.772C41.2074 210.793 40.5568 207.26 39.7178 203.345C38.8788 199.429 37.9313 195.154 36.864 190.668C34.7009 181.708 32.5949 173.637 31.1109 167.781C30.3747 164.871 29.7811 162.502 29.3588 160.847C29.159 160.042 28.9935 159.414 28.8793 158.963C28.828 158.758 28.7823 158.598 28.7481 158.473C28.7287 158.415 28.7039 158.36 28.6739 158.307Z" fill="#263238"/>
<path d="M43.5528 222.562C43.5705 222.519 43.5839 222.475 43.5928 222.43C43.5928 222.322 43.6442 222.191 43.6841 222.031C43.7583 221.66 43.8667 221.146 44.0037 220.496C44.2777 219.166 44.6373 217.231 45.0539 214.828C45.8872 210.034 46.8689 203.367 47.4739 195.959C47.7706 192.255 47.9305 188.716 48.0046 185.497C48.0788 182.278 48.0046 179.373 47.9304 176.936C47.9304 175.721 47.8163 174.619 47.7649 173.655C47.7136 172.69 47.6508 171.857 47.588 171.178C47.5252 170.498 47.4796 170.002 47.4396 169.619C47.4396 169.454 47.4396 169.323 47.3939 169.214C47.3999 169.169 47.3999 169.123 47.3939 169.077C47.3876 169.123 47.3876 169.169 47.3939 169.214C47.3939 169.328 47.3939 169.46 47.3939 169.625C47.3939 170.007 47.4396 170.527 47.4796 171.189C47.5195 171.851 47.5709 172.696 47.6051 173.666C47.6394 174.636 47.7079 175.726 47.725 176.942C47.7992 179.373 47.8049 182.273 47.725 185.503C47.6451 188.734 47.4624 192.249 47.1542 195.948C46.5492 203.367 45.6018 210.005 44.8256 214.782C44.4375 217.185 44.1065 219.126 43.8668 220.49C43.7583 221.14 43.667 221.631 43.6042 222.031C43.6042 222.196 43.5585 222.328 43.5414 222.436C43.5377 222.478 43.5415 222.521 43.5528 222.562Z" fill="#263238"/>
<path d="M43.0732 223.966C43.1378 223.842 43.1932 223.715 43.2388 223.583L43.6668 222.476L43.9693 221.671C44.1006 221.386 44.2376 221.072 44.386 220.741C44.5344 220.41 44.6942 220.05 44.8597 219.668C45.0252 219.286 45.2478 218.909 45.4304 218.498L46.0925 217.208L46.8801 215.855C47.3995 214.908 48.073 213.96 48.7179 212.933C50.2341 210.771 51.8709 208.696 53.6206 206.718C55.39 204.755 57.2588 202.884 59.2196 201.113C60.1556 200.325 61.006 199.543 61.8679 198.881L63.095 197.905L64.2365 197.049C64.967 196.479 65.6633 196.022 66.2683 195.617C66.8733 195.212 67.4098 194.852 67.8379 194.589L68.8424 193.95C68.9644 193.882 69.0792 193.802 69.1848 193.71C69.0551 193.761 68.9308 193.824 68.8138 193.899L67.7808 194.47C67.3242 194.721 66.7877 195.04 66.177 195.457C65.5663 195.874 64.8529 196.307 64.1109 196.855L62.9294 197.7L61.6852 198.67C60.8177 199.321 59.973 200.103 59.0141 200.885C57.0324 202.651 55.1481 204.524 53.3695 206.495C51.6179 208.488 49.9883 210.584 48.4896 212.773C47.839 213.812 47.1712 214.765 46.6575 215.73L45.8813 217.1L45.2364 218.401C45.0366 218.818 44.8254 219.206 44.6656 219.588C44.5058 219.97 44.3517 220.336 44.209 220.672C44.0663 221.009 43.9351 221.329 43.8152 221.62C43.6954 221.911 43.6155 222.191 43.5298 222.436C43.3757 222.898 43.2559 223.275 43.1589 223.578C43.1173 223.704 43.0886 223.834 43.0732 223.966Z" fill="#263238"/>
<path d="M15.7285 190.88C15.7285 190.925 16.5161 190.925 17.7775 191C19.4184 191.085 21.0522 191.276 22.6688 191.57C24.2822 191.883 25.874 192.299 27.4345 192.815C28.0721 193.06 28.7216 193.274 29.3807 193.454C29.2329 193.343 29.0694 193.254 28.8956 193.191C28.576 193.037 28.1023 192.837 27.503 192.62C25.9503 192.05 24.3523 191.61 22.7258 191.308C21.0958 190.998 19.4422 190.828 17.7832 190.8C17.1497 190.8 16.6417 190.8 16.2764 190.828C16.0922 190.817 15.9075 190.835 15.7285 190.88Z" fill="#263238"/>
<path d="M10.8438 214.748C11.5531 213.293 12.4491 211.936 13.5091 210.713C15.3241 208.732 17.3788 207.859 17.3217 207.756C16.8582 207.88 16.4158 208.073 16.009 208.327C14.9991 208.911 14.0816 209.642 13.2865 210.496C12.4941 211.343 11.8341 212.305 11.3289 213.35C11.0891 213.785 10.925 214.258 10.8438 214.748Z" fill="#263238"/>
<path d="M27.5092 167.262C27.4464 167.325 28.6507 168.506 29.9406 170.116C31.2304 171.725 32.1665 173.118 32.2235 173.072C31.6899 171.928 30.994 170.867 30.1574 169.922C29.4074 168.912 28.5154 168.017 27.5092 167.262Z" fill="#263238"/>
<path d="M31.4248 160.487C30.9275 162.168 30.6325 163.902 30.5459 165.653C30.8307 164.824 31.0221 163.967 31.1166 163.096C31.3188 162.241 31.4223 161.366 31.4248 160.487Z" fill="#263238"/>
<path d="M43.542 181.713C44.0833 183.086 44.7163 184.421 45.4369 185.709C46.0712 187.039 46.7958 188.324 47.6057 189.555C47.066 188.182 46.4329 186.847 45.7108 185.56C45.0765 184.23 44.3519 182.945 43.542 181.713Z" fill="#263238"/>
<path d="M50.7665 174.511C50.1438 175.423 49.6051 176.389 49.157 177.399C48.6205 178.361 48.1752 179.372 47.8271 180.418C48.45 179.509 48.9869 178.544 49.4309 177.536C49.9696 176.571 50.4167 175.559 50.7665 174.511Z" fill="#263238"/>
<path d="M61.3545 199.138C61.3545 199.224 62.6615 198.978 64.2653 198.864C65.8691 198.75 67.1818 198.813 67.1875 198.727C66.2255 198.497 65.23 198.441 64.2482 198.562C63.2575 198.585 62.2784 198.78 61.3545 199.138Z" fill="#263238"/>
<path d="M54.1173 220.912L50.5102 239.878C50.3946 240.486 50.0702 241.036 49.5929 241.43C49.1157 241.825 48.5156 242.041 47.8962 242.041H37.2461C36.6165 242.042 36.0071 241.819 35.5264 241.412C35.0457 241.006 34.7247 240.442 34.6207 239.821L31.4873 220.912H54.1173Z" fill="#263238"/>
<path d="M52.9473 227.076H32.566L31.4873 220.912H54.1173L52.9473 227.076Z" fill="#455A64"/>
<path d="M52.9477 227.076L52.5196 229.325H32.8803L32.5664 227.076H52.9477Z" fill="#FAFAFA"/>
<path d="M210.103 224.879L210.553 235.928C210.553 235.928 199.47 240.1 199.355 242.149L220.815 242.047V224.799L210.103 224.879Z" fill="#263238"/>
<path d="M217.185 234.97C217.392 235.032 217.568 235.168 217.681 235.353C217.794 235.537 217.835 235.756 217.796 235.968C217.739 236.176 217.606 236.355 217.423 236.469C217.239 236.582 217.02 236.621 216.808 236.579C216.59 236.514 216.403 236.37 216.285 236.175C216.167 235.979 216.126 235.747 216.169 235.523C216.247 235.31 216.405 235.135 216.61 235.037C216.815 234.939 217.05 234.925 217.265 234.998" fill="#E0E0E0"/>
<path d="M220.815 242.047L220.747 240.334L200.2 241.082C200.2 241.082 199.247 241.505 199.355 242.178L220.815 242.047Z" fill="#455A64"/>
<path d="M210.205 235.826C210.205 235.929 210.73 235.974 211.249 236.305C211.769 236.636 212.042 237.082 212.14 237.042C212.237 237.002 212.077 236.391 211.443 235.997C210.81 235.603 210.182 235.729 210.205 235.826Z" fill="white"/>
<path d="M207.956 236.762C207.956 236.864 208.39 237.041 208.749 237.481C209.109 237.92 209.212 238.394 209.32 238.388C209.429 238.383 209.486 237.789 209.035 237.247C208.584 236.705 207.962 236.665 207.956 236.762Z" fill="white"/>
<path d="M206.695 239.461C206.786 239.461 206.929 238.959 206.661 238.388C206.392 237.818 205.896 237.589 205.85 237.681C205.805 237.772 206.113 238.069 206.33 238.542C206.547 239.016 206.581 239.456 206.695 239.461Z" fill="white"/>
<path d="M210.381 233.292C210.427 233.389 210.907 233.24 211.523 233.292C212.139 233.343 212.573 233.514 212.63 233.423C212.687 233.332 212.236 232.961 211.54 232.926C210.844 232.892 210.33 233.212 210.381 233.292Z" fill="white"/>
<path d="M243.108 227.453L245.894 240.54L245.112 251.527C245.098 251.714 245.124 251.902 245.186 252.08C245.249 252.257 245.347 252.419 245.475 252.557C245.603 252.694 245.758 252.804 245.93 252.879C246.102 252.954 246.288 252.993 246.476 252.994C246.693 252.994 246.908 252.942 247.101 252.843C247.295 252.743 247.462 252.6 247.589 252.423C249.232 250.14 255.237 241.619 255.008 240.671C254.706 239.575 252.988 226.671 252.988 226.671L243.108 227.453Z" fill="#263238"/>
<path d="M246.47 252.993L254.803 239.781L254.911 240.352C255.004 240.832 254.921 241.331 254.677 241.756C254.026 242.897 252.166 246.002 247.623 252.428C247.493 252.609 247.321 252.755 247.122 252.855C246.924 252.954 246.703 253.004 246.481 252.999L246.47 252.993Z" fill="#455A64"/>
<g opacity="0.6">
<path d="M251.304 236.049C251.169 236.201 251.094 236.398 251.094 236.602C251.094 236.806 251.169 237.003 251.304 237.156C251.448 237.302 251.643 237.387 251.848 237.393C252.053 237.4 252.253 237.327 252.406 237.19C252.551 237.029 252.631 236.819 252.631 236.602C252.631 236.385 252.551 236.176 252.406 236.014C252.239 235.881 252.028 235.817 251.816 235.836C251.603 235.854 251.406 235.952 251.264 236.111" fill="white"/>
</g>
<path d="M248.387 246.67C247.992 246.32 247.535 246.047 247.04 245.865C246.521 245.77 245.99 245.77 245.471 245.865C245.471 245.837 245.602 245.705 245.904 245.603C246.301 245.486 246.723 245.486 247.12 245.603C247.52 245.712 247.881 245.934 248.159 246.242C248.359 246.476 248.416 246.67 248.387 246.67Z" fill="white"/>
<path d="M247.783 248.616C247.365 248.478 246.94 248.364 246.51 248.274C246.071 248.276 245.633 248.3 245.197 248.348C245.585 248.063 246.064 247.933 246.542 247.983C247.02 248.033 247.462 248.258 247.783 248.616Z" fill="white"/>
<path d="M249.706 244.096C248.488 243.463 247.111 243.201 245.745 243.342C246.409 243.078 247.134 243.009 247.835 243.142C248.537 243.276 249.186 243.606 249.706 244.096Z" fill="white"/>
<path d="M249.192 240.044C249.192 240.129 248.387 239.964 247.434 240.112C246.481 240.26 245.779 240.62 245.722 240.546C246.2 240.159 246.774 239.909 247.382 239.82C247.991 239.732 248.612 239.809 249.18 240.044H249.192Z" fill="white"/>
<path d="M248.473 236.185C247.866 236.099 247.249 236.099 246.641 236.185C246.056 236.364 245.497 236.621 244.98 236.95C244.98 236.95 245.066 236.733 245.334 236.505C245.694 236.206 246.121 235.999 246.579 235.9C247.033 235.792 247.506 235.792 247.96 235.9C248.302 236.025 248.485 236.151 248.473 236.185Z" fill="white"/>
<path d="M246.533 235.461C246.458 235.307 246.419 235.14 246.418 234.97C246.377 234.504 246.428 234.035 246.567 233.588C246.643 233.256 246.826 232.958 247.086 232.738C247.18 232.675 247.29 232.642 247.403 232.642C247.516 232.642 247.626 232.675 247.72 232.738C247.896 232.88 248.01 233.085 248.039 233.309C248.092 233.756 247.988 234.207 247.744 234.585C247.5 234.963 247.133 235.244 246.704 235.381C246.277 235.508 245.823 235.506 245.398 235.374C244.973 235.241 244.597 234.986 244.318 234.639C244.248 234.551 244.197 234.449 244.169 234.339C244.142 234.23 244.138 234.116 244.158 234.005C244.195 233.899 244.262 233.806 244.352 233.738C244.441 233.67 244.549 233.63 244.661 233.623C244.998 233.631 245.327 233.729 245.614 233.908C246.024 234.126 246.393 234.414 246.704 234.759C246.828 234.876 246.927 235.018 246.995 235.175C246.558 234.746 246.062 234.381 245.522 234.091C245.264 233.95 244.977 233.872 244.683 233.862C244.621 233.864 244.561 233.885 244.512 233.923C244.462 233.961 244.427 234.014 244.409 234.074C244.402 234.147 244.41 234.22 244.432 234.29C244.455 234.36 244.492 234.424 244.541 234.479C244.79 234.772 245.119 234.986 245.488 235.096C245.856 235.207 246.249 235.208 246.618 235.101C246.974 234.976 247.279 234.737 247.486 234.422C247.692 234.106 247.788 233.731 247.76 233.354C247.739 233.202 247.664 233.062 247.549 232.961C247.498 232.923 247.437 232.903 247.374 232.903C247.312 232.903 247.251 232.923 247.2 232.961C246.98 233.146 246.823 233.396 246.75 233.674C246.575 234.253 246.502 234.857 246.533 235.461Z" fill="white"/>
<path d="M202.204 135.015C202.204 135.015 202.112 140.837 202.5 148.354C202.649 151.264 208.779 232.173 208.779 232.173L222.009 232.504L220.188 156.886L222.471 157.457C222.471 157.457 229.44 182.673 230.958 188.443C232.761 195.292 242.47 234.228 242.47 234.228L254.564 234.673L246.608 189.065L239.742 145.648L238.366 133.023L202.204 135.015Z" fill="#455A64"/>
<path d="M222.47 149.238C222.293 149.359 222.101 149.459 221.9 149.535C221.376 149.784 220.821 149.963 220.25 150.066C219.846 150.139 219.433 150.139 219.029 150.066C218.555 149.977 218.117 149.753 217.768 149.421C217.408 149.036 217.154 148.564 217.031 148.051C216.889 147.532 216.814 146.995 216.717 146.453C216.346 144.261 216.112 142.264 215.981 140.814C215.918 140.089 215.878 139.501 215.856 139.102C215.833 138.891 215.833 138.679 215.856 138.468C215.917 138.67 215.954 138.879 215.964 139.09C216.021 139.553 216.095 140.123 216.181 140.803C216.358 142.247 216.626 144.227 216.991 146.413C217.18 147.497 217.3 148.593 217.95 149.267C218.258 149.539 218.623 149.739 219.018 149.852C219.413 149.966 219.828 149.99 220.233 149.923C220.794 149.838 221.343 149.69 221.871 149.484C222.06 149.378 222.262 149.296 222.47 149.238Z" fill="#263238"/>
<path d="M218.743 138.891C218.743 138.891 218.829 138.828 219.017 138.816C219.282 138.82 219.539 138.91 219.748 139.073C219.91 139.194 220.043 139.35 220.136 139.53C220.229 139.711 220.28 139.909 220.284 140.112C220.262 140.367 220.167 140.61 220.01 140.812C219.852 141.013 219.64 141.165 219.398 141.248C219.156 141.33 218.895 141.341 218.647 141.278C218.399 141.216 218.175 141.082 218.001 140.894C217.88 140.733 217.798 140.546 217.759 140.349C217.721 140.151 217.727 139.947 217.779 139.752C217.838 139.491 217.987 139.258 218.201 139.096C218.349 138.982 218.452 138.971 218.458 138.982C218.213 139.193 218.043 139.477 217.973 139.792C217.94 139.956 217.944 140.124 217.983 140.286C218.023 140.447 218.097 140.598 218.201 140.728C218.338 140.872 218.516 140.971 218.71 141.013C218.904 141.055 219.107 141.037 219.291 140.962C219.482 140.908 219.651 140.797 219.778 140.644C219.904 140.491 219.981 140.304 219.999 140.106C220 139.939 219.966 139.774 219.896 139.622C219.827 139.471 219.726 139.336 219.599 139.227C219.356 139.029 219.056 138.912 218.743 138.891Z" fill="#263238"/>
<path d="M239.576 144.866C239.43 144.913 239.277 144.934 239.125 144.929C238.71 144.957 238.295 144.957 237.88 144.929C235.129 144.688 232.542 143.512 230.552 141.596C230.252 141.309 229.973 141 229.719 140.671C229.616 140.558 229.529 140.432 229.462 140.295C229.502 140.266 229.913 140.763 230.689 141.436C231.698 142.326 232.833 143.062 234.056 143.622C235.286 144.172 236.59 144.536 237.926 144.701C238.931 144.838 239.576 144.815 239.576 144.866Z" fill="#263238"/>
<path d="M207.539 138.856C207.409 139.314 207.233 139.758 207.014 140.18C206.547 141.169 205.973 142.103 205.302 142.966C204.688 143.768 203.974 144.489 203.179 145.112C202.883 145.371 202.548 145.581 202.186 145.734C202.476 145.454 202.783 145.191 203.104 144.946C203.861 144.287 204.553 143.557 205.171 142.766C205.816 141.918 206.389 141.017 206.883 140.072C207.294 139.324 207.511 138.833 207.539 138.856Z" fill="#263238"/>
<path d="M215.142 55.2366C215.342 52.6625 216.505 50.2584 218.398 48.5028C220.291 46.7472 222.776 45.7687 225.358 45.7622H225.889C231.625 46.0818 234.558 51.1329 234.079 56.8575L232.835 74.659L222.613 85.2863L219.999 78.9339V74.7047C219.999 74.7047 214.485 73.86 214.4 68.3523C214.388 65.6869 214.754 60.1963 215.142 55.2366Z" fill="#FFBE9D"/>
<path d="M219.981 74.6988C222.54 74.7004 225.045 73.9696 227.201 72.5928C227.201 72.5928 225.489 76.588 220.01 76.08L219.981 74.6988Z" fill="#EB996E"/>
<path d="M216.614 59.8309C216.614 60.0349 216.693 60.2311 216.835 60.378C216.976 60.5249 217.169 60.6111 217.373 60.6185C217.473 60.6263 217.574 60.614 217.669 60.5825C217.764 60.551 217.852 60.5008 217.927 60.4349C218.003 60.369 218.064 60.2887 218.108 60.1987C218.152 60.1087 218.178 60.0108 218.184 59.9108C218.187 59.7054 218.109 59.507 217.967 59.3585C217.825 59.21 217.63 59.1234 217.425 59.1175C217.324 59.1097 217.223 59.1222 217.128 59.154C217.033 59.1859 216.944 59.2366 216.869 59.3031C216.793 59.3696 216.732 59.4506 216.688 59.5412C216.644 59.6319 216.619 59.7304 216.614 59.8309Z" fill="#263238"/>
<path d="M216.329 57.9302C216.432 58.033 217.025 57.5878 217.87 57.5878C218.715 57.5878 219.343 58.0101 219.434 57.9074C219.525 57.8047 219.377 57.6734 219.109 57.4793C218.743 57.2236 218.305 57.0898 217.859 57.097C217.418 57.0961 216.988 57.2361 216.632 57.4965C216.369 57.6962 216.283 57.8846 216.329 57.9302Z" fill="#263238"/>
<path d="M224.273 60.0365C224.273 60.242 224.353 60.4396 224.496 60.5876C224.638 60.7356 224.833 60.8224 225.038 60.8298C225.138 60.8368 225.239 60.8238 225.334 60.7916C225.429 60.7594 225.517 60.7087 225.592 60.6423C225.668 60.576 225.729 60.4953 225.773 60.405C225.817 60.3147 225.843 60.2166 225.849 60.1164C225.849 59.9108 225.769 59.7132 225.627 59.5653C225.484 59.4173 225.289 59.3304 225.084 59.323C224.984 59.3153 224.883 59.3277 224.787 59.3596C224.692 59.3915 224.604 59.4422 224.528 59.5087C224.453 59.5752 224.391 59.6562 224.347 59.7468C224.304 59.8375 224.278 59.9359 224.273 60.0365Z" fill="#263238"/>
<path d="M224.656 58.0616C224.759 58.1644 225.352 57.7249 226.197 57.7249C227.042 57.7249 227.669 58.1416 227.761 58.0388C227.852 57.9361 227.704 57.8105 227.435 57.6108C227.067 57.3598 226.631 57.2283 226.185 57.2341C225.744 57.2316 225.314 57.3717 224.958 57.6336C224.701 57.8333 224.61 58.016 224.656 58.0616Z" fill="#263238"/>
<path d="M221.602 64.357C221.156 64.2143 220.694 64.1318 220.226 64.1115C220.01 64.1115 219.804 64.0431 219.764 63.9004C219.747 63.676 219.797 63.4516 219.907 63.2554L220.546 61.606C221.425 59.2602 222.064 57.3311 221.967 57.2968C221.87 57.2626 221.083 59.1346 220.198 61.4804C219.987 62.0512 219.787 62.6219 219.593 63.1413C219.457 63.4029 219.419 63.7043 219.484 63.9917C219.516 64.0676 219.564 64.1353 219.625 64.1897C219.686 64.2442 219.759 64.2838 219.838 64.3056C219.958 64.3372 220.08 64.3544 220.204 64.357C220.668 64.4148 221.138 64.4148 221.602 64.357Z" fill="#263238"/>
<path d="M224.096 64.9332C223.959 64.9332 223.959 65.8464 223.172 66.497C222.384 67.1477 221.408 67.0678 221.402 67.1876C221.397 67.3075 221.619 67.3646 222.036 67.3703C222.575 67.381 223.1 67.1965 223.514 66.8509C223.914 66.5233 224.17 66.0521 224.228 65.5382C224.273 65.1729 224.159 64.9275 224.096 64.9332Z" fill="#263238"/>
<path d="M224.433 54.7458C224.513 54.9741 225.358 54.86 226.357 54.9798C227.355 55.0997 228.154 55.3679 228.286 55.1568C228.343 55.0597 228.2 54.8429 227.88 54.6203C227.447 54.3478 226.956 54.1779 226.447 54.1235C225.938 54.0691 225.423 54.1317 224.941 54.3064C224.576 54.4548 224.393 54.6374 224.433 54.7458Z" fill="#263238"/>
<path d="M216.636 55.4703C216.785 55.6644 217.367 55.4703 218.069 55.4703C218.771 55.4703 219.365 55.5959 219.502 55.3961C219.564 55.2991 219.467 55.105 219.205 54.9224C218.864 54.7065 218.466 54.599 218.063 54.6142C217.652 54.6207 217.252 54.7564 216.922 55.0023C216.648 55.1849 216.568 55.379 216.636 55.4703Z" fill="#263238"/>
<path d="M213.098 50.4136C213.139 50.1607 213.272 49.9318 213.471 49.7699C213.669 49.608 213.921 49.5243 214.177 49.5347C213.909 49.4667 213.655 49.3507 213.429 49.1923C213.315 49.1039 213.228 48.9855 213.178 48.8504C213.127 48.7153 213.115 48.5689 213.144 48.4275C213.275 47.9994 213.817 47.8967 214.245 47.7597C214.808 47.5835 215.302 47.234 215.655 46.7609C216.163 46.0874 216.34 45.2199 216.768 44.4779C217.049 44.0067 217.432 43.6046 217.889 43.3014C218.347 42.9981 218.866 42.8014 219.41 42.7258C219.953 42.6502 220.507 42.6976 221.029 42.8646C221.552 43.0315 222.031 43.3137 222.43 43.6903C222.84 43.2433 223.351 42.9008 223.921 42.6912C224.49 42.4816 225.102 42.4109 225.704 42.4852C226.306 42.5594 226.882 42.7764 227.384 43.118C227.885 43.4596 228.298 43.9161 228.588 44.4494C229.314 44.1213 230.115 43.9948 230.907 44.083C231.699 44.1713 232.453 44.471 233.089 44.9509C233.726 45.4307 234.221 46.0729 234.524 46.8101C234.826 47.5473 234.925 48.3524 234.809 49.1409L231.442 51.3383C231.405 51.0812 231.315 50.8346 231.178 50.6144C231.04 50.3943 230.858 50.2055 230.643 50.0602C230.428 49.915 230.184 49.8165 229.929 49.7712C229.673 49.7259 229.411 49.7348 229.159 49.7972C228.131 50.1283 227.503 51.344 226.43 51.4581C225.591 51.5437 224.861 50.9159 224.045 50.7218C223.024 50.5775 221.988 50.8331 221.151 51.4353C220.326 52.034 219.426 52.5215 218.474 52.885C217.3 53.1514 216.071 53.0395 214.964 52.5654C214.476 52.4086 214.028 52.1477 213.652 51.8006C213.453 51.6319 213.299 51.4174 213.203 51.1757C213.106 50.934 213.07 50.6724 213.098 50.4136Z" fill="#263238"/>
<path d="M230.775 49.7632L215.057 50.1227C215.586 49.0564 216.37 48.137 217.34 47.446C219.382 45.865 221.87 44.9683 224.451 44.8833C227.014 44.8376 232.236 47.9539 234.097 49.7175C235.581 51.133 235.575 52.3601 235.575 52.3601C235.809 54.3976 234.673 56.7148 234.217 58.7124C233.988 59.7455 233.537 62.8675 233.537 62.8675C232.67 62.8675 232.35 62.1769 232.476 61.3208L232.636 57.9591C231.768 57.2695 231.15 56.3145 230.877 55.2404C230.604 54.1663 230.69 53.0322 231.123 52.0119C231.334 51.7037 231.814 50.3339 230.775 49.7632Z" fill="#263238"/>
<path d="M232.904 57.7021C233.628 54.894 234.273 51.8919 233.349 49.1409L233.811 49.1067L234.011 49.2436C234.45 49.0805 234.929 49.0618 235.379 49.1903C235.83 49.3188 236.227 49.5877 236.514 49.9578C236.8 50.3279 236.961 50.78 236.973 51.248C236.985 51.716 236.847 52.1756 236.579 52.5597C237.046 52.5414 237.503 52.6953 237.864 52.992C238.225 53.2887 238.464 53.7076 238.537 54.1692C238.556 54.8156 238.398 55.455 238.08 56.0184C237.764 56.5803 237.578 57.2067 237.538 57.8505C237.527 58.1729 237.629 58.4891 237.827 58.7436C238.026 58.9982 238.307 59.175 238.623 59.2431C238.478 59.5735 238.225 59.8444 237.905 60.0106C237.585 60.1768 237.218 60.2282 236.865 60.1563C237.112 60.6981 237.508 61.159 238.006 61.4861C237.002 62.2109 235.592 62.0169 234.462 61.4861C233.766 61.2289 233.189 60.7252 232.841 60.0707C232.609 59.2946 232.631 58.4647 232.904 57.7021Z" fill="#263238"/>
<path d="M233.252 60.9383C233.349 60.8983 237.041 59.7968 236.927 63.5751C236.813 67.3534 233.058 66.4574 233.052 66.3489C233.046 66.2405 233.252 60.9383 233.252 60.9383Z" fill="#FFBE9D"/>
<path d="M233.914 64.9563C233.914 64.9563 233.983 65.0019 234.091 65.059C234.249 65.1219 234.424 65.1219 234.582 65.059C234.829 64.9099 235.032 64.6985 235.171 64.4461C235.31 64.1936 235.381 63.909 235.375 63.6207C235.392 63.2989 235.338 62.9772 235.215 62.679C235.185 62.5604 235.125 62.4512 235.043 62.3607C234.96 62.2702 234.857 62.2012 234.742 62.1596C234.667 62.1374 234.587 62.1418 234.515 62.1719C234.443 62.2021 234.384 62.2563 234.348 62.3251C234.291 62.4336 234.314 62.5078 234.296 62.5135C234.279 62.5192 234.217 62.445 234.251 62.2909C234.273 62.1989 234.328 62.118 234.405 62.0626C234.457 62.0239 234.516 61.9963 234.579 61.9816C234.641 61.9669 234.707 61.9653 234.77 61.977C234.924 62.012 235.066 62.086 235.183 62.192C235.3 62.298 235.388 62.4323 235.438 62.582C235.591 62.9118 235.66 63.2748 235.638 63.6379C235.645 63.9734 235.554 64.3037 235.376 64.5878C235.197 64.8719 234.939 65.0973 234.633 65.2359C234.535 65.2585 234.434 65.2599 234.335 65.2402C234.237 65.2206 234.144 65.1802 234.062 65.1218C233.92 65.0476 233.903 64.962 233.914 64.9563Z" fill="#EB996E"/>
<path d="M237.07 57.702C237.07 57.702 237.173 57.5593 237.127 57.2625C237.084 57.0584 236.996 56.8665 236.87 56.7007C236.744 56.5348 236.582 56.3992 236.397 56.3036C235.857 56.0663 235.274 55.942 234.684 55.9384C234.349 55.9485 234.017 55.8787 233.714 55.7348C233.411 55.5909 233.147 55.377 232.944 55.1108C232.613 54.5129 232.489 53.823 232.59 53.1474C232.664 52.5139 232.812 51.9317 232.881 51.4352C233.017 50.9037 232.993 50.3437 232.812 49.8257C232.826 50.354 232.782 50.8822 232.681 51.4009C232.584 51.8861 232.413 52.4454 232.321 53.1132C232.198 53.8542 232.331 54.6153 232.698 55.2706C232.917 55.6072 233.24 55.8635 233.617 56.0011C233.954 56.1176 234.306 56.1849 234.662 56.2009C235.23 56.1896 235.795 56.2845 236.328 56.4806C236.495 56.5605 236.643 56.6728 236.766 56.811C236.888 56.9492 236.982 57.1104 237.041 57.2853C237.064 57.423 237.073 57.5625 237.07 57.702Z" fill="#455A64"/>
<path d="M237.932 56.041C237.932 56.041 238.012 55.9325 238.04 55.6985C238.059 55.4142 238.007 55.1296 237.889 54.8704C237.77 54.6113 237.589 54.3859 237.361 54.2146C237.143 54.0581 236.894 53.9492 236.63 53.895C236.376 53.8499 236.132 53.757 235.911 53.621C235.812 53.5384 235.733 53.4344 235.679 53.3168C235.626 53.1991 235.6 53.071 235.603 52.9418C235.603 52.6565 235.603 52.3711 235.603 52.0515C235.572 51.2752 235.331 50.5218 234.907 49.8712C234.818 49.7228 234.694 49.5987 234.546 49.51C234.397 49.4214 234.229 49.371 234.056 49.3633C233.811 49.3633 233.708 49.4888 233.72 49.4946C233.731 49.5003 233.845 49.4489 234.051 49.4946C234.196 49.5202 234.334 49.5795 234.453 49.6677C234.572 49.7558 234.669 49.8705 234.736 50.0025C234.962 50.3989 235.126 50.8284 235.221 51.2753C235.28 51.5396 235.312 51.8092 235.318 52.08C235.318 52.354 235.318 52.6508 235.318 52.9761C235.316 53.1476 235.353 53.3172 235.427 53.4723C235.5 53.6275 235.607 53.7641 235.74 53.8722C235.996 54.0257 236.279 54.1284 236.573 54.1747C236.791 54.2061 237 54.2834 237.186 54.4014C237.372 54.5195 237.531 54.6756 237.652 54.8595C237.864 55.2155 237.961 55.6278 237.932 56.041Z" fill="#455A64"/>
<path d="M215.633 46.744C215.633 46.744 215.918 46.938 216.409 46.6926C216.68 46.5361 216.916 46.3241 217.1 46.0705C217.33 45.7509 217.618 45.4778 217.95 45.2657C218.386 45.0079 218.887 44.8809 219.393 44.9002C219.899 44.9194 220.389 45.084 220.804 45.3742C221.277 45.6995 221.7 46.1618 222.253 46.5157C222.538 46.7186 222.863 46.8586 223.207 46.9266C223.57 46.9759 223.94 46.9287 224.28 46.7896C224.947 46.5271 225.472 46.099 226.049 45.8707C226.606 45.6362 227.203 45.5103 227.807 45.4997C228.841 45.4727 229.855 45.7899 230.689 46.4015C231.252 46.813 231.724 47.3355 232.076 47.9368C232.327 48.3706 232.418 48.6331 232.441 48.6217C232.464 48.6103 232.441 48.5532 232.396 48.4219C232.338 48.2376 232.265 48.0582 232.179 47.8854C231.851 47.2403 231.383 46.6768 230.809 46.236C229.951 45.5709 228.892 45.2167 227.807 45.2315C227.167 45.2337 226.533 45.3596 225.94 45.6025C225.318 45.8536 224.799 46.2816 224.171 46.5157C223.882 46.6393 223.564 46.6808 223.252 46.6355C222.95 46.5774 222.664 46.4547 222.413 46.2759C221.9 45.9278 221.466 45.4712 220.952 45.1345C220.468 44.7947 219.888 44.6205 219.297 44.6379C218.784 44.653 218.284 44.8026 217.847 45.0717C217.502 45.303 217.207 45.602 216.98 45.9506C216.816 46.1992 216.605 46.4126 216.358 46.5784C216.143 46.7159 215.886 46.7745 215.633 46.744Z" fill="#455A64"/>
<path d="M193.545 96.6953L174.042 81.2852L171.263 78.3686C171.263 78.3686 164.619 72.1647 164.06 71.4855C163.409 70.7035 162.873 70.8291 162.604 71.0859C162.176 71.4912 162.319 72.3131 162.856 72.9979C163.044 73.2377 166.12 76.8733 166.12 76.8733C165.62 76.7074 165.109 76.5759 164.591 76.4795C163.478 76.2455 161.88 76.9132 160.595 78.0376C159.311 79.162 159.072 79.5957 159.488 80.1094C159.571 80.2022 159.673 80.2754 159.788 80.3237C159.902 80.3721 160.026 80.3944 160.15 80.3891C160.56 80.3917 160.956 80.2434 161.263 79.9724C163.318 78.1917 164.813 78.8309 164.813 78.8309L165.179 79.2134C165.179 79.2134 163.152 79.3675 162.456 80.5946C162.354 80.77 162.288 80.964 162.262 81.1653C161.979 81.4049 161.762 81.7143 161.635 82.063C161.508 82.4116 161.473 82.7874 161.536 83.1534C161.598 83.5193 161.755 83.8627 161.99 84.1496C162.225 84.4365 162.532 84.6571 162.878 84.7895C163.039 84.8703 163.221 84.9005 163.399 84.876C163.577 84.8516 163.744 84.7737 163.877 84.6526C163.979 84.4904 164.042 84.3067 164.06 84.116C164.074 84.0172 164.097 83.9197 164.128 83.825L165.298 84.7496C165.298 84.7496 168.032 86.6901 169.128 87.6718L185.463 105.428C186 106.011 186.648 106.481 187.369 106.812C188.09 107.142 188.869 107.326 189.662 107.352C190.455 107.378 191.244 107.246 191.985 106.963C192.726 106.681 193.404 106.254 193.978 105.707C194.596 105.116 195.08 104.399 195.397 103.604C195.714 102.81 195.857 101.957 195.816 101.102C195.775 100.248 195.551 99.4125 195.159 98.6522C194.767 97.8918 194.216 97.2245 193.545 96.6953Z" fill="#FFBE9D"/>
<path d="M173.232 81.5361C173.057 81.7272 172.826 81.8589 172.573 81.9131C172.319 81.9673 172.055 81.9413 171.817 81.8386C171.326 81.6731 170.909 81.3421 170.43 81.1423C169.009 80.5373 167.268 81.1423 165.864 80.4574C165.664 80.3661 165.459 80.1892 165.504 79.978C165.55 79.7668 165.79 79.7097 165.984 79.6755L171.024 78.7109" fill="#FFBE9D"/>
<path d="M171.035 78.7112C170.844 78.6997 170.652 78.7151 170.464 78.7569C170.111 78.8082 169.603 78.8881 168.975 78.9966L166.76 79.3904L166.127 79.5045C165.859 79.5129 165.605 79.6255 165.419 79.8185C165.37 79.8898 165.344 79.9744 165.344 80.061C165.344 80.1476 165.37 80.2322 165.419 80.3036C165.503 80.4172 165.612 80.5092 165.739 80.5718C165.967 80.68 166.206 80.7641 166.452 80.823C167.366 80.9465 168.287 81.0075 169.209 81.0056C169.6 81.0284 169.985 81.1112 170.35 81.251C170.666 81.3909 170.975 81.5471 171.275 81.719C171.498 81.8595 171.749 81.9497 172.01 81.9832C172.271 82.0167 172.536 81.9928 172.787 81.9131C173.147 81.759 173.221 81.5307 173.21 81.5364C173.073 81.6497 172.919 81.7403 172.753 81.8046C172.517 81.8585 172.272 81.8625 172.034 81.8163C171.796 81.7701 171.571 81.6748 171.372 81.5364C171.073 81.3503 170.765 81.1807 170.447 81.0284C170.066 80.8676 169.661 80.7693 169.249 80.7374C168.34 80.7253 167.433 80.6586 166.532 80.5376C166.31 80.4858 166.094 80.4113 165.887 80.315C165.699 80.218 165.579 80.0582 165.653 79.9726C165.727 79.8869 165.95 79.8185 166.167 79.7785L166.8 79.6529L168.998 79.2021C169.625 79.0651 170.139 78.9566 170.476 78.871C170.668 78.8405 170.856 78.7868 171.035 78.7112Z" fill="#EB996E"/>
<path d="M165.253 79.1964C165.018 78.9696 164.735 78.798 164.425 78.6942C164.086 78.608 163.728 78.632 163.404 78.7626C163.002 78.9316 162.629 79.1606 162.296 79.4418C161.955 79.7359 161.584 79.9941 161.189 80.2123C160.856 80.3945 160.479 80.4832 160.099 80.4692C159.969 80.463 159.842 80.4269 159.728 80.3635C159.614 80.3001 159.517 80.2113 159.443 80.1039C159.385 80.028 159.351 79.9366 159.346 79.8414C159.346 79.8414 159.397 79.927 159.5 80.0582C159.575 80.1461 159.669 80.2166 159.775 80.2648C159.88 80.3131 159.995 80.338 160.11 80.3379C160.462 80.3311 160.806 80.2349 161.109 80.0582C161.489 79.8364 161.849 79.5804 162.182 79.2934C162.524 79.0027 162.909 78.7677 163.324 78.5971C163.69 78.4573 164.093 78.4472 164.465 78.5686C164.706 78.6481 164.923 78.7852 165.099 78.9681C165.224 79.1051 165.264 79.1907 165.253 79.1964Z" fill="#EB996E"/>
<path d="M162.633 72.73C162.859 72.9509 163.066 73.1915 163.249 73.4491L164.687 75.2184L166.154 76.9649C166.364 77.1968 166.555 77.4449 166.725 77.7069C166.472 77.5154 166.241 77.2973 166.034 77.0562C165.629 76.6282 165.093 76.0289 164.522 75.344C163.951 74.6591 163.46 74.0141 163.118 73.5347C162.926 73.2862 162.763 73.0161 162.633 72.73Z" fill="#EB996E"/>
<path d="M165.116 80.7144C165.027 80.7549 164.933 80.7856 164.837 80.8057C164.716 80.8358 164.602 80.891 164.504 80.9677C164.406 81.0444 164.325 81.1409 164.266 81.2509C164.236 81.3269 164.226 81.4093 164.237 81.4902C164.248 81.5711 164.28 81.6479 164.329 81.7132C164.455 81.875 164.598 82.0224 164.757 82.1527C164.962 82.3149 165.102 82.546 165.151 82.8033C165.159 82.945 165.135 83.0868 165.079 83.2176C165.024 83.3483 164.939 83.4644 164.831 83.5567C164.724 83.6459 164.6 83.7122 164.467 83.7515C164.333 83.7907 164.193 83.8021 164.055 83.785C163.799 83.7622 163.556 83.6628 163.358 83.4996C163.059 83.2227 162.801 82.9036 162.594 82.5522C162.447 82.3179 162.339 82.0616 162.274 81.7931C162.24 81.599 162.274 81.4906 162.274 81.4906C162.274 81.4906 162.274 81.599 162.342 81.776C162.428 82.0262 162.549 82.2627 162.702 82.478C162.914 82.8076 163.169 83.1071 163.461 83.3684C163.634 83.5115 163.849 83.5937 164.073 83.6019C164.297 83.6102 164.517 83.5441 164.7 83.414C164.783 83.3447 164.85 83.2572 164.894 83.1583C164.939 83.0594 164.96 82.9517 164.957 82.8433C164.918 82.6305 164.802 82.4395 164.631 82.3068C164.464 82.1628 164.316 81.9978 164.192 81.8159C164.131 81.7294 164.094 81.6284 164.085 81.5232C164.076 81.418 164.095 81.3122 164.14 81.2166C164.21 81.0916 164.309 80.985 164.428 80.9056C164.547 80.8262 164.683 80.7763 164.825 80.76C164.918 80.7262 165.017 80.7107 165.116 80.7144Z" fill="#EB996E"/>
<path d="M164.003 83.6251C164.003 83.6251 164.094 83.6765 164.157 83.8477C164.195 83.9701 164.205 84.0996 164.185 84.2262C164.165 84.3529 164.117 84.4733 164.043 84.5782C163.925 84.7296 163.77 84.8476 163.593 84.9207C163.416 84.9937 163.223 85.0193 163.033 84.9949C162.582 84.9269 162.174 84.6902 161.891 84.3328C161.6 83.982 161.424 83.5492 161.389 83.0943C161.369 82.7871 161.418 82.4793 161.531 82.1931C161.645 81.9069 161.82 81.6494 162.045 81.4392C162.177 81.325 162.262 81.2793 162.268 81.2908C162.05 81.5257 161.867 81.791 161.726 82.0784C161.575 82.4271 161.525 82.8106 161.579 83.1864C161.633 83.5622 161.791 83.9155 162.034 84.2073C162.292 84.5346 162.662 84.7543 163.073 84.8237C163.235 84.847 163.4 84.8295 163.554 84.7727C163.707 84.7159 163.844 84.6216 163.952 84.4983C164.02 84.4094 164.069 84.3069 164.094 84.1976C164.12 84.0884 164.122 83.9749 164.1 83.8648C164.049 83.7107 163.992 83.6308 164.003 83.6251Z" fill="#EB996E"/>
<path d="M168.563 83.9734C168.563 83.9734 168.661 83.825 168.917 83.6823C169.269 83.5034 169.67 83.4433 170.059 83.5111L169.962 83.6481C169.843 83.4637 169.735 83.2732 169.636 83.0773C169.265 82.4211 169.087 81.6731 169.123 80.9199C169.277 81.6329 169.506 82.3274 169.808 82.9917C169.905 83.1858 170.013 83.3684 170.116 83.5339L170.23 83.7166L170.025 83.6709C169.667 83.5999 169.296 83.6336 168.957 83.7679C168.712 83.8878 168.581 84.0077 168.563 83.9734Z" fill="#EB996E"/>
<path d="M163.301 77.7979C163.352 77.7979 163.432 78.1631 163.221 78.5684C163.01 78.9736 162.65 79.1391 162.65 79.0934C162.65 79.0478 162.879 78.8423 163.056 78.4828C163.233 78.1232 163.25 77.7979 163.301 77.7979Z" fill="#EB996E"/>
<path d="M192.661 106.946L203.921 99.1494C203.921 99.1494 202.934 129.342 202.934 129.621C202.934 129.621 200.874 130.438 201.222 132.595L201.793 135.637C214.195 138.491 226.483 140.334 238.988 135.728L240.409 111.677L244.821 82.2953L234.759 78.0147L233.047 74.0195L222.625 85.2461L219.959 77.9976L220.034 75.2638L217.511 78.0033L205.297 80.0124L190.081 92.3461L185.093 88.311L177.564 98.767L186.126 107.408C188.294 107.993 190.596 107.83 192.661 106.946Z" fill="#751B74"/>
<path d="M221.095 83.9166C220.768 84.1013 220.512 84.388 220.364 84.7327C220.208 85.1287 220.133 85.5516 220.141 85.977C220.169 86.5577 220.088 87.1385 219.902 87.6892L219.776 87.986L219.651 87.6892C219.313 86.8414 219.045 85.9671 218.852 85.0752C218.423 83.226 218.15 81.5309 217.961 80.3038C217.836 79.6449 217.765 78.9767 217.75 78.3062C217.932 78.951 218.073 79.6068 218.172 80.2695C218.406 81.4852 218.715 83.1689 219.143 85.0067C219.331 85.8825 219.585 86.7429 219.902 87.5808H219.651C219.827 87.0685 219.916 86.5302 219.913 85.9884C219.92 85.538 220.023 85.0942 220.216 84.6871C220.333 84.4159 220.533 84.1884 220.786 84.0364C220.98 83.9109 221.089 83.9052 221.095 83.9166Z" fill="#263238"/>
<path d="M234.193 79.4019C234.101 79.5818 233.986 79.7488 233.85 79.8984C233.61 80.2066 233.279 80.6461 232.823 81.1826C231.944 82.2556 230.722 83.7224 229.353 85.3319L227.172 87.8774L227.007 88.0715L226.944 87.8203C226.63 86.5818 226.373 85.5374 226.213 84.7954C226.145 84.4301 225.94 84.2247 225.74 84.2247C225.642 84.2196 225.546 84.2478 225.466 84.3046C225.466 84.3046 225.506 84.1562 225.74 84.139C225.81 84.1384 225.879 84.1516 225.944 84.1781C226.008 84.2046 226.067 84.2437 226.116 84.2931C226.237 84.4289 226.323 84.5913 226.368 84.7669C226.579 85.4974 226.87 86.5305 227.201 87.769L226.973 87.7119L229.124 85.1493C230.494 83.5398 231.744 82.0958 232.663 81.057C233.12 80.5376 233.496 80.121 233.759 79.8356C233.885 79.6739 234.031 79.5283 234.193 79.4019Z" fill="#263238"/>
<path d="M219.137 126.665C219.112 126.537 219.102 126.407 219.108 126.277C219.108 125.997 219.108 125.632 219.108 125.181C219.108 124.228 219.108 122.847 219.108 121.14C219.148 117.716 219.308 113.019 219.679 107.831C220.05 102.643 220.609 97.951 221.077 94.5722C221.311 92.86 221.517 91.5187 221.677 90.577L221.859 89.4983C221.881 89.3714 221.91 89.2456 221.945 89.1216C221.961 89.2485 221.961 89.377 221.945 89.504C221.911 89.7836 221.865 90.1489 221.814 90.5941C221.688 91.5758 221.517 92.9341 221.306 94.5893C220.895 97.9738 220.387 102.654 219.999 107.842C219.611 113.03 219.428 117.727 219.319 121.135C219.279 122.813 219.251 124.182 219.228 125.17C219.228 125.623 219.217 125.988 219.194 126.266C219.184 126.4 219.165 126.533 219.137 126.665Z" fill="#263238"/>
<path d="M216.283 133.594C216.033 132.774 215.944 131.914 216.021 131.06C215.991 130.207 216.079 129.354 216.283 128.526C216.364 129.371 216.364 130.221 216.283 131.066C216.249 132.458 216.341 133.583 216.283 133.594Z" fill="#263238"/>
<path d="M230.757 125.29C230.465 125.43 230.162 125.545 229.85 125.632C229.279 125.837 228.389 126.111 227.316 126.425C224.51 127.234 221.664 127.895 218.789 128.406C215.915 128.914 213.018 129.274 210.108 129.485C208.966 129.559 208.081 129.604 207.454 129.616C207.131 129.643 206.806 129.643 206.483 129.616C206.801 129.553 207.124 129.517 207.448 129.507L210.091 129.285C212.311 129.079 215.381 128.714 218.737 128.143C222.093 127.573 225.101 126.813 227.259 126.243L229.815 125.546C230.123 125.439 230.438 125.353 230.757 125.29Z" fill="#263238"/>
<path d="M203.887 106.067C203.807 106.067 203.756 101.866 203.773 96.6898C203.79 91.5132 203.876 87.3125 203.955 87.3125C204.035 87.3125 204.087 91.5132 204.07 96.6898C204.053 101.866 203.973 106.067 203.887 106.067Z" fill="#263238"/>
<g opacity="0.3">
<path d="M223.595 86.2562C223.903 86.2451 224.206 86.3382 224.454 86.5205C224.703 86.7028 224.883 86.9636 224.965 87.2607C225.079 87.8714 224.993 88.5163 225.153 89.1213C225.313 89.7263 225.867 90.3142 226.477 90.1886C226.841 90.0687 227.15 89.8241 227.351 89.498C228.549 87.8753 229.51 86.0899 230.204 84.1958C230.204 84.2415 227.042 87.8257 227.042 87.8257C226.925 86.9192 226.687 86.0324 226.335 85.1889C226.232 84.9149 226.106 84.4469 225.844 84.3271C225.416 84.1273 224.845 84.7551 224.56 85.1375C224.268 85.5242 223.937 85.8799 223.572 86.1991" fill="black"/>
</g>
<g opacity="0.3">
<path d="M218.44 82.9977C218.497 85.0046 218.883 86.9885 219.582 88.8706C219.643 89.0622 219.748 89.2364 219.89 89.3786C219.963 89.4537 220.058 89.5029 220.161 89.5183C220.264 89.5338 220.37 89.5148 220.461 89.4642C220.691 89.0789 220.882 88.6717 221.032 88.2485C221.323 87.4323 222.51 87.3581 222.51 87.3581C222.312 86.4363 222.052 85.5287 221.734 84.6414C221.676 84.4951 221.574 84.3706 221.442 84.2855C221.31 84.2005 221.154 84.1592 220.997 84.1677C220.792 84.2363 220.608 84.3588 220.465 84.5224C220.323 84.686 220.227 84.8847 220.187 85.098C220.01 86.5591 220.033 87.2326 219.816 87.7463C219.245 86.1824 218.811 84.3218 218.446 82.9463" fill="black"/>
</g>
<g opacity="0.3">
<path d="M227.196 126.243C227.331 126.146 227.445 126.023 227.533 125.882C227.62 125.74 227.678 125.583 227.703 125.419C227.729 125.254 227.721 125.087 227.681 124.925C227.641 124.764 227.569 124.613 227.47 124.479C227.258 124.22 226.981 124.021 226.667 123.903C226.353 123.785 226.014 123.751 225.683 123.806C225.024 123.921 224.404 124.199 223.88 124.616C223.338 125.01 222.841 125.455 222.27 125.803C220.872 126.665 219.171 126.859 217.527 126.888C215.886 126.82 214.242 126.892 212.613 127.105C211.004 127.419 209.394 128.246 208.618 129.696C208.612 129.667 222.647 128.669 227.196 126.243Z" fill="black"/>
</g>
<path d="M244.821 82.2954C244.821 82.2954 249.067 85.3204 250.094 88.0599C251.122 90.7995 254.917 109.617 255.534 112.83C256.315 116.871 256.338 121.871 250.522 123.771C248.359 124.473 235.112 123.395 235.112 123.395L235.546 113.983L242.698 114.251C242.698 114.251 242.269 113.618 243.297 112.853L241.014 100.611C241.014 100.611 241.853 87.609 241.956 87.3008C242.058 86.9926 244.821 82.2954 244.821 82.2954Z" fill="#751B74"/>
<path d="M245.048 82.6206C243.792 83.1376 242.658 83.9128 241.72 84.896C240.782 85.8792 240.061 87.0485 239.604 88.3281C239.634 87.9317 239.739 87.5446 239.912 87.1866C240.669 85.3413 242.096 83.8508 243.907 83.0144C244.261 82.8157 244.647 82.6823 245.048 82.6206Z" fill="#263238"/>
<path d="M247.366 116.158C247.32 116.158 247.223 115.844 246.938 115.405C246.558 114.834 246.062 114.349 245.482 113.983C244.914 113.602 244.269 113.347 243.593 113.236C243.074 113.162 242.743 113.236 242.731 113.173C243.004 113.034 243.314 112.984 243.616 113.03C244.343 113.084 245.043 113.326 245.648 113.732C246.263 114.121 246.77 114.659 247.12 115.296C247.285 115.553 247.371 115.853 247.366 116.158Z" fill="#263238"/>
<path d="M239.684 93.1738C239.771 93.4187 239.836 93.6708 239.878 93.9272C239.998 94.498 240.14 95.1771 240.317 96.0104C240.671 97.774 241.139 100.211 241.636 102.905C242.132 105.599 242.572 108.042 242.874 109.817C243.011 110.661 243.125 111.363 243.211 111.917C243.267 112.172 243.295 112.432 243.296 112.693C243.209 112.448 243.142 112.196 243.097 111.94C242.983 111.369 242.84 110.69 242.663 109.857C242.309 108.093 241.841 105.656 241.344 102.962C240.848 100.268 240.408 97.8254 240.106 96.0504C239.969 95.2057 239.855 94.5037 239.769 93.95C239.713 93.695 239.685 93.4349 239.684 93.1738Z" fill="#263238"/>
<path d="M235.117 123.389C235.095 123.146 235.095 122.901 235.117 122.658C235.117 122.139 235.117 121.471 235.163 120.666C235.214 118.954 235.3 116.62 235.42 113.966V113.823H235.568L236.744 113.869L242.714 114.126H242.754L242.782 114.154C243.671 114.878 244.347 115.829 244.74 116.905C244.845 117.203 244.927 117.508 244.985 117.818C245.013 117.927 245.022 118.038 245.014 118.149C244.98 118.149 244.911 117.699 244.609 116.957C244.183 115.93 243.501 115.03 242.628 114.343L242.703 114.371L236.733 114.166L235.557 114.114L235.705 113.977C235.585 116.626 235.46 118.983 235.357 120.666C235.3 121.471 235.254 122.139 235.22 122.658C235.213 122.905 235.179 123.15 235.117 123.389Z" fill="#263238"/>
<path d="M224.667 112.009L219.137 100.719C218.952 100.344 218.666 100.028 218.311 99.8069C217.956 99.586 217.546 99.469 217.128 99.4692H203.196C203.078 99.4687 202.962 99.499 202.859 99.5571C202.756 99.6151 202.67 99.699 202.61 99.8005C202.549 99.9019 202.516 100.017 202.514 100.135C202.512 100.253 202.54 100.37 202.597 100.474L212.014 118.064C212.145 118.305 212.339 118.507 212.575 118.648C212.811 118.788 213.08 118.863 213.355 118.863H227.789L224.667 112.009Z" fill="#455A64"/>
<path d="M202.688 100.559H202.968H203.761H206.695L216.358 100.479C216.805 100.475 217.246 100.581 217.642 100.787C218.007 101.02 218.303 101.348 218.498 101.735C218.903 102.505 219.24 103.31 219.594 104.018L221.443 107.956L222.704 110.599C222.847 110.89 222.967 111.124 223.064 111.312C223.099 111.397 223.145 111.478 223.201 111.552C223.183 111.46 223.152 111.372 223.11 111.289C223.03 111.095 222.921 110.855 222.796 110.559C222.505 109.891 222.099 108.983 221.609 107.876C221.118 106.769 220.467 105.399 219.811 103.921C219.463 103.173 219.137 102.391 218.721 101.586C218.506 101.159 218.178 100.798 217.773 100.542C217.341 100.312 216.859 100.192 216.369 100.194C212.579 100.194 209.172 100.302 206.667 100.354L203.739 100.434L202.94 100.468C202.852 100.486 202.767 100.516 202.688 100.559Z" fill="#263238"/>
<path d="M211.266 103.031C211.2 103.055 211.14 103.095 211.092 103.146C211.044 103.197 211.008 103.259 210.987 103.326C210.967 103.394 210.962 103.465 210.974 103.535C210.986 103.604 211.013 103.67 211.055 103.727C211.131 103.846 211.244 103.938 211.377 103.988C211.509 104.039 211.655 104.045 211.791 104.007C211.883 103.986 211.967 103.941 212.035 103.875C212.102 103.81 212.15 103.727 212.173 103.636C212.182 103.498 212.146 103.36 212.07 103.245C211.994 103.13 211.882 103.042 211.751 102.996C211.589 102.968 211.422 102.98 211.266 103.031Z" fill="white"/>
<path d="M235.398 114.366L231.939 114.029C231.939 114.029 230.369 112.248 229.753 111.712C229.137 111.175 225.609 109.429 225.609 109.429C225.609 109.429 223.777 107.483 223.538 107.511C223.298 107.54 222.545 107.774 222.87 108.738C223.179 109.697 223.584 110.623 224.08 111.501L217.111 112.494C216.893 112.521 216.684 112.596 216.499 112.713C216.313 112.831 216.156 112.988 216.038 113.173C215.884 113.43 215.838 113.698 216.186 113.818C217.447 114.108 218.724 114.326 220.01 114.468L218.641 114.286C218.641 114.286 218.509 115.587 219.423 116.089C219.773 116.246 220.102 116.45 220.399 116.694C220.48 117.276 220.686 117.833 221.004 118.327C221.426 118.766 225.604 120.319 225.604 120.319C225.604 120.319 228.212 120.764 229.473 120.547L235.124 121.409L235.398 114.366Z" fill="#FFBE9D"/>
<path d="M223.406 111.626C224.069 111.672 224.735 111.672 225.398 111.626C226.064 111.667 226.732 111.619 227.384 111.483C226.727 111.37 226.058 111.333 225.392 111.375C224.721 111.339 224.048 111.424 223.406 111.626Z" fill="#EB996E"/>
<path d="M224.713 114.611C223.754 114.388 222.769 114.3 221.785 114.348C220.975 114.348 220.244 114.348 219.714 114.348C219.428 114.329 219.141 114.34 218.857 114.383C219.13 114.482 219.418 114.528 219.708 114.52C220.244 114.56 220.975 114.577 221.785 114.582C223.401 114.588 224.702 114.674 224.713 114.611Z" fill="#EB996E"/>
<path d="M224.988 116.9C224.988 116.826 223.96 116.9 222.705 116.849C221.449 116.797 220.422 116.597 220.422 116.672C221.15 116.954 221.924 117.099 222.705 117.1C223.472 117.177 224.246 117.11 224.988 116.9Z" fill="#EB996E"/>
<path d="M224.873 119.508C224.942 119.508 225.01 119.229 225.027 118.869C225.044 118.509 224.999 118.224 224.93 118.218C224.862 118.213 224.793 118.504 224.776 118.858C224.759 119.211 224.805 119.508 224.873 119.508Z" fill="#EB996E"/>
<path d="M225.129 116.369C225.198 116.369 225.209 116.123 225.301 115.866C225.392 115.61 225.523 115.427 225.478 115.37C225.432 115.313 225.175 115.461 225.067 115.787C224.958 116.112 225.067 116.386 225.129 116.369Z" fill="#EB996E"/>
<path d="M225.558 113.202C225.632 113.202 225.684 113.047 225.747 112.871C225.809 112.694 225.866 112.539 225.815 112.494C225.764 112.448 225.592 112.562 225.513 112.785C225.433 113.007 225.49 113.207 225.558 113.202Z" fill="#EB996E"/>
<path d="M177.919 70.3575C177.53 70.3575 177.171 70.2805 176.841 70.1265C176.518 69.9652 176.24 69.7488 176.005 69.4775C175.77 69.1988 175.587 68.8835 175.455 68.5315C175.33 68.1795 175.268 67.8128 175.268 67.4315C175.268 67.0282 175.33 66.6468 175.455 66.2875C175.587 65.9282 175.77 65.6128 176.005 65.3415C176.247 65.0628 176.529 64.8465 176.852 64.6925C177.175 64.5312 177.534 64.4505 177.93 64.4505C178.407 64.4505 178.821 64.5678 179.173 64.8025C179.532 65.0372 179.833 65.3342 180.075 65.6935V64.5495H180.933V70.2255C180.933 70.7682 180.801 71.2265 180.537 71.6005C180.28 71.9745 179.928 72.2568 179.481 72.4475C179.041 72.6455 178.55 72.7445 178.007 72.7445C177.362 72.7445 176.834 72.6308 176.423 72.4035C176.012 72.1762 175.671 71.8682 175.4 71.4795L175.961 70.9845C176.188 71.3218 176.482 71.5748 176.841 71.7435C177.208 71.9122 177.596 71.9965 178.007 71.9965C178.359 71.9965 178.682 71.9305 178.975 71.7985C179.276 71.6738 179.514 71.4795 179.69 71.2155C179.873 70.9515 179.965 70.6215 179.965 70.2255V69.2135C179.752 69.5655 179.459 69.8442 179.085 70.0495C178.718 70.2548 178.33 70.3575 177.919 70.3575ZM178.216 69.5655C178.421 69.5655 178.619 69.5288 178.81 69.4555C179.001 69.3822 179.177 69.2868 179.338 69.1695C179.499 69.0448 179.635 68.9055 179.745 68.7515C179.855 68.5975 179.928 68.4398 179.965 68.2785V66.6285C179.862 66.3645 179.716 66.1335 179.525 65.9355C179.334 65.7302 179.118 65.5725 178.876 65.4625C178.634 65.3452 178.385 65.2865 178.128 65.2865C177.835 65.2865 177.571 65.3488 177.336 65.4735C177.109 65.5982 176.914 65.7668 176.753 65.9795C176.592 66.1848 176.467 66.4158 176.379 66.6725C176.291 66.9292 176.247 67.1895 176.247 67.4535C176.247 67.7395 176.298 68.0108 176.401 68.2675C176.504 68.5168 176.643 68.7405 176.819 68.9385C176.995 69.1365 177.204 69.2905 177.446 69.4005C177.688 69.5105 177.945 69.5655 178.216 69.5655Z" fill="white"/>
</svg>
