<svg width="547" height="468" viewBox="0 0 547 468" fill="none" xmlns="http://www.w3.org/2000/svg">
<path d="M546.221 357.666H0V357.939H546.221V357.666Z" fill="#EBEBEB"/>
<path d="M491.49 375.243H455.309V375.516H491.49V375.243Z" fill="#EBEBEB"/>
<path d="M361.839 378.214H352.346V378.487H361.839V378.214Z" fill="#EBEBEB"/>
<path d="M454.214 365.105H433.25V365.378H454.214V365.105Z" fill="#EBEBEB"/>
<path d="M104.491 366.94H57.3086V367.214H104.491V366.94Z" fill="#EBEBEB"/>
<path d="M121.142 366.94H114.227V367.214H121.142V366.94Z" fill="#EBEBEB"/>
<path d="M245.965 371.55H143.625V371.823H245.965V371.55Z" fill="#EBEBEB"/>
<path d="M258.911 308.942H47.9711C46.3186 308.94 44.7348 308.281 43.5673 307.112C42.3998 305.942 41.7441 304.357 41.7441 302.705V6.18322C41.7585 4.54021 42.4206 2.96923 43.5865 1.81151C44.7524 0.653781 46.328 0.00281455 47.9711 0H258.911C260.565 0 262.152 0.6572 263.321 1.82702C264.491 2.99684 265.148 4.58346 265.148 6.23784V302.705C265.148 304.359 264.491 305.946 263.321 307.115C262.152 308.285 260.565 308.942 258.911 308.942ZM47.9711 0.218489C46.391 0.221383 44.8767 0.851083 43.7604 1.96937C42.6442 3.08766 42.0172 4.60317 42.0173 6.18322V302.705C42.0172 304.285 42.6442 305.8 43.7604 306.918C44.8767 308.037 46.391 308.666 47.9711 308.669H258.911C260.492 308.666 262.007 308.037 263.125 306.919C264.243 305.801 264.872 304.286 264.875 302.705V6.18322C264.872 4.60216 264.243 3.08669 263.125 1.96871C262.007 0.850728 260.492 0.221377 258.911 0.218489H47.9711Z" fill="#EBEBEB"/>
<path d="M495.214 308.942H284.263C282.61 308.94 281.025 308.281 279.856 307.112C278.686 305.943 278.028 304.358 278.025 302.705V6.18322C278.043 4.53922 278.707 2.96825 279.875 1.81082C281.042 0.653399 282.619 0.00278386 284.263 0H495.214C496.855 0.00568561 498.428 0.657922 499.591 1.81534C500.755 2.97276 501.415 4.5421 501.43 6.18322V302.705C501.43 304.355 500.775 305.939 499.61 307.108C498.445 308.277 496.864 308.937 495.214 308.942ZM284.263 0.218489C282.682 0.221377 281.167 0.850728 280.049 1.96871C278.931 3.08669 278.301 4.60216 278.299 6.18322V302.705C278.301 304.286 278.931 305.801 280.049 306.919C281.167 308.037 282.682 308.666 284.263 308.669H495.214C496.795 308.666 498.31 308.037 499.428 306.919C500.546 305.801 501.176 304.286 501.178 302.705V6.18322C501.176 4.60216 500.546 3.08669 499.428 1.96871C498.31 0.850728 496.795 0.221377 495.214 0.218489H284.263Z" fill="#EBEBEB"/>
<path d="M238.642 252.212H100.535V261.957H238.642V252.212Z" fill="#EBEBEB"/>
<path d="M238.643 252.212H178.592V261.957H238.643V252.212Z" fill="#E0E0E0"/>
<path d="M120.942 261.957H100.535V357.665H120.942V261.957Z" fill="#EBEBEB"/>
<path d="M120.942 271.832L100.535 264.884V261.957H120.942V271.832Z" fill="#E0E0E0"/>
<path d="M238.645 261.957H218.238V357.665H238.645V261.957Z" fill="#E0E0E0"/>
<path d="M198.999 261.957H178.592V357.665H198.999V261.957Z" fill="#EBEBEB"/>
<path d="M198.988 271.832L178.592 264.884V261.957H198.988V271.832Z" fill="#E0E0E0"/>
<path d="M160.588 261.957H140.182V357.665H160.588V261.957Z" fill="#E0E0E0"/>
<path d="M251.623 35.144H77.5645V183.356H251.623V35.144Z" fill="#EBEBEB"/>
<path d="M251.622 183.344H253.566L253.566 35.1327H251.622L251.622 183.344Z" fill="#E0E0E0"/>
<path d="M245.078 176.79V41.6875L84.1287 41.6875V176.79H245.078Z" fill="#F5F5F5"/>
<path d="M162.654 156.284C172.486 123.511 175.217 75.1707 196.127 81.8346C217.036 88.4985 189.649 159.977 189.649 159.977L162.654 156.284Z" fill="white"/>
<path d="M179.543 157.912C169.536 110.413 172.059 47.3572 140.969 48.7992C109.878 50.2412 140.969 159.977 140.969 159.977L179.543 157.912Z" fill="white"/>
<path d="M201.512 152.581H133.442C132.053 152.537 130.702 153.04 129.68 153.982C128.659 154.924 128.048 156.229 127.98 157.618C126.592 188.971 131.727 220.979 141.286 252.212H193.406C202.965 220.924 208.099 188.971 206.712 157.618C206.659 156.271 206.089 154.996 205.12 154.058C204.152 153.12 202.86 152.592 201.512 152.581Z" fill="#EBEBEB"/>
<path d="M356.356 51.6724H352.521V357.665H356.356V51.6724Z" fill="#E0E0E0"/>
<path d="M446.469 51.6724H442.635V357.665H446.469V51.6724Z" fill="#E0E0E0"/>
<path d="M329.163 51.6724H325.328V357.665H329.163V51.6724Z" fill="#EBEBEB"/>
<path d="M419.28 51.6724H415.445V357.665H419.28V51.6724Z" fill="#EBEBEB"/>
<path d="M446.469 49.5752H325.328V53.7592H446.469V49.5752Z" fill="#EBEBEB"/>
<path d="M446.469 124.505H325.328V128.689H446.469V124.505Z" fill="#EBEBEB"/>
<path d="M446.469 199.436H325.328V203.62H446.469V199.436Z" fill="#EBEBEB"/>
<path d="M446.469 274.367H325.328V278.551H446.469V274.367Z" fill="#EBEBEB"/>
<path d="M446.469 349.297H325.328V353.481H446.469V349.297Z" fill="#EBEBEB"/>
<path d="M446.468 49.5752H419.277V53.7592H446.468V49.5752Z" fill="#E0E0E0"/>
<path d="M446.468 124.505H419.277V128.689H446.468V124.505Z" fill="#E0E0E0"/>
<path d="M446.468 199.436H419.277V203.62H446.468V199.436Z" fill="#E0E0E0"/>
<path d="M446.468 274.367H419.277V278.551H446.468V274.367Z" fill="#E0E0E0"/>
<path d="M446.468 349.297H419.277V353.481H446.468V349.297Z" fill="#E0E0E0"/>
<path d="M374.194 75.0618V69.1626H359.632V75.0618C359.632 76.9113 358.898 78.6852 357.591 79.994C356.285 81.3029 354.512 82.0396 352.662 82.0425C350.813 82.0425 349.039 82.7764 347.73 84.0832C346.421 85.39 345.685 87.1628 345.682 89.0123V124.538H388.156V89.0123C388.153 87.1628 387.416 85.39 386.107 84.0832C384.798 82.7764 383.025 82.0425 381.175 82.0425C379.324 82.0425 377.548 81.307 376.239 79.9979C374.93 78.6887 374.194 76.9132 374.194 75.0618Z" fill="#F0F0F0"/>
<path d="M404.334 175.075H340.514V199.447H404.334V175.075Z" fill="#F0F0F0"/>
<path d="M404.335 199.436H415.445V175.064H404.335V199.436Z" fill="#E6E6E6"/>
<path d="M404.335 188.599H415.445V185.912H404.335V188.599Z" fill="#EBEBEB"/>
<path d="M404.334 185.912H340.514V188.599H404.334V185.912Z" fill="#F5F5F5"/>
<path d="M387.237 306.211H337.389V349.297H387.237V306.211Z" fill="#F0F0F0"/>
<path d="M387.238 349.308H395.912V306.222H387.238V349.308Z" fill="#E6E6E6"/>
<path d="M387.238 330.136H395.912V325.384H387.238V330.136Z" fill="#EBEBEB"/>
<path d="M387.237 325.384H337.389V330.136H387.237V325.384Z" fill="#F5F5F5"/>
<path d="M387.238 322.052H395.912V320.358H387.238V322.052Z" fill="#EBEBEB"/>
<path d="M387.237 320.358H337.389V322.052H387.237V320.358Z" fill="#F5F5F5"/>
<path d="M349.537 230.56H340.514V274.366H349.537V230.56Z" fill="#F0F0F0"/>
<path d="M349.537 246.171H340.514V258.756H349.537V246.171Z" fill="#FAFAFA"/>
<path d="M349.537 274.377H380.234V230.571H349.537V274.377Z" fill="#E6E6E6"/>
<path d="M363.478 224.901H353.285V274.367H363.478V224.901Z" fill="#EBEBEB"/>
<path d="M363.478 240.621H353.285V248.235H363.478V240.621Z" fill="#FAFAFA"/>
<path d="M363.478 253.337H353.285V260.952H363.478V253.337Z" fill="#FAFAFA"/>
<path d="M363.487 274.367H398.15V224.901H363.487V274.367Z" fill="#E0E0E0"/>
<path d="M374.829 230.56H369.334V274.366H374.829V230.56Z" fill="#F0F0F0"/>
<path d="M373.877 236.109H370.271V268.817H373.877V236.109Z" fill="#FAFAFA"/>
<path d="M374.816 274.377H393.486V230.571H374.816V274.377Z" fill="#E6E6E6"/>
<path d="M389.498 228.255H383.293V274.367H389.498V228.255Z" fill="#EBEBEB"/>
<path d="M389.498 242.904H383.293V250.005H389.498V242.904Z" fill="#FAFAFA"/>
<path d="M389.498 254.768H383.293V261.869H389.498V254.768Z" fill="#FAFAFA"/>
<path d="M389.498 274.367H410.582V228.255H389.498V274.367Z" fill="#E0E0E0"/>
<path d="M386.678 171.095C391.986 165.788 391.986 157.183 386.678 151.876C381.371 146.569 372.766 146.569 367.459 151.876C362.152 157.183 362.152 165.788 367.459 171.095C372.766 176.402 381.371 176.402 386.678 171.095Z" fill="#F5F5F5"/>
<path d="M393.618 174.923C398.751 174.09 402.237 169.252 401.404 164.119C400.571 158.985 395.733 155.499 390.6 156.332C385.466 157.166 381.98 162.003 382.814 167.137C383.647 172.27 388.484 175.756 393.618 174.923Z" fill="#EBEBEB"/>
<path d="M273.11 407C390.092 407 484.924 401.463 484.924 394.634C484.924 387.804 390.092 382.267 273.11 382.267C156.129 382.267 61.2969 387.804 61.2969 394.634C61.2969 401.463 156.129 407 273.11 407Z" fill="#F5F5F5"/>
<path d="M137.768 309.915H278.081V382.354C278.081 383.283 277.898 384.202 277.543 385.059C277.188 385.917 276.667 386.696 276.011 387.352C275.354 388.009 274.575 388.529 273.718 388.884C272.86 389.24 271.941 389.422 271.013 389.422H144.836C143.907 389.422 142.988 389.24 142.131 388.884C141.273 388.529 140.494 388.009 139.838 387.352C139.181 386.696 138.661 385.917 138.306 385.059C137.95 384.202 137.768 383.283 137.768 382.354V309.915Z" fill="#751B74"/>
<path d="M137.768 309.915H237.06L224.846 294.282C223.503 292.567 220.182 291.179 217.418 291.179H128.122C125.369 291.179 124.211 292.567 125.554 294.282L137.768 309.915Z" fill="#751B74"/>
<path opacity="0.2" d="M137.768 309.915H237.06L224.846 294.282C223.503 292.567 220.182 291.179 217.418 291.179H128.122C125.369 291.179 124.211 292.567 125.554 294.282L137.768 309.915Z" fill="black"/>
<path d="M278.082 309.915H178.801L191.014 299.722C192.358 298.63 195.679 297.701 198.443 297.701H287.728C290.492 297.701 291.639 298.608 290.295 299.722L278.082 309.915Z" fill="#751B74"/>
<path opacity="0.2" d="M178.801 309.915H278.082V382.354C278.082 383.283 277.899 384.202 277.544 385.059C277.189 385.917 276.668 386.696 276.012 387.352C275.355 388.009 274.576 388.529 273.719 388.884C272.861 389.24 271.942 389.422 271.014 389.422H185.869C184.941 389.422 184.022 389.24 183.164 388.884C182.306 388.529 181.527 388.009 180.871 387.352C180.215 386.696 179.694 385.917 179.339 385.059C178.984 384.202 178.801 383.283 178.801 382.354V309.915Z" fill="white"/>
<path opacity="0.5" d="M150.092 309.915V359.599L153.522 356.89L155.936 359.599L158.034 356.584L160.186 359.599L163.179 357.337L166.478 359.599V309.915H150.092Z" fill="white"/>
<path d="M172.299 201.534L154.656 186.72" stroke="#751B74" stroke-miterlimit="10"/>
<path d="M181.445 209.214L176.07 204.691" stroke="#751B74" stroke-miterlimit="10"/>
<path d="M234.297 240.217L292.503 167.472L215.005 102.406L163.66 161.321L156.013 176.058C155.633 176.477 155.344 176.969 155.163 177.504C154.982 178.039 154.914 178.606 154.962 179.169C155.01 179.732 155.174 180.279 155.443 180.775C155.712 181.272 156.081 181.708 156.526 182.056L226.443 240.763C227.58 241.68 229.021 242.132 230.477 242.031C231.934 241.93 233.298 241.282 234.297 240.217Z" fill="#751B74"/>
<path opacity="0.5" d="M194.379 186.567L186 200.059L189.376 200.791L190.523 203.915L192.762 204.046L193.8 206.723L196.542 207.52L198.65 210.874L207.029 197.383L194.379 186.567Z" fill="white"/>
<path opacity="0.1" d="M289.968 165.341L237.771 223.568L163.627 161.321L215.004 102.406L289.968 165.341Z" fill="black"/>
<path d="M289.966 165.341L237.77 223.568L259.378 225.163L310.766 166.248L289.966 165.341Z" fill="#751B74"/>
<path opacity="0.3" d="M289.966 165.341L237.77 223.568L259.378 225.163L310.766 166.248L289.966 165.341Z" fill="black"/>
<path d="M194.216 101.488L142.008 159.726L163.627 161.321L215.005 102.405L194.216 101.488Z" fill="#751B74"/>
<path opacity="0.4" d="M194.216 101.488L142.008 159.726L163.627 161.321L215.005 102.405L194.216 101.488Z" fill="black"/>
<path opacity="0.1" d="M273.899 183.268L289.969 165.341L215.006 102.406L205.414 125.522L273.899 183.268Z" fill="black"/>
<path opacity="0.2" d="M163.627 161.321L215.004 102.406L205.413 125.522L169.231 166.03L163.627 161.321Z" fill="black"/>
<path d="M308.069 55.7146C308.277 56.4138 308.069 57.102 307.61 57.2331C307.152 57.3642 306.616 56.9054 306.409 56.2062C306.201 55.507 306.409 54.8188 306.868 54.6768C307.326 54.5348 307.873 55.0154 308.069 55.7146Z" fill="#263238"/>
<path d="M308.148 57.0913C307.942 59.495 307.405 61.8588 306.553 64.1157C307.137 64.3183 307.758 64.391 308.373 64.3287C308.988 64.2665 309.582 64.0707 310.114 63.7552L308.148 57.0913Z" fill="#ED847E"/>
<path d="M309.522 51.05C309.615 50.9967 309.685 50.9111 309.719 50.8097C309.739 50.7567 309.749 50.7001 309.747 50.6434C309.745 50.5866 309.731 50.5309 309.706 50.4797C309.682 50.4285 309.647 50.3829 309.604 50.3457C309.561 50.3085 309.511 50.2805 309.457 50.2634C308.817 50.0181 308.127 49.9307 307.446 50.0086C306.766 50.0866 306.114 50.3277 305.546 50.7113C305.472 50.7863 305.428 50.8853 305.421 50.9904C305.414 51.0954 305.446 51.1993 305.509 51.283C305.573 51.3667 305.665 51.4246 305.768 51.446C305.871 51.4674 305.978 51.4509 306.07 51.3996C306.524 51.1019 307.042 50.9169 307.582 50.8599C308.121 50.8029 308.667 50.8756 309.173 51.0718C309.229 51.0925 309.29 51.1012 309.35 51.0975C309.41 51.0937 309.469 51.0776 309.522 51.05Z" fill="#263238"/>
<path d="M332.366 60.3904C332.847 66.1804 334.278 76.7771 337.697 79.2241C337.697 79.2241 336.889 86.183 324.588 87.9637C311.107 89.9519 317.159 82.2174 317.159 82.2174C324.249 79.3771 323.255 73.9476 321.223 69.0098L326.423 63.0451C328.422 60.8383 332.104 57.4299 332.366 60.3904Z" fill="#FFC3BD"/>
<path d="M342.098 82.0535C343.19 81.0594 341.005 77.0829 339.662 76.5258C336.144 75.051 321.757 76.5258 316.349 81.1686C315.9 81.9368 315.629 82.7956 315.556 83.6822C315.482 84.5687 315.607 85.4605 315.923 86.2922L342.098 82.0535Z" fill="white"/>
<path d="M387.917 374.063C387.562 374.225 387.178 374.314 386.788 374.325C386.397 374.337 386.009 374.27 385.645 374.129C385.501 374.015 385.395 373.859 385.342 373.683C385.29 373.507 385.292 373.32 385.35 373.145C385.379 373.002 385.439 372.868 385.526 372.751C385.613 372.634 385.724 372.537 385.852 372.468C387.032 371.78 389.949 372.686 390.069 372.73C390.109 372.741 390.145 372.763 390.172 372.794C390.2 372.825 390.217 372.864 390.222 372.905C390.228 372.948 390.22 372.992 390.201 373.031C390.181 373.07 390.151 373.102 390.113 373.123C389.415 373.51 388.679 373.825 387.917 374.063ZM386.322 372.73L386.071 372.839C385.996 372.88 385.931 372.936 385.88 373.004C385.829 373.072 385.794 373.15 385.776 373.233C385.699 373.626 385.852 373.746 385.896 373.779C386.42 374.15 388.201 373.615 389.436 372.992C388.43 372.677 387.367 372.587 386.322 372.73Z" fill="#751B74"/>
<path d="M390.068 373.134C390.032 373.145 389.994 373.145 389.959 373.134C388.866 372.916 386.583 371.55 386.463 370.523C386.446 370.362 386.485 370.199 386.575 370.064C386.665 369.928 386.799 369.828 386.954 369.781C387.106 369.713 387.27 369.678 387.435 369.678C387.601 369.678 387.765 369.713 387.916 369.781C389.183 370.305 390.166 372.752 390.199 372.85C390.221 372.883 390.232 372.921 390.232 372.96C390.232 372.998 390.221 373.036 390.199 373.069C390.184 373.089 390.164 373.106 390.141 373.117C390.118 373.128 390.093 373.134 390.068 373.134ZM387.228 370.152C387.196 370.143 387.161 370.143 387.129 370.152C386.878 370.261 386.889 370.392 386.9 370.447C386.965 371.059 388.517 372.162 389.62 372.566C389.292 371.856 388.528 370.48 387.752 370.152C387.583 370.087 387.396 370.087 387.228 370.152Z" fill="#751B74"/>
<path d="M323.889 385.796C322.721 385.796 321.595 385.632 321.213 385.107C321.115 384.97 321.062 384.806 321.062 384.638C321.062 384.469 321.115 384.305 321.213 384.168C321.286 384.041 321.383 383.931 321.5 383.843C321.616 383.754 321.749 383.69 321.89 383.654C323.409 383.25 326.599 385.064 326.73 385.14C326.77 385.16 326.803 385.192 326.824 385.232C326.845 385.271 326.852 385.317 326.845 385.361C326.837 385.406 326.816 385.446 326.783 385.477C326.751 385.509 326.709 385.528 326.664 385.533C325.749 385.704 324.82 385.792 323.889 385.796ZM322.447 384.026C322.307 384.02 322.167 384.039 322.032 384.08C321.857 384.119 321.704 384.225 321.606 384.375C321.453 384.649 321.508 384.78 321.606 384.856C322.032 385.446 324.337 385.457 325.976 385.217C324.888 384.595 323.69 384.191 322.447 384.026Z" fill="#751B74"/>
<path d="M326.641 385.545H326.554C325.461 385.053 323.277 383.076 323.44 382.049C323.44 381.809 323.659 381.503 324.249 381.448C324.462 381.424 324.678 381.445 324.883 381.509C325.088 381.573 325.278 381.679 325.44 381.82C326.608 382.77 326.849 385.228 326.86 385.326C326.866 385.364 326.861 385.403 326.845 385.438C326.83 385.472 326.804 385.502 326.772 385.523C326.732 385.544 326.686 385.552 326.641 385.545ZM324.456 381.852H324.325C323.932 381.852 323.91 382.049 323.899 382.093C323.801 382.715 325.287 384.277 326.401 384.944C326.306 383.902 325.885 382.916 325.199 382.125C324.994 381.945 324.729 381.847 324.456 381.852Z" fill="#751B74"/>
<path d="M336.669 385.326H327.547L326.641 364.22H335.763L336.669 385.326Z" fill="#FFC3BD"/>
<path d="M400.742 370.917L392.341 373.812L383.623 353.918L392.024 351.023L400.742 370.917Z" fill="#FFC3BD"/>
<path d="M390.344 371.725L400.176 368.721C400.35 368.668 400.536 368.676 400.705 368.743C400.874 368.811 401.015 368.934 401.104 369.092L405.201 376.303C405.299 376.479 405.357 376.675 405.369 376.877C405.381 377.078 405.347 377.28 405.271 377.467C405.194 377.654 405.076 377.821 404.926 377.956C404.776 378.091 404.597 378.191 404.403 378.247C400.962 379.241 399.247 379.547 394.943 380.869C392.288 381.677 385.602 384.212 381.834 384.966C378.065 385.719 376.852 382.114 378.316 381.47C384.871 378.575 387.558 375.287 389.12 372.73C389.393 372.258 389.828 371.901 390.344 371.725Z" fill="#263238"/>
<path d="M327.615 384.267H337.567C337.747 384.269 337.921 384.332 338.062 384.445C338.202 384.557 338.301 384.714 338.342 384.889L340.145 392.995C340.19 393.191 340.189 393.394 340.144 393.589C340.099 393.785 340.009 393.967 339.883 394.123C339.757 394.279 339.597 394.404 339.415 394.488C339.233 394.573 339.034 394.615 338.834 394.612C335.24 394.557 330.094 394.339 325.539 394.339C320.262 394.339 318.045 394.634 311.851 394.634C308.114 394.634 307.077 390.854 308.639 390.504C315.772 388.942 319.257 388.778 325.419 384.977C326.072 384.544 326.832 384.298 327.615 384.267Z" fill="#263238"/>
<path d="M354.104 85.0356C356.759 87.4718 359.053 89.9079 361.434 92.4533C363.816 94.9987 366.022 97.6315 368.164 100.439C370.4 103.291 372.43 106.3 374.238 109.441C375.225 111.172 376.08 112.976 376.794 114.837C376.98 115.351 377.165 115.843 377.318 116.4C377.497 116.963 377.647 117.536 377.766 118.115L377.952 119.021L378.083 120.027C378.205 120.947 378.205 121.88 378.083 122.801C377.832 124.54 377.19 126.198 376.204 127.652C375.485 128.713 374.641 129.685 373.691 130.547C372.164 131.932 370.494 133.152 368.71 134.185C365.566 135.983 362.277 137.514 358.878 138.762C352.429 141.156 345.783 142.983 339.017 144.224L337.105 137.669C343.037 135.102 349.046 132.327 354.585 129.367C357.281 127.953 359.876 126.354 362.352 124.582C363.383 123.849 364.332 123.007 365.181 122.069C365.439 121.792 365.656 121.48 365.826 121.141C365.913 120.955 365.826 120.977 365.717 121.37C365.64 122.102 365.651 121.534 365.476 121.141C365.422 120.955 365.323 120.704 365.225 120.464C365.127 120.223 365.006 119.95 364.886 119.688C364.294 118.496 363.634 117.34 362.909 116.225C361.222 113.72 359.398 111.309 357.447 109.004C355.437 106.622 353.317 104.252 351.143 101.925C348.969 99.5979 346.686 97.2491 344.589 95.0861L354.104 85.0356Z" fill="#FFC3BD"/>
<path d="M339.609 136.632L331.012 139.232L336.539 148.321C336.539 148.321 341.619 146.223 342.745 141.908L339.609 136.632Z" fill="#FFC3BD"/>
<path d="M327.537 142.455L330.924 149.949L336.484 148.332L330.956 139.232L327.537 142.455Z" fill="#FFC3BD"/>
<path d="M333.962 87.5048C333.143 96.2443 351.627 109.769 351.627 109.769L369.423 97.588C366.332 91.8886 361.815 87.0892 356.313 83.6594C346.11 77.1266 334.989 76.6459 333.962 87.5048Z" fill="#751B74"/>
<g opacity="0.3">
<path d="M333.962 87.5048C333.143 96.2443 351.627 109.769 351.627 109.769L369.423 97.588C366.332 91.8886 361.815 87.0892 356.313 83.6594C346.11 77.1266 334.989 76.6459 333.962 87.5048Z" fill="white"/>
</g>
<path d="M303.7 86.8053C303.7 86.8053 295.714 99.0625 314.679 164.806L362.9 157.683C362.222 151.019 354.16 121.949 353.887 90.17C353.876 88.6353 353.554 87.1188 352.94 85.712C352.327 84.3052 351.435 83.0373 350.318 81.9847C349.201 80.9322 347.883 80.1168 346.442 79.5878C345.001 79.0588 343.468 78.8272 341.936 78.9069C340.537 78.9834 339.095 79.0817 337.664 79.2237C330.78 79.8375 323.938 80.8479 317.17 82.2498C312.57 83.4203 308.067 84.9433 303.7 86.8053Z" fill="#751B74"/>
<g opacity="0.3">
<path d="M303.7 86.8053C303.7 86.8053 295.714 99.0625 314.679 164.806L362.9 157.683C362.222 151.019 354.16 121.949 353.887 90.17C353.876 88.6353 353.554 87.1188 352.94 85.712C352.327 84.3052 351.435 83.0373 350.318 81.9847C349.201 80.9322 347.883 80.1168 346.442 79.5878C345.001 79.0588 343.468 78.8272 341.936 78.9069C340.537 78.9834 339.095 79.0817 337.664 79.2237C330.78 79.8375 323.938 80.8479 317.17 82.2498C312.57 83.4203 308.067 84.9433 303.7 86.8053Z" fill="white"/>
</g>
<path opacity="0.2" d="M302.52 107.933L302.683 107.748L314.023 108.753C315.749 116.072 309.435 126.057 306.103 130.689C304.499 123.174 303.303 115.578 302.52 107.933Z" fill="black"/>
<path opacity="0.2" d="M326.641 364.231L327.11 375.112H336.232L335.763 364.231H326.641Z" fill="black"/>
<path opacity="0.2" d="M392.024 351.023L383.623 353.918L388.124 364.176L396.525 361.281L392.024 351.023Z" fill="black"/>
<path d="M331.175 47.3248C333.185 56.1408 334.802 61.1988 331.732 66.9887C327.122 75.6081 315.258 74.7778 310.659 66.7374C306.519 59.4946 303.919 46.2979 311.391 40.355C313.028 39.0402 314.974 38.1649 317.045 37.8119C319.115 37.4589 321.241 37.6398 323.221 38.3376C325.202 39.0354 326.972 40.227 328.364 41.7996C329.756 43.3722 330.723 45.2739 331.175 47.3248Z" fill="#FFC3BD"/>
<path d="M313.466 55.966L310.113 58.0198L310.429 46.5491C308.267 46.642 306.134 46.0243 304.355 44.7903C305.568 43.6323 324.445 37.0231 330.334 38.1701C330.945 37.9189 331.688 36.7827 331.688 36.7827C331.688 36.7827 331.918 38.2138 330.924 38.76C331.645 38.618 333.447 38.9676 333.95 40.0273C333.123 39.8014 332.244 39.8512 331.448 40.1693C331.448 40.1693 338.003 41.1634 335.676 50.2525C333.065 60.2702 333.928 66.0274 333.928 66.0274C333.928 66.0274 329.056 69.7963 324.817 69.0971C320.294 64.1156 313.761 58.129 313.466 55.966Z" fill="#263238"/>
<path d="M307.043 43.8833C301.723 43.8833 299.811 41.2832 298.445 39.0984C302.269 38.6942 310.233 36.2362 316.143 35.821C322.053 35.4059 328.531 36.5093 326.576 39.0984C324.62 41.6875 307.043 43.8833 307.043 43.8833Z" fill="#263238"/>
<path d="M308.211 41.5129C303.841 40.9011 299.581 36.7826 302.858 32.8389C304.071 35.7338 312.253 35.3952 318.065 34.1826C325.712 32.5876 331.01 35.1658 328.301 40.3767C326.815 43.228 308.211 41.5129 308.211 41.5129Z" fill="#263238"/>
<path d="M318.185 53.3551C318.811 55.5122 318.711 57.8149 317.901 59.9098C316.809 62.6518 314.384 62.0947 313.117 59.7241C312.024 57.5392 311.194 53.5736 313.051 51.5963C314.908 49.619 317.399 50.766 318.185 53.3551Z" fill="#FFC3BD"/>
<path d="M331.787 162.282C331.787 162.282 339.609 228.867 345.29 254.954C351.506 283.532 382.171 361.445 382.171 361.445L397.465 356.158C397.465 356.158 377.801 297.494 372.579 257.543C368.57 226.867 362.856 157.683 362.856 157.683L331.787 162.282Z" fill="#263238"/>
<path d="M378.259 356.551C378.183 356.551 381.394 363.106 381.394 363.106L399.256 357.305L397.158 351.974L378.259 356.551Z" fill="#751B74"/>
<path opacity="0.3" d="M336.104 196.443C338.551 214.949 341.686 236.863 344.439 250.857C348.492 229.413 349.442 202.331 336.104 196.443Z" fill="black"/>
<path d="M314.68 164.806C314.68 164.806 308.191 227.359 309.218 255.151C310.244 284.057 323.747 373.003 323.747 373.003H339.183C339.183 373.003 336.343 285.739 336.998 257.357C337.752 226.408 349.354 159.682 349.354 159.682L314.68 164.806Z" fill="#263238"/>
<path d="M320.744 366.853C320.678 366.853 321.617 373.255 321.617 373.255H340.397L340.91 367.541L320.744 366.853Z" fill="#751B74"/>
<path d="M311.685 102.165C309.981 104.875 308.255 107.311 306.463 109.812C304.671 112.314 302.792 114.728 300.881 117.132C296.983 122.007 292.761 126.613 288.241 130.918C287.017 132.011 285.892 133.103 284.57 134.097L283.609 134.873L283.128 135.255C282.954 135.397 282.877 135.474 282.517 135.736C281.434 136.508 280.246 137.119 278.988 137.549C277.041 138.215 275.004 138.583 272.947 138.642C271.207 138.7 269.464 138.624 267.736 138.413C261.417 137.584 255.253 135.84 249.438 133.234L251.327 126.68C256.917 127.343 262.546 127.613 268.173 127.488C269.418 127.423 270.658 127.288 271.887 127.084C272.814 126.949 273.713 126.668 274.553 126.254C274.815 126.112 274.957 125.97 274.924 125.937C274.891 125.904 275.066 125.795 275.164 125.696L275.536 125.358L276.268 124.67C277.251 123.796 278.18 122.736 279.141 121.775C281.031 119.743 282.91 117.656 284.691 115.438C286.471 113.221 288.274 110.992 290.022 108.698C291.77 106.404 293.463 104.077 295.167 101.75C296.871 99.4233 298.532 96.9762 300.105 94.7148L311.685 102.165Z" fill="#FFC3BD"/>
<path d="M318.034 99.2701C321.705 111.287 300.391 124.604 300.391 124.604L286.539 106.961C289.661 101.144 293.516 95.7503 298.01 90.913C307.437 80.655 315.237 90.1264 318.034 99.2701Z" fill="#751B74"/>
<g opacity="0.3">
<path d="M318.032 99.2701C321.703 111.287 300.389 124.604 300.389 124.604L286.537 106.961C289.659 101.144 293.514 95.7503 298.008 90.913C307.436 80.655 315.236 90.1264 318.032 99.2701Z" fill="white"/>
</g>
<path d="M254.54 127.084L243.32 125.03L244.5 134.731C244.5 134.731 250.334 138.008 254.562 132.884L254.54 127.084Z" fill="#FFC3BD"/>
<path d="M238.994 127.215L241.419 134.217L244.478 134.731L243.298 125.03L238.994 127.215Z" fill="#FFC3BD"/>
<path d="M190.961 459.797C190.961 459.469 191.078 459.188 191.312 458.953C191.547 458.714 191.828 458.594 192.156 458.594C192.484 458.594 192.766 458.714 193 458.953C193.234 459.188 193.352 459.469 193.352 459.797C193.352 460.125 193.234 460.406 193 460.641C192.766 460.875 192.484 460.992 192.156 460.992C191.823 460.992 191.539 460.878 191.305 460.648C191.076 460.419 190.961 460.135 190.961 459.797ZM202.203 454.18L203.398 452.977L204.602 454.18L203.398 455.383L202.203 454.18ZM199.375 454.18L200.578 452.977L201.773 454.18L200.578 455.383L199.375 454.18ZM210.422 461H210.258C209.716 461 209.266 460.922 208.906 460.766C208.547 460.609 208.245 460.37 208 460.047C207.724 460.38 207.372 460.622 206.945 460.773C206.523 460.924 205.951 461 205.227 461H198.781C197.62 461 196.74 460.695 196.141 460.086C195.547 459.477 195.25 458.578 195.25 457.391V455.82V455.664H195.406H196.773H196.93V455.82V457.383C196.93 458.029 197.081 458.508 197.383 458.82C197.69 459.128 198.164 459.281 198.805 459.281H205.242C205.945 459.281 206.438 459.18 206.719 458.977C207 458.773 207.141 458.419 207.141 457.914V455.898V455.742H207.297H208.633H208.789V455.898V457.914C208.789 458.398 208.896 458.747 209.109 458.961C209.323 459.174 209.703 459.281 210.25 459.281H210.422C210.552 459.281 210.617 459.549 210.617 460.086V460.172C210.617 460.724 210.552 461 210.422 461ZM210.336 459.281H211.078C211.656 459.281 212.083 459.169 212.359 458.945C212.635 458.721 212.773 458.38 212.773 457.922V455.891V455.734H212.93H214.266H214.422V455.891L214.43 457.938C214.435 458.401 214.542 458.742 214.75 458.961C214.958 459.174 215.286 459.281 215.734 459.281C216.156 459.281 216.469 459.172 216.672 458.953C216.88 458.734 216.984 458.393 216.984 457.93L216.992 455.891V455.734H217.148H218.477H218.633V455.891L218.641 457.914C218.646 458.383 218.75 458.727 218.953 458.945C219.156 459.164 219.471 459.273 219.898 459.273C220.232 459.273 220.479 459.169 220.641 458.961C220.802 458.753 220.883 458.414 220.883 457.945V455.641V455.484H221.039H222.406H222.562V455.641V458.008C222.562 458.945 222.333 459.68 221.875 460.211C221.417 460.737 220.773 461 219.945 461C219.023 461 218.326 460.677 217.852 460.031C217.398 460.677 216.682 461 215.703 461C214.818 461 214.128 460.669 213.633 460.008C213.102 460.669 212.247 461 211.07 461H210.336C210.206 461 210.141 460.724 210.141 460.172V460.086C210.141 459.549 210.206 459.281 210.336 459.281ZM224.359 450.578H225.656H225.812V450.734V460.836V460.992H225.656H224.359H224.203V460.836V450.734V450.578H224.359ZM233.422 458.352C233.422 458.685 233.534 458.927 233.758 459.078C233.982 459.229 234.333 459.305 234.812 459.305C235.286 459.305 235.628 459.229 235.836 459.078C236.044 458.922 236.148 458.669 236.148 458.32C236.148 458.117 236.029 457.833 235.789 457.469C235.549 457.104 235.188 456.703 234.703 456.266C234.224 456.828 233.891 457.266 233.703 457.578C233.516 457.885 233.422 458.143 233.422 458.352ZM234.805 461C233.893 461 233.164 460.779 232.617 460.336C232.076 459.888 231.805 459.229 231.805 458.359C231.805 457.927 231.935 457.477 232.195 457.008C232.461 456.539 232.922 455.909 233.578 455.117L233.406 454.953L233.305 454.852L233.398 454.742L234.25 453.727L234.352 453.602L234.469 453.711C235.302 454.445 235.948 455.062 236.406 455.562C236.865 456.062 237.206 456.539 237.43 456.992C237.659 457.44 237.773 457.898 237.773 458.367C237.773 459.237 237.505 459.893 236.969 460.336C236.432 460.779 235.711 461 234.805 461ZM247.82 461H247.695C247.518 461 247.352 460.987 247.195 460.961C247.044 460.935 246.896 460.891 246.75 460.828C246.609 460.766 246.482 460.703 246.367 460.641C246.253 460.573 246.128 460.482 245.992 460.367C245.857 460.247 245.74 460.143 245.641 460.055C245.547 459.966 245.424 459.846 245.273 459.695C245.013 460.107 244.607 460.427 244.055 460.656C243.503 460.885 242.818 461 242 461H239.156H239V460.844V459.438V459.281H239.156H242.008C243.279 459.281 243.914 459.021 243.914 458.5C243.914 458.156 243.674 457.706 243.195 457.148L241.008 454.625L240.914 454.523L241.008 454.422L241.953 453.359L242.07 453.227L242.188 453.359L245.672 457.453C246.188 458.052 246.565 458.477 246.805 458.727C247.049 458.971 247.229 459.125 247.344 459.188C247.458 459.25 247.594 459.281 247.75 459.281H247.82C247.951 459.281 248.016 459.549 248.016 460.086V460.172C248.016 460.724 247.951 461 247.82 461ZM253.844 451.188L254.977 450.062L256.102 451.188L254.977 452.328L253.844 451.188ZM255.219 453.117L256.352 451.977L257.492 453.117L256.352 454.242L255.219 453.117ZM252.453 453.117L253.594 451.977L254.727 453.117L253.594 454.242L252.453 453.117ZM261.742 461H261.586C261.039 461 260.565 460.919 260.164 460.758C259.768 460.596 259.44 460.357 259.18 460.039C258.971 460.372 258.721 460.617 258.43 460.773C258.143 460.924 257.784 461 257.352 461C256.43 461 255.732 460.677 255.258 460.031C254.805 460.677 254.089 461 253.109 461C252.224 461 251.534 460.669 251.039 460.008C250.508 460.669 249.654 461 248.477 461H247.742C247.612 461 247.547 460.724 247.547 460.172V460.086C247.547 459.549 247.612 459.281 247.742 459.281H248.484C249.062 459.281 249.49 459.169 249.766 458.945C250.042 458.721 250.18 458.38 250.18 457.922V455.891V455.734H250.336H251.672H251.828V455.891L251.836 457.938C251.841 458.401 251.948 458.742 252.156 458.961C252.365 459.174 252.693 459.281 253.141 459.281C253.562 459.281 253.875 459.172 254.078 458.953C254.286 458.734 254.391 458.393 254.391 457.93L254.398 455.891V455.734H254.555H255.883H256.039V455.891L256.047 457.914C256.052 458.388 256.156 458.734 256.359 458.953C256.568 459.167 256.891 459.273 257.328 459.273C257.661 459.273 257.906 459.169 258.062 458.961C258.224 458.747 258.305 458.404 258.305 457.93V455.891V455.734H258.461H259.773H259.93V455.891L259.938 457.906C259.943 458.375 260.073 458.721 260.328 458.945C260.583 459.169 260.982 459.281 261.523 459.281H261.742C261.872 459.281 261.938 459.549 261.938 460.086V460.172C261.938 460.724 261.872 461 261.742 461ZM261.664 459.281H263.25C263.766 459.281 264.13 459.188 264.344 459C264.562 458.807 264.672 458.451 264.672 457.93V455.633V455.477H264.828H266.188H266.344V455.633V457.938C266.344 458.943 266.081 459.706 265.555 460.227C265.034 460.742 264.263 461 263.242 461H261.664C261.534 461 261.469 460.724 261.469 460.172V460.086C261.469 459.549 261.534 459.281 261.664 459.281ZM263.789 452.828L265.016 451.602L266.242 452.828L265.016 454.055L263.789 452.828ZM275 461H272.156H272V460.844V459.438V459.281H272.156H275.008C276.279 459.281 276.914 459.021 276.914 458.5C276.914 458.151 276.674 457.701 276.195 457.148L274.008 454.625L273.914 454.523L274.008 454.422L274.953 453.359L275.07 453.227L275.188 453.359L277.516 456.078C278.234 456.922 278.594 457.745 278.594 458.547C278.594 459.281 278.284 459.875 277.664 460.328C277.044 460.776 276.156 461 275 461ZM286.414 461H285.469C285.432 462.146 285.008 463.039 284.195 463.68C283.388 464.326 282.255 464.648 280.797 464.648H280.219H280.062V464.492V463.117V462.961H280.219H280.75C281.734 462.961 282.482 462.792 282.992 462.453C283.508 462.12 283.784 461.635 283.82 461H282.719C281.776 461 281.06 460.763 280.57 460.289C280.086 459.815 279.844 459.117 279.844 458.195C279.844 457.742 279.904 457.326 280.023 456.945C280.148 456.56 280.326 456.224 280.555 455.938C280.789 455.651 281.091 455.427 281.461 455.266C281.831 455.104 282.247 455.023 282.711 455.023C283.576 455.023 284.25 455.305 284.734 455.867C285.224 456.424 285.469 457.177 285.469 458.125V459.281H286.414C286.544 459.281 286.609 459.549 286.609 460.086V460.172C286.609 460.724 286.544 461 286.414 461ZM281.461 458.164C281.461 458.544 281.56 458.826 281.758 459.008C281.961 459.19 282.279 459.281 282.711 459.281H283.836V458.117C283.836 457.159 283.451 456.68 282.68 456.68C281.867 456.68 281.461 457.174 281.461 458.164ZM291.727 461H291.523C290.659 461 289.961 460.69 289.43 460.07C289.164 460.383 288.839 460.617 288.453 460.773C288.068 460.924 287.661 461 287.234 461H286.336C286.206 461 286.141 460.724 286.141 460.172V460.086C286.141 459.549 286.206 459.281 286.336 459.281H287.219C287.714 459.281 288.076 459.177 288.305 458.969C288.534 458.755 288.648 458.424 288.648 457.977V450.734V450.578H288.805H290.102H290.258V450.734V457.977C290.258 458.44 290.354 458.773 290.547 458.977C290.745 459.18 291.096 459.281 291.602 459.281H291.727C291.857 459.281 291.922 459.549 291.922 460.086V460.172C291.922 460.724 291.857 461 291.727 461ZM292.688 465.227L293.82 464.086L294.945 465.227L293.82 466.352L292.688 465.227ZM294.062 463.297L295.195 462.172L296.336 463.297L295.195 464.438L294.062 463.297ZM291.297 463.297L292.438 462.172L293.57 463.297L292.438 464.438L291.297 463.297ZM291.648 459.281H293.867C294.383 459.281 294.747 459.188 294.961 459C295.18 458.807 295.289 458.451 295.289 457.93V455.633V455.477H295.445H296.805H296.961V455.633V457.938C296.961 458.943 296.698 459.706 296.172 460.227C295.651 460.742 294.885 461 293.875 461H291.648C291.518 461 291.453 460.724 291.453 460.172V460.086C291.453 459.549 291.518 459.281 291.648 459.281ZM299.172 452.109H300.469H300.625V452.242V460.836V460.969H300.469H299.172H299.016V460.836V452.242V452.109H299.172ZM299.031 449.352H302.062L302.078 450.664H299.109C298.812 450.664 298.578 450.75 298.406 450.922C298.234 451.089 298.078 451.333 297.938 451.656L296.914 451.07C297.065 450.549 297.326 450.133 297.695 449.82C298.07 449.508 298.516 449.352 299.031 449.352ZM316.938 461H316.672V461.461C316.672 462.451 316.289 463.208 315.523 463.734C314.763 464.26 313.664 464.523 312.227 464.523H311.477C309.909 464.523 308.727 464.148 307.93 463.398C307.133 462.648 306.734 461.539 306.734 460.07V457.406V457.25H306.891L308.258 457.258H308.414V457.414V460.062C308.414 460.99 308.664 461.677 309.164 462.125C309.664 462.578 310.435 462.805 311.477 462.805H312.227C312.622 462.805 312.974 462.784 313.281 462.742C313.594 462.706 313.885 462.638 314.156 462.539C314.427 462.44 314.635 462.294 314.781 462.102C314.932 461.914 315.008 461.682 315.008 461.406V461H313.188C313.01 461 312.859 460.93 312.734 460.789C312.615 460.643 312.523 460.445 312.461 460.195C312.43 460.081 312.409 459.997 312.398 459.945C312.388 459.893 312.375 459.823 312.359 459.734C312.344 459.641 312.339 459.576 312.344 459.539C312.354 459.497 312.367 459.453 312.383 459.406C312.404 459.359 312.435 459.328 312.477 459.312C312.523 459.292 312.581 459.281 312.648 459.281H316.938C317.068 459.281 317.133 459.549 317.133 460.086V460.172C317.133 460.724 317.068 461 316.938 461ZM317.906 459.281C317.979 459.281 318.016 459.549 318.016 460.086V460.172C318.016 460.724 317.979 461 317.906 461H316.742C316.669 461 316.633 460.724 316.633 460.172V460.086C316.633 459.549 316.669 459.281 316.742 459.281H317.906ZM320.117 463.586L321.312 462.383L322.516 463.586L321.312 464.789L320.117 463.586ZM317.289 463.586L318.492 462.383L319.688 463.586L318.492 464.789L317.289 463.586ZM317.758 459.281H319.977C320.492 459.281 320.857 459.188 321.07 459C321.289 458.807 321.398 458.451 321.398 457.93V455.633V455.477H321.555H322.914H323.07V455.633V457.938C323.07 458.943 322.807 459.706 322.281 460.227C321.76 460.742 320.995 461 319.984 461H317.758C317.628 461 317.562 460.724 317.562 460.172V460.086C317.562 459.549 317.628 459.281 317.758 459.281ZM330.914 461H329.969C329.932 462.146 329.508 463.039 328.695 463.68C327.888 464.326 326.755 464.648 325.297 464.648H324.719H324.562V464.492V463.117V462.961H324.719H325.25C326.234 462.961 326.982 462.792 327.492 462.453C328.008 462.12 328.284 461.635 328.32 461H327.219C326.276 461 325.56 460.763 325.07 460.289C324.586 459.815 324.344 459.117 324.344 458.195C324.344 457.742 324.404 457.326 324.523 456.945C324.648 456.56 324.826 456.224 325.055 455.938C325.289 455.651 325.591 455.427 325.961 455.266C326.331 455.104 326.747 455.023 327.211 455.023C328.076 455.023 328.75 455.305 329.234 455.867C329.724 456.424 329.969 457.177 329.969 458.125V459.281H330.914C331.044 459.281 331.109 459.549 331.109 460.086V460.172C331.109 460.724 331.044 461 330.914 461ZM325.961 458.164C325.961 458.544 326.06 458.826 326.258 459.008C326.461 459.19 326.779 459.281 327.211 459.281H328.336V458.117C328.336 457.159 327.951 456.68 327.18 456.68C326.367 456.68 325.961 457.174 325.961 458.164ZM333.195 463.586L334.391 462.383L335.594 463.586L334.391 464.789L333.195 463.586ZM330.367 463.586L331.57 462.383L332.766 463.586L331.57 464.789L330.367 463.586ZM330.836 459.281H333.055C333.57 459.281 333.935 459.188 334.148 459C334.367 458.807 334.477 458.451 334.477 457.93V455.633V455.477H334.633H335.992H336.148V455.633V457.938C336.148 458.943 335.885 459.706 335.359 460.227C334.839 460.742 334.073 461 333.062 461H330.836C330.706 461 330.641 460.724 330.641 460.172V460.086C330.641 459.549 330.706 459.281 330.836 459.281ZM346.242 461H346.117C345.94 461 345.773 460.987 345.617 460.961C345.466 460.935 345.318 460.891 345.172 460.828C345.031 460.766 344.904 460.703 344.789 460.641C344.674 460.573 344.549 460.482 344.414 460.367C344.279 460.247 344.161 460.143 344.062 460.055C343.969 459.966 343.846 459.846 343.695 459.695C343.435 460.107 343.029 460.427 342.477 460.656C341.924 460.885 341.24 461 340.422 461H337.578H337.422V460.844V459.438V459.281H337.578H340.43C341.701 459.281 342.336 459.021 342.336 458.5C342.336 458.156 342.096 457.706 341.617 457.148L339.43 454.625L339.336 454.523L339.43 454.422L340.375 453.359L340.492 453.227L340.609 453.359L344.094 457.453C344.609 458.052 344.987 458.477 345.227 458.727C345.471 458.971 345.651 459.125 345.766 459.188C345.88 459.25 346.016 459.281 346.172 459.281H346.242C346.372 459.281 346.438 459.549 346.438 460.086V460.172C346.438 460.724 346.372 461 346.242 461ZM348.523 463.586L349.719 462.383L350.922 463.586L349.719 464.789L348.523 463.586ZM345.695 463.586L346.898 462.383L348.094 463.586L346.898 464.789L345.695 463.586ZM346.164 459.281H348.383C348.898 459.281 349.263 459.188 349.477 459C349.695 458.807 349.805 458.451 349.805 457.93V455.633V455.477H349.961H351.32H351.477V455.633V457.938C351.477 458.943 351.214 459.706 350.688 460.227C350.167 460.742 349.401 461 348.391 461H346.164C346.034 461 345.969 460.724 345.969 460.172V460.086C345.969 459.549 346.034 459.281 346.164 459.281ZM358.375 458.125V460.844C358.375 462.026 357.969 462.956 357.156 463.633C356.344 464.31 355.193 464.648 353.703 464.648H353.125H352.969V464.492V463.117V462.961H353.125H353.656C354.641 462.961 355.388 462.792 355.898 462.453C356.414 462.12 356.69 461.635 356.727 461H355.625C354.682 461 353.966 460.763 353.477 460.289C352.992 459.815 352.75 459.117 352.75 458.195C352.75 457.742 352.81 457.326 352.93 456.945C353.055 456.56 353.232 456.224 353.461 455.938C353.695 455.651 353.997 455.427 354.367 455.266C354.737 455.104 355.154 455.023 355.617 455.023C356.482 455.023 357.156 455.305 357.641 455.867C358.13 456.424 358.375 457.177 358.375 458.125ZM354.367 458.164C354.367 458.544 354.466 458.826 354.664 459.008C354.867 459.19 355.185 459.281 355.617 459.281H356.742V458.117C356.742 457.159 356.357 456.68 355.586 456.68C354.773 456.68 354.367 457.174 354.367 458.164Z" fill="#170128"/>
</svg>
